<svg width="55" height="37" viewBox="0 0 55 37" fill="none" xmlns="http://www.w3.org/2000/svg">
<path d="M41.9347 10.5542V21.1326H46.8418C47.1124 21.1327 47.3769 21.2103 47.6019 21.3556C47.8269 21.5009 48.0022 21.7074 48.1057 21.949C48.2093 22.1905 48.2364 22.4564 48.1836 22.7128C48.1308 22.9693 48.0006 23.2049 47.8092 23.3898L38.797 32.0985C38.5404 32.3464 38.1924 32.4856 37.8296 32.4856C37.4667 32.4856 37.1187 32.3464 36.8621 32.0985L27.8499 23.3898C27.6586 23.2049 27.5283 22.9693 27.4755 22.7128C27.4227 22.4564 27.4498 22.1905 27.5534 21.949C27.6569 21.7074 27.8323 21.5009 28.0572 21.3556C28.2822 21.2103 28.5467 21.1327 28.8173 21.1326H33.7244V10.5542C33.7244 10.2035 33.8685 9.86721 34.1252 9.61923C34.3818 9.37125 34.7298 9.23193 35.0928 9.23193H40.5663C40.9293 9.23193 41.2773 9.37125 41.5339 9.61923C41.7906 9.86721 41.9347 10.2035 41.9347 10.5542Z" fill="#FFF5E0"/>
<path d="M13.1375 26.4477L13.1375 15.8693L8.23047 15.8693C7.95987 15.8693 7.69537 15.7917 7.47039 15.6464C7.24541 15.5011 7.07007 15.2946 6.96652 15.053C6.86297 14.8114 6.83587 14.5456 6.88865 14.2891C6.94143 14.0327 7.07171 13.7971 7.26302 13.6121L16.2753 4.90347C16.5319 4.65558 16.8799 4.51632 17.2427 4.51632C17.6056 4.51632 17.9535 4.65558 18.2102 4.90347L27.2224 13.6121C27.4137 13.7971 27.544 14.0327 27.5968 14.2891C27.6495 14.5456 27.6224 14.8114 27.5189 15.053C27.4154 15.2946 27.24 15.5011 27.015 15.6464C26.7901 15.7917 26.5255 15.8693 26.2549 15.8693L21.3479 15.8693L21.3479 26.4477C21.3479 26.7984 21.2037 27.1347 20.9471 27.3827C20.6905 27.6307 20.3424 27.77 19.9795 27.77L14.5059 27.77C14.143 27.77 13.7949 27.6307 13.5383 27.3827C13.2817 27.1347 13.1375 26.7984 13.1375 26.4477Z" fill="#FFF5E0"/>
</svg>
