<svg width="56" height="56" viewBox="0 0 56 56" fill="none" xmlns="http://www.w3.org/2000/svg">
<path d="M21 46.6667L21 28L12.6327 28C12.1713 27.9999 11.7202 27.863 11.3366 27.6066C10.953 27.3502 10.654 26.9858 10.4774 26.5595C10.3009 26.1332 10.2547 25.6642 10.3447 25.2116C10.4347 24.759 10.6568 24.3433 10.983 24.017L26.3504 8.64967C26.7879 8.21224 27.3813 7.9665 28 7.9665C28.6187 7.9665 29.2121 8.21224 29.6497 8.64967L45.017 24.017C45.3432 24.3433 45.5654 24.759 45.6554 25.2116C45.7454 25.6641 45.6992 26.1332 45.5226 26.5595C45.346 26.9858 45.047 27.3502 44.6634 27.6066C44.2798 27.863 43.8288 27.9999 43.3674 28L35 28L35 46.6667C35 47.2855 34.7542 47.879 34.3166 48.3166C33.879 48.7542 33.2855 49 32.6667 49L23.3334 49C22.7145 49 22.121 48.7542 21.6834 48.3166C21.2459 47.879 21 47.2855 21 46.6667Z" fill="#41B06E"/>
</svg>
