<svg width="36" height="42" viewBox="0 0 36 42" fill="none" xmlns="http://www.w3.org/2000/svg">
<path d="M10.7002 38.6999L10.7002 20.0332L2.33289 20.0332C1.87147 20.0331 1.42044 19.8962 1.03682 19.6398C0.653194 19.3834 0.354202 19.019 0.177639 18.5927C0.00107542 18.1664 -0.0451322 17.6974 0.0448587 17.2448C0.13485 16.7922 0.357 16.3765 0.683222 16.0502L16.0506 0.68287C16.4881 0.245438 17.0815 -0.000300647 17.7002 -0.000300702C18.3189 -0.000300756 18.9123 0.245438 19.3499 0.68287L34.7172 16.0502C35.0434 16.3765 35.2656 16.7922 35.3556 17.2448C35.4456 17.6974 35.3994 18.1664 35.2228 18.5927C35.0462 19.019 34.7472 19.3834 34.3636 19.6398C33.98 19.8962 33.529 20.0331 33.0676 20.0332L24.7002 20.0332L24.7002 38.6999C24.7002 39.3187 24.4544 39.9122 24.0168 40.3498C23.5792 40.7874 22.9857 41.0332 22.3669 41.0332L13.0336 41.0332C12.4147 41.0332 11.8212 40.7874 11.3836 40.3498C10.9461 39.9122 10.7002 39.3187 10.7002 38.6999Z" fill="#00224D"/>
</svg>
