<svg width="109" height="109" viewBox="0 0 109 109" fill="none" xmlns="http://www.w3.org/2000/svg">
<path d="M68.125 18.1667V54.5H84.4114C85.3095 54.5002 86.1874 54.7667 86.9341 55.2657C87.6808 55.7648 88.2628 56.474 88.6064 57.3038C88.9501 58.1335 89.04 59.0466 88.8649 59.9274C88.6897 60.8083 88.2573 61.6175 87.6223 62.2526L57.7109 92.164C56.8592 93.0155 55.7043 93.4938 54.5 93.4938C53.2957 93.4938 52.1407 93.0155 51.289 92.164L21.3776 62.2526C20.7426 61.6175 20.3102 60.8083 20.1351 59.9274C19.9599 59.0466 20.0498 58.1335 20.3935 57.3038C20.7372 56.474 21.3191 55.7648 22.0658 55.2657C22.8125 54.7667 23.6904 54.5002 24.5886 54.5H40.875V18.1667C40.875 16.9621 41.3535 15.807 42.2052 14.9552C43.0569 14.1035 44.2121 13.625 45.4166 13.625L63.5833 13.625C64.7878 13.625 65.943 14.1035 66.7947 14.9552C67.6465 15.807 68.125 16.9621 68.125 18.1667Z" stroke="#141e46" stroke-width="6.5" stroke-linecap="round" stroke-linejoin="round"/>
</svg>
