<svg width="56" height="56" viewBox="0 0 56 56" fill="none" xmlns="http://www.w3.org/2000/svg">
<path d="M35 9.33333V28H43.3673C43.8287 28.0001 44.2798 28.137 44.6634 28.3934C45.047 28.6498 45.346 29.0142 45.5226 29.4405C45.6991 29.8668 45.7453 30.3359 45.6553 30.7884C45.5653 31.241 45.3432 31.6567 45.017 31.983L29.6496 47.3503C29.2121 47.7878 28.6187 48.0335 28 48.0335C27.3813 48.0335 26.7879 47.7878 26.3503 47.3503L10.983 31.983C10.6568 31.6567 10.4346 31.241 10.3446 30.7884C10.2546 30.3359 10.3008 29.8668 10.4774 29.4405C10.654 29.0142 10.9529 28.6498 11.3366 28.3934C11.7202 28.137 12.1712 28.0001 12.6326 28H21V9.33333C21 8.71449 21.2458 8.121 21.6834 7.68342C22.121 7.24583 22.7145 7 23.3333 7L32.6666 7C33.2855 7 33.879 7.24583 34.3166 7.68342C34.7541 8.121 35 8.71449 35 9.33333Z" fill="#41B06E"/>
</svg>
