<svg width="36" height="42" viewBox="0 0 36 42" fill="none" xmlns="http://www.w3.org/2000/svg">
<path d="M24.7002 2.33334L24.7002 21L33.0675 21C33.5289 21.0001 33.9799 21.137 34.3636 21.3934C34.7472 21.6498 35.0462 22.0142 35.2227 22.4405C35.3993 22.8668 35.4455 23.3359 35.3555 23.7884C35.2655 24.241 35.0434 24.6567 34.7172 24.983L19.3498 40.3503C18.9123 40.7878 18.3189 41.0335 17.7002 41.0335C17.0814 41.0335 16.4881 40.7878 16.0505 40.3503L0.683165 24.983C0.356943 24.6567 0.134795 24.241 0.0448038 23.7884C-0.0451871 23.3359 0.00102062 22.8668 0.177584 22.4405C0.354148 22.0142 0.65314 21.6498 1.03676 21.3934C1.42039 21.137 1.87142 21.0001 2.33283 21L10.7002 21L10.7002 2.33334C10.7002 1.7145 10.946 1.121 11.3836 0.683419C11.8212 0.245835 12.4147 2.17065e-06 13.0335 2.27885e-06L22.3668 3.91074e-06C22.9857 4.01894e-06 23.5792 0.245837 24.0168 0.683422C24.4543 1.12101 24.7002 1.7145 24.7002 2.33334Z" fill="#00224D"/>
</svg>
