<svg width="109" height="109" viewBox="0 0 109 109" fill="none" xmlns="http://www.w3.org/2000/svg">
<path d="M40.875 90.8333L40.875 54.5L24.5886 54.5C23.6905 54.4998 22.8126 54.2333 22.0659 53.7343C21.3192 53.2352 20.7372 52.526 20.3936 51.6962C20.0499 50.8665 19.96 49.9534 20.1351 49.0726C20.3103 48.1917 20.7427 47.3825 21.3777 46.7474L51.2891 16.836C52.1408 15.9845 53.2958 15.5062 54.5 15.5062C55.7043 15.5062 56.8593 15.9845 57.711 16.836L87.6224 46.7474C88.2574 47.3825 88.6898 48.1917 88.8649 49.0726C89.0401 49.9534 88.9502 50.8665 88.6065 51.6962C88.2628 52.526 87.6809 53.2352 86.9342 53.7343C86.1875 54.2333 85.3096 54.4998 84.4115 54.5L68.125 54.5L68.125 90.8333C68.125 92.0379 67.6465 93.193 66.7948 94.0448C65.9431 94.8965 64.7879 95.375 63.5834 95.375L45.4167 95.375C44.2122 95.375 43.057 94.8965 42.2053 94.0448C41.3535 93.193 40.875 92.0379 40.875 90.8333Z" fill="#FFFFFF" stroke-linecap="round" stroke-linejoin="round"/>
</svg>
