<svg width="80" height="97" viewBox="0 0 80 97" fill="none" xmlns="http://www.w3.org/2000/svg">
<path d="M34.5506 50.0423L29.2593 50.4248C28.0889 50.5003 26.9219 50.6267 25.7617 50.5855C25.2086 50.612 24.6674 50.4189 24.2559 50.0483C23.8444 49.6777 23.596 49.1596 23.5647 48.6067C23.5086 48.3441 23.5059 48.0728 23.5569 47.8092C23.6078 47.5455 23.7114 47.2948 23.8614 47.072C24.0113 46.8492 24.2046 46.6589 24.4297 46.5124C24.6548 46.366 24.9071 46.2663 25.1715 46.2195C26.1006 45.9847 27.0455 45.8181 27.9988 45.7207C31.7956 45.3245 35.6106 44.996 39.4022 44.5804C42.649 44.2178 44.0787 45.574 43.4565 48.8154C42.6832 52.8842 41.7031 56.9153 40.7591 60.9263C40.472 62.173 39.7562 63.1723 38.3201 62.8739C36.8839 62.5754 36.52 61.5652 36.6936 60.2039C36.8672 58.8426 36.9995 57.4819 37.1686 55.5628C36.5179 56.0339 35.8978 56.5459 35.312 57.0955C32.6192 60.105 29.9534 63.1383 27.2754 66.1646C26.8219 66.7524 26.3064 67.2897 25.7378 67.7672C24.719 68.4853 23.5386 68.8326 22.5602 67.7697C21.5817 66.7067 22.0089 65.7122 22.9063 64.6953C26.3799 60.6587 29.8149 56.6325 33.244 52.5457C33.7888 51.9132 34.2892 51.2304 34.798 50.6179L34.5506 50.0423Z" fill="#FFFFFF"/>
<path d="M64.5635 66.5465C63.9488 67.498 63.3464 68.4565 62.7072 69.3939C62.0681 70.3313 61.3197 71.5567 60.5164 72.5381C60.3614 72.7619 60.1624 72.9518 59.9316 73.096C59.7007 73.2402 59.4429 73.3358 59.1738 73.3769C58.9047 73.418 58.63 73.4037 58.3666 73.3349C58.1033 73.2662 57.8567 73.1444 57.642 72.977C57.1758 72.6982 56.8365 72.2489 56.6959 71.7242C56.5553 71.1995 56.6245 70.6407 56.8888 70.1662C57.1359 69.5673 57.427 68.9876 57.7596 68.4317C59.9915 64.5518 62.2478 60.6861 64.4649 56.7895C66.239 53.6742 68.3644 53.4153 70.2078 56.4309C72.2557 59.7852 73.9676 63.3537 75.7368 66.8655C76.2863 67.9502 76.4185 69.1778 75.1047 69.9543C73.9975 70.6133 73.0978 70.1918 72.0234 68.6162C71.5252 67.8387 71.0463 67.056 70.2034 65.6875C69.9986 66.5349 69.8486 67.3947 69.7543 68.2614C69.689 71.8817 69.6824 75.5276 69.6436 79.1304C69.6844 80.1793 69.6405 81.2297 69.5121 82.2715C69.4839 82.8155 69.2445 83.3271 68.8448 83.6972C68.445 84.0673 67.9166 84.2667 67.372 84.2529C65.9084 84.1999 65.4015 83.1969 65.3838 81.8558C65.3224 77.9175 65.2675 73.9775 65.2189 70.0357C65.2047 68.9007 65.1879 67.7561 65.164 66.6237L64.5635 66.5465Z" fill="#FFFFFF"/>
<path d="M20.4117 21.8113C18.5989 20.2714 17.2083 19.1228 15.8596 17.9269C15.2016 17.3921 14.5996 16.7917 14.063 16.1351C13.4678 15.3241 13.2072 14.1928 14.1558 13.5759C14.9521 13.1664 15.8577 13.0195 16.7426 13.1563C17.2886 13.222 17.7876 13.8462 18.2731 14.2471C20.7257 16.2952 23.1783 18.3433 25.605 20.4064C28.0316 22.4695 28.24 24.9703 25.9369 26.9813C23.2348 29.3612 20.2935 31.4866 17.4431 33.7096C17.0788 34.1016 16.6051 34.3751 16.0834 34.4946C15.2126 34.4662 14.1122 34.4203 13.5344 33.8994C13.3386 33.7113 13.1876 33.4816 13.0927 33.2272C12.9978 32.9728 12.9613 32.7004 12.9859 32.43C13.0106 32.1596 13.0957 31.8982 13.2351 31.6652C13.3744 31.4322 13.5644 31.2336 13.791 31.0839C15.0736 29.9855 16.5258 29.1008 18.3521 27.8039C17.6849 27.6563 17.0065 27.5651 16.3241 27.5314C13.565 27.6925 10.784 27.9356 8.04586 28.0731C7.31199 28.1827 6.56227 28.1028 5.868 27.8409C5.56218 27.6756 5.29486 27.4474 5.08368 27.1712C4.8725 26.8951 4.72225 26.5773 4.64283 26.2389C4.66409 25.8911 4.76621 25.5532 4.941 25.2518C5.11579 24.9504 5.35845 24.694 5.64973 24.5028C6.5271 24.1524 7.45692 23.9512 8.40068 23.9076C11.6338 23.5075 14.9438 23.1206 18.2015 22.6832C18.9598 22.4504 19.6987 22.1589 20.4117 21.8113Z" fill="#FFFFFF"/>
</svg>
