<svg width="49" height="55" viewBox="0 0 49 55" fill="none" xmlns="http://www.w3.org/2000/svg">
<g clip-path="url(#clip0_1812_369)">
<path d="M24.9096 15.4816C22.9704 13.5593 20.7755 11.3288 20.8295 8.37649C20.8526 7.10997 21.3081 5.86115 22.2975 5.03654C23.1566 4.31506 24.2957 4.0897 25.3861 4.11721C26.5384 4.14479 27.6695 4.45444 28.7443 4.83861C30.1606 5.34413 31.5331 5.97152 32.8379 6.71597C35.4425 8.20631 37.8006 10.1386 39.746 12.4257C41.3534 14.3171 42.9638 16.6248 43.017 19.2153C43.0438 20.4795 42.5742 21.7068 41.7107 22.6353C40.7919 23.6211 39.5519 24.2207 38.3086 24.6803C36.8838 25.2089 35.3936 25.5749 33.933 25.9893L29.1326 27.3518C26.5127 28.0957 23.8048 28.8692 21.5797 30.5234C19.4753 32.0912 18.2273 34.5057 18.4577 37.1495C18.6965 39.8784 20.6046 42.1841 23.1063 43.1781C23.7605 43.4398 24.4465 43.6084 25.1425 43.6981C25.3728 43.7285 25.854 43.7075 25.8086 43.3647C25.7631 43.0218 25.1856 42.8801 24.9335 42.8416C22.2044 42.4254 20.2804 39.9634 20.0751 37.2761C19.8697 34.5888 21.5154 32.0605 23.8491 30.6473C26.3938 29.1063 29.3785 28.4436 32.2032 27.644C33.8337 27.1806 35.4642 26.7172 37.0947 26.2538C38.4818 25.8595 39.8871 25.4489 41.1683 24.7705C42.3586 24.1421 43.4088 23.2812 44.0506 22.0776C44.6378 20.9762 44.7478 19.6973 44.5372 18.4831C44.0782 15.8367 42.3299 13.5608 40.5771 11.6301C38.4904 9.31942 35.9904 7.37212 33.2491 5.89646C30.7858 4.56788 27.9981 3.36422 25.1645 3.21332C22.6895 3.07764 20.1189 4.01954 19.4013 6.64219C18.6151 9.50621 20.2452 12.1554 22.0869 14.1775C22.5789 14.7202 23.1003 15.2353 23.6216 15.7503C23.8839 16.0088 24.4034 16.1437 24.7565 16.0533C25.0939 15.9671 25.1539 15.7252 24.9096 15.4816Z" fill="#FFFFFF"/>
<path d="M17.2579 46.7144C16.4844 47.3336 16.4892 48.429 16.902 49.247C17.4338 50.3033 18.7127 50.7786 19.8373 50.7545C20.3575 50.7426 20.8814 50.617 21.3532 50.3899C21.5803 50.2802 21.7952 50.1456 21.9974 49.9948C22.1995 49.8439 22.5188 49.6358 22.5204 49.3647C22.5216 48.9105 22.2015 48.3689 21.9308 48.0253C21.5903 47.5879 21.1593 47.2231 20.68 46.9419C19.3894 46.1879 17.8439 46.0136 16.374 45.9766C16.1473 45.9706 15.8092 46.0964 15.9308 46.3763C16.0525 46.6561 16.4932 46.8125 16.7768 46.8424C17.7405 46.9439 18.7919 46.9623 19.5831 47.3701C20.2278 47.7021 20.7932 48.363 20.916 49.1697L20.9744 48.9537C20.619 49.3239 20.1766 49.6303 19.6745 49.7641C19.58 49.7898 19.425 49.8207 19.3626 49.8293C19.3764 49.8283 19.2401 49.8344 19.2125 49.8363L19.1315 49.8386C19.1862 49.8434 19.1915 49.842 19.1315 49.8386C19.0734 49.8318 18.9507 49.8145 19.0748 49.8371C19.0544 49.8342 18.8553 49.7728 18.9512 49.8058C19.0406 49.8351 18.8293 49.7488 18.8326 49.7507C18.9341 49.8049 18.7839 49.7048 18.8213 49.7397C18.5271 49.4673 18.307 49.0593 18.2572 48.5935C18.2075 48.1278 18.3836 47.6542 18.7655 47.3529C19.0588 47.1208 18.4962 46.7693 18.3339 46.6979C18.0139 46.5622 17.5512 46.4823 17.256 46.7177L17.2579 46.7144Z" fill="#FFFFFF"/>
</g>
<defs>
<clipPath id="clip0_1812_369">
<rect width="29.2294" height="46.1175" fill="white" transform="translate(23.0586) rotate(30)"/>
</clipPath>
</defs>
</svg>
