<svg width="63" height="65" viewBox="0 0 63 65" fill="none" xmlns="http://www.w3.org/2000/svg">
<g clip-path="url(#clip0_1812_380)">
<path d="M8.11949 31.1781L11.0207 21.0991L12.4278 16.223C12.9239 14.506 13.5403 12.7804 13.8889 11.0303C14.0188 10.3976 13.3941 10.3405 12.913 10.4676C12.2847 10.633 11.578 11.1296 11.3503 11.7498C10.7239 13.4428 10.3153 15.2328 9.81664 16.9649L8.40955 21.841L5.50175 31.922C5.31252 32.5731 6.0554 32.6151 6.51011 32.4962C7.11858 32.3369 7.93283 31.8142 8.11748 31.1716L8.11949 31.1781Z" fill="#FFF5E0"/>
<path d="M21.4731 37.096C31.2065 30.2564 41.0096 23.5024 50.6651 16.5512C51.003 16.3112 51.8149 15.7107 51.4986 15.2013C51.1904 14.718 50.237 15.1409 49.9149 15.3618C40.1037 22.0897 30.4249 29.0124 20.6936 35.8585C20.338 36.1111 19.4905 36.7369 19.828 37.2683C20.1422 37.7711 21.1505 37.3384 21.4817 37.1005L21.4731 37.096Z" fill="#FFF5E0"/>
<path d="M23.0426 50.0007L33.1086 52.7131L38.0593 54.0483C39.7622 54.508 41.4715 55.0586 43.2016 55.3957C43.7922 55.5061 44.515 55.0616 44.909 54.6758C45.1149 54.4766 45.7218 53.7036 45.1705 53.5096C43.4993 52.9187 41.7399 52.5335 40.0304 52.0758L35.0797 50.7406L24.8469 47.9798C23.9326 47.7336 21.6949 49.6384 23.036 50.0028L23.0426 50.0007Z" fill="#FFF5E0"/>
</g>
<defs>
<clipPath id="clip0_1812_380">
<rect width="49" height="52" fill="white" transform="translate(0 14.4541) rotate(-17.1564)"/>
</clipPath>
</defs>
</svg>
