<svg width="80" height="72" viewBox="0 0 80 72" fill="none" xmlns="http://www.w3.org/2000/svg">
<path d="M74.984 41.3622C75.5892 36.4226 72.3999 31.7462 68.8195 28.6719C64.8554 25.2526 59.9502 23.0965 54.7839 22.2432C44.3336 20.4639 33.9249 23.8062 24.5796 28.2376C18.7607 30.9937 13.2438 34.3153 7.99859 38.0755C7.51158 38.4259 7.55627 39.3208 7.91576 39.705C8.3689 40.2012 9.05827 40.1382 9.54527 39.7879C13.9919 36.6196 18.6559 33.8023 23.5373 31.3358C28.0044 29.1017 32.5952 27.1067 37.4003 25.7315C46.7473 23.1443 57.2261 23.2064 65.4362 28.9718C69.2981 31.6774 73.2644 36.2364 72.6258 41.3182C72.5709 41.9349 73.1661 42.4644 73.7436 42.4951C74.4873 42.5198 74.9291 41.9789 74.984 41.3622Z" fill="#FFFFFF"/>
<path d="M10.3705 20.5084C9.36548 26.4485 8.36044 32.3886 7.3554 38.3287C7.14288 39.553 6.64891 41.1459 7.83341 42.0387C8.41355 42.5047 9.15727 42.5294 9.91013 42.4513C10.663 42.3733 11.3766 42.271 12.1537 42.1537C15.15 41.7779 18.1314 41.3387 21.1277 40.963C24.5051 40.4968 27.8583 40.0699 31.2357 39.6038C31.8465 39.4923 32.2189 38.8003 32.0832 38.2288C31.9325 37.5938 31.319 37.2698 30.7082 37.3812C25.2143 38.1149 19.7204 38.8486 14.29 39.5672C12.8871 39.7325 11.4992 39.9613 10.0962 40.1265C9.92995 40.1325 9.51881 40.0959 9.34338 40.2046C9.19216 40.274 9.32832 40.1411 9.35846 40.2681C9.40045 40.7277 9.47631 40.3407 9.47631 40.3407C9.50052 40.3015 9.55539 39.6847 9.5796 39.6455C9.65547 39.2585 9.70712 38.9109 9.78298 38.5239C10.2505 35.8305 10.6788 33.1129 11.1706 30.3801C11.714 27.2998 12.2181 24.1952 12.7615 21.1148C12.8799 20.483 12.6022 19.8781 11.9553 19.6963C11.26 19.593 10.4647 19.9159 10.3705 20.5084Z" fill="#FFFFFF"/>
</svg>
