<svg width="151" height="115" viewBox="0 0 151 115" fill="none" xmlns="http://www.w3.org/2000/svg">
<g filter="url(#filter0_f_1822_222)">
<rect width="97.1128" height="97.1128" rx="10.121" transform="matrix(0.992546 -0.121869 -0.438371 0.898794 48.5625 19.8374)" fill="#41B06E"/>
<path d="M62.6445 37.8896L87.9876 34.7779C91.813 34.3082 94.95 34.2668 97.3986 34.6536C99.8566 35.0213 101.677 35.7747 102.859 36.9141C104.042 38.0534 104.601 39.5498 104.536 41.4032C104.492 43.2539 103.865 45.4206 102.654 47.9031C101.838 49.5774 100.835 51.2021 99.6477 52.7772C98.4692 54.3331 97.1027 55.8036 95.5481 57.1885C94.0148 58.5709 92.3028 59.8485 90.4121 61.0215C88.5307 62.1752 86.4848 63.1953 84.2742 64.0819L88.0731 77.1846L75.7044 78.7032L72.5835 67.037L72.2966 67.0723L57.0091 68.9222L46.9038 70.163L62.6445 37.8896ZM76.3596 59.1104C78.2723 58.8755 80.0392 58.4686 81.6602 57.8896C83.3024 57.3081 84.7801 56.5929 86.0931 55.7442C87.4274 54.8928 88.5817 53.9189 89.5561 52.8222C90.5611 51.7038 91.3781 50.4998 92.007 49.2104C93.2366 46.6894 93.2283 44.8631 91.982 43.7316C90.7451 42.5808 88.2034 42.2416 84.3567 42.7139L68.864 44.6162L60.8669 61.0126L76.3596 59.1104Z" fill="#FFFFFF"/>
<path d="M43.6328 76.8886L46.9174 70.1542L56.5479 68.9347L43.6328 76.8886Z" fill="#FFFFFF"/>
<rect width="46.9718" height="18.5784" rx="2.54238" transform="matrix(0.992546 -0.121869 -0.438371 0.898794 59.373 45.707)" fill="#FFFFFF"/>
<circle cx="3.76503" cy="3.76503" r="3.76503" transform="matrix(0.992546 -0.121869 -0.438371 0.898794 64.6914 49.7383)" fill="#41B06E"/>
<circle cx="3.76503" cy="3.76503" r="3.76503" transform="matrix(0.992546 -0.121869 -0.438371 0.898794 76.2559 48.3184)" fill="#41B06E"/>
<circle cx="3.76503" cy="3.76503" r="3.76503" transform="matrix(0.992546 -0.121869 -0.438371 0.898794 87.8262 46.8984)" fill="#41B06E"/>
</g>
<defs>
<filter id="filter0_f_1822_222" x="0.488281" y="0.151367" width="149.965" height="114.821" filterUnits="userSpaceOnUse" color-interpolation-filters="sRGB">
<feFlood flood-opacity="0" result="BackgroundImageFix"/>
<feBlend mode="normal" in="SourceGraphic" in2="BackgroundImageFix" result="shape"/>
<feGaussianBlur stdDeviation="4.5" result="effect1_foregroundBlur_1822_222"/>
</filter>
</defs>
</svg>
