<svg width="43" height="43" viewBox="0 0 43 43" fill="none" xmlns="http://www.w3.org/2000/svg">
<g clip-path="url(#clip0_1812_390)">
<path d="M18.0648 28.9272C18.8319 30.9152 19.7223 33.1897 18.9622 35.3115C18.6252 36.2496 18.0152 37.1192 17.1113 37.5768C16.1598 38.0593 14.9571 37.914 13.9339 37.7532C9.97321 37.1235 6.39313 34.4511 4.68664 30.8113C3.80145 28.9232 3.38594 26.5426 5.1199 24.9999C6.85385 23.4572 9.41744 23.2252 11.5921 22.8721C15.8938 22.1726 20.389 21.6893 24.2928 19.6116C26.18 18.6079 28.246 17.1613 28.7582 14.955C29.2704 12.7488 28.0323 10.5304 26.5839 8.92773C26.158 8.45648 25.6981 8.01926 25.2291 7.59112C25.022 7.40211 24.6738 7.15375 24.3716 7.23278C24.0898 7.30958 24.1858 7.59615 24.352 7.75328C26.0527 9.35415 27.8064 11.3438 27.5834 13.8483C27.367 16.2551 25.0557 17.8104 23.1004 18.8322C18.9922 20.9777 14.2421 21.3423 9.74514 22.1233C7.55231 22.5037 4.89584 22.9197 3.4466 24.8015C2.06993 26.5881 2.70372 29.0054 3.63201 30.8459C5.58666 34.7202 9.41488 37.609 13.6534 38.5073C14.7312 38.7365 15.9044 38.9022 17.0043 38.754C18.1041 38.6059 18.9351 38.0072 19.5337 37.1491C20.8465 35.267 20.506 32.8933 19.8161 30.8418C19.631 30.2937 19.4232 29.7547 19.2132 29.2133C19.1059 28.9335 18.7759 28.7216 18.4917 28.6597C18.3052 28.6185 17.9529 28.6429 18.0625 28.9295L18.0648 28.9272Z" fill="#FFFFFF"/>
<path d="M32.1573 7.62134C32.7001 7.36542 33.3632 7.00742 33.5508 6.39175C33.7746 5.66703 33.3007 4.9843 32.7181 4.58325C32.0581 4.1275 31.2053 3.89192 30.4261 4.16107C29.84 4.36464 29.3499 4.85023 29.3851 5.51174C29.4321 6.40285 30.254 7.143 31.1224 7.20814C31.2156 7.21512 31.3519 7.19717 31.404 7.10406C31.4562 7.01096 31.4059 6.88358 31.3535 6.80848C31.169 6.54222 30.8618 6.3894 30.5481 6.3434L30.6277 6.3549C30.6095 6.35032 30.5867 6.34574 30.5685 6.34116C30.564 6.33661 30.7278 6.40508 30.639 6.36174C30.589 6.33892 30.4957 6.28194 30.6936 6.38911C30.6436 6.36175 30.6299 6.32535 30.7687 6.44152C30.7528 6.42558 30.73 6.4119 30.7118 6.39823C30.6481 6.35721 30.8348 6.52119 30.7596 6.4415C30.746 6.42784 30.6867 6.35046 30.7483 6.43012C30.8143 6.51888 30.7346 6.40736 30.7232 6.39143C30.7118 6.3755 30.7027 6.3573 30.6913 6.34137C30.6343 6.25263 30.7324 6.446 30.6958 6.34593C30.6798 6.30271 30.6616 6.26176 30.6456 6.21855C30.6387 6.19353 30.6296 6.17079 30.6228 6.14577C30.6205 6.1435 30.5976 6.04344 30.6113 6.10711C30.6251 6.17078 30.609 6.07301 30.6067 6.06619C30.6044 6.03663 30.5998 6.0048 30.5997 5.97298C30.5973 5.87069 30.6039 5.76841 30.6288 5.67072C30.6084 5.74569 30.6559 5.60712 30.665 5.58895C30.6944 5.52763 30.7284 5.46631 30.7692 5.41183C30.8463 5.30286 30.869 5.28471 30.9485 5.21893C31.0552 5.13501 31.1687 5.07611 31.2891 5.01949C31.389 4.96965 31.2459 5.03078 31.3095 5.00816C31.3368 4.99911 31.3686 4.99008 31.3959 4.98103C31.4549 4.96295 31.5163 4.95169 31.5754 4.9427C31.6072 4.93821 31.7981 4.9158 31.6731 4.92695C31.739 4.92025 31.8095 4.92719 31.8754 4.92957C31.9049 4.9319 31.9368 4.9365 31.9663 4.93882C32.0732 4.95037 31.9299 4.93421 31.9322 4.93195C31.9367 4.92286 32.0846 4.97085 32.105 4.97316C31.9504 4.95471 32.0163 4.94345 32.08 4.96629C32.1028 4.97543 32.121 4.98455 32.1437 4.99368C32.2688 5.04618 31.9935 4.90705 32.1096 4.97771C32.1369 4.99594 32.171 5.01646 32.2006 5.03242C32.0527 4.9617 32.0936 4.95723 32.1369 4.9914C32.1642 5.01417 32.1915 5.0324 32.2188 5.05518C32.2985 5.11669 32.1779 5.02329 32.1756 5.01192C32.1915 5.03695 32.2279 5.06429 32.2484 5.08478C32.2644 5.10072 32.278 5.11893 32.294 5.13487C32.1824 5.0233 32.2575 5.09389 32.2826 5.12803C32.2963 5.14624 32.3054 5.16444 32.3168 5.18491C32.3738 5.27366 32.2871 5.10076 32.3213 5.18947C32.3419 5.24178 32.3624 5.28955 32.3762 5.34413C32.3807 5.36232 32.3923 5.46463 32.383 5.36914C32.3853 5.3896 32.3899 5.41234 32.39 5.43507C32.3923 5.4919 32.3924 5.551 32.3857 5.60782C32.3835 5.63736 32.3767 5.6669 32.3722 5.69872C32.3654 5.72371 32.3677 5.72144 32.3745 5.69645C32.3677 5.71689 32.3609 5.74188 32.3519 5.7646C32.3066 5.88727 32.2386 5.99625 32.1592 6.09841C32.1366 6.12564 32.1139 6.15288 32.0866 6.18011C32.039 6.23231 32.1048 6.1665 32.0481 6.21869C31.9913 6.27087 31.9346 6.3185 31.8756 6.36386C31.644 6.54076 31.3829 6.67897 31.1194 6.80581C31.024 6.8511 31.0242 6.9784 31.0494 7.06254C31.0905 7.1899 31.2158 7.31968 31.3182 7.39487C31.5344 7.55662 31.8757 7.73451 32.1459 7.60541L32.1573 7.62134Z" fill="#FFFFFF"/>
</g>
<defs>
<clipPath id="clip0_1812_390">
<rect width="20.2093" height="39.8725" fill="white" transform="translate(28.1934) rotate(45)"/>
</clipPath>
</defs>
</svg>
