<svg width="120" height="80" viewBox="0 0 120 80" fill="none" xmlns="http://www.w3.org/2000/svg">
<g filter="url(#filter0_f_1822_211)">
<rect width="69.0632" height="69.0632" rx="10.121" transform="matrix(0.707107 -0.707107 0.951056 0.309017 2.99023 53.8374)" fill="#41B06E"/>
<path d="M31.1582 46.6479L43.9982 33.808C45.9363 31.8699 47.8911 30.2796 49.8627 29.0371C51.8199 27.7899 53.7809 26.865 55.7459 26.2623C57.7108 25.6597 59.658 25.3722 61.5874 25.3999C63.5276 25.4169 65.4317 25.7289 67.2999 26.3359C68.5598 26.7453 69.6488 27.2489 70.5667 27.8467C71.4702 28.4399 72.163 29.1286 72.645 29.9129C73.1378 30.6865 73.4054 31.5509 73.4479 32.5062C73.4758 33.4569 73.2568 34.4913 72.7909 35.6096L89.1437 33.6474L82.8771 39.9139L68.4838 41.5284L68.3384 41.6738L60.5643 49.4192L55.4444 54.539L31.1582 46.6479ZM62.4615 39.6359C63.4306 38.6668 64.1238 37.7722 64.5411 36.952C64.9691 36.121 65.1502 35.3738 65.0845 34.7105C65.0294 34.0364 64.7294 33.4538 64.1842 32.9629C63.6353 32.4564 62.8758 32.0456 61.9055 31.7303C60.0083 31.1139 58.0611 31.1232 56.0639 31.7581C54.0521 32.3884 52.0718 33.678 50.1229 35.6268L42.2736 43.4762L54.6122 47.4852L62.4615 39.6359Z" fill="#FFF5E0"/>
<path d="M60.5113 56.1796L55.4435 54.533L60.2835 49.6538L60.5113 56.1796Z" fill="#FFF5E0"/>
<rect width="33.4047" height="13.2123" rx="2.54238" transform="matrix(0.707107 -0.707107 0.951056 0.309017 37.3867 48.2842)" fill="#FFF5E0"/>
<circle cx="2.67756" cy="2.67756" r="2.67756" transform="matrix(0.707107 -0.707107 0.951056 0.309017 45.0605 45.5776)" fill="#41B06E"/>
<circle cx="2.67756" cy="2.67756" r="2.67756" transform="matrix(0.707107 -0.707107 0.951056 0.309017 50.9199 39.7178)" fill="#41B06E"/>
<circle cx="2.67756" cy="2.67756" r="2.67756" transform="matrix(0.707107 -0.707107 0.951056 0.309017 56.7832 33.8564)" fill="#41B06E"/>
</g>
<defs>
<filter id="filter0_f_1822_211" x="0.777344" y="0.474609" width="118.943" height="79.2324" filterUnits="userSpaceOnUse" color-interpolation-filters="sRGB">
<feFlood flood-opacity="0" result="BackgroundImageFix"/>
<feBlend mode="normal" in="SourceGraphic" in2="BackgroundImageFix" result="shape"/>
<feGaussianBlur stdDeviation="3.5" result="effect1_foregroundBlur_1822_211"/>
</filter>
</defs>
</svg>
