<svg width="170" height="171" viewBox="0 0 170 171" fill="none" xmlns="http://www.w3.org/2000/svg">
<path d="M63.7502 120.661V127.759C63.7502 133.406 65.989 138.822 69.9741 142.816C73.9593 146.809 79.3643 149.052 85.0002 149.052C90.636 149.052 96.041 146.809 100.026 142.816C104.011 138.822 106.25 133.406 106.25 127.759V120.661M70.8335 35.4887C70.8335 31.7238 72.3261 28.1131 74.9828 25.451C77.6396 22.7888 81.2429 21.2932 85.0002 21.2932C88.7574 21.2932 92.3607 22.7888 95.0175 25.451C97.6743 28.1131 99.1668 31.7238 99.1668 35.4887C107.301 39.3429 114.236 45.3426 119.227 52.8448C124.218 60.3469 127.078 69.0686 127.5 78.0751V99.3682C128.033 103.781 129.593 108.007 132.053 111.705C134.514 115.403 137.807 118.471 141.667 120.661H28.3335C32.1935 118.471 35.4863 115.403 37.9469 111.705C40.4075 108.007 41.9671 103.781 42.5002 99.3682V78.0751C42.922 69.0686 45.7819 60.3469 50.7731 52.8448C55.7644 45.3426 62.6989 39.3429 70.8335 35.4887Z" stroke="#141E46" stroke-width="7" stroke-linecap="round" stroke-linejoin="round"/>
</svg>
