<svg width="121" height="136" viewBox="0 0 121 136" fill="none" xmlns="http://www.w3.org/2000/svg">
<path d="M39.4167 103.368V110.466C39.4167 116.113 41.6555 121.529 45.6406 125.523C49.6258 129.516 55.0308 131.759 60.6667 131.759C66.3025 131.759 71.7075 129.516 75.6927 125.523C79.6778 121.529 81.9167 116.113 81.9167 110.466V103.368M46.5 18.1955C46.5 14.4306 47.9926 10.8199 50.6493 8.15775C53.3061 5.49559 56.9094 4 60.6667 4C64.4239 4 68.0272 5.49559 70.684 8.15775C73.3408 10.8199 74.8333 14.4306 74.8333 18.1955C82.9679 22.0497 89.9024 28.0494 94.8937 35.5515C99.885 43.0537 102.745 51.7753 103.167 60.7818V82.075C103.7 86.4877 105.259 90.7134 107.72 94.4118C110.181 98.1102 113.473 101.178 117.333 103.368H4C7.85998 101.178 11.1528 98.1102 13.6134 94.4118C16.074 90.7134 17.6336 86.4877 18.1667 82.075V60.7818C18.5886 51.7753 21.4484 43.0537 26.4396 35.5515C31.4309 28.0494 38.3654 22.0497 46.5 18.1955Z" stroke="#354052" stroke-width="7" stroke-linecap="round" stroke-linejoin="round"/>
</svg>
