<svg width="101" height="100" viewBox="0 0 101 100" fill="none" xmlns="http://www.w3.org/2000/svg">
<path d="M37.9673 79.1667C20.0506 85 20.0506 68.75 12.9673 66.6667M62.9673 87.5V72.9167C62.9673 68.75 63.384 67.0834 60.884 64.5834C72.5506 63.3334 83.8006 58.75 83.8006 39.5834C83.7956 34.6041 81.8529 29.8222 78.384 26.25C80.0109 21.9249 79.8611 17.1318 77.9673 12.9167C77.9673 12.9167 73.384 11.6667 63.384 18.3334C54.9141 16.1275 46.0205 16.1275 37.5506 18.3334C27.5506 11.6667 22.9673 12.9167 22.9673 12.9167C21.0735 17.1318 20.9237 21.9249 22.5506 26.25C19.0817 29.8222 17.139 34.6041 17.134 39.5834C17.134 58.75 28.384 63.3334 40.0506 64.5834C37.5506 67.0834 37.5506 69.5834 37.9673 72.9167V87.5" stroke="white" stroke-width="5" stroke-linecap="round" stroke-linejoin="round"/>
</svg>
