<svg width="131" height="131" viewBox="0 0 131 131" fill="none" xmlns="http://www.w3.org/2000/svg">
<path d="M130.085 65.4998C130.085 101.168 101.17 130.083 65.5013 130.083C29.8329 130.083 0.917969 101.168 0.917969 65.4998C0.917969 29.8314 29.8329 0.916504 65.5013 0.916504C101.17 0.916504 130.085 29.8314 130.085 65.4998Z" fill="#41B06E"/>
<path fill-rule="evenodd" clip-rule="evenodd" d="M95.9014 44.7873C98.4235 47.3094 98.4235 51.3986 95.9014 53.9207L63.6097 86.2124C61.0876 88.7345 56.9984 88.7345 54.4762 86.2124L38.3304 70.0666C35.8083 67.5444 35.8083 63.4552 38.3304 60.9331C40.8525 58.411 44.9417 58.411 47.4639 60.9331L59.043 72.5122L86.7679 44.7873C89.29 42.2651 93.3792 42.2651 95.9014 44.7873Z" fill="white"/>
</svg>
