<svg width="164" height="164" viewBox="0 0 164 164" fill="none" xmlns="http://www.w3.org/2000/svg">
<g clip-path="url(#clip0_1225_74)">
<path d="M71.8452 91.842L92.1796 71.5076M71.8452 71.5076L92.1796 91.842M51.5109 112.176C55.5164 116.182 60.2716 119.359 65.5051 121.527C70.7386 123.695 76.3478 124.811 82.0124 124.811C87.6771 124.811 93.2863 123.695 98.5198 121.527C103.753 119.359 108.508 116.182 112.514 112.176C116.52 108.171 119.697 103.416 121.865 98.1821C124.032 92.9487 125.148 87.3395 125.148 81.6748C125.148 76.0101 124.032 70.4009 121.865 65.1675C119.697 59.934 116.52 55.1787 112.514 51.1732C108.508 47.1677 103.753 43.9903 98.5198 41.8226C93.2863 39.6548 87.6771 38.5391 82.0124 38.5391C76.3478 38.5391 70.7386 39.6548 65.5051 41.8226C60.2716 43.9903 55.5164 47.1677 51.5109 51.1732C47.5053 55.1788 44.328 59.934 42.1602 65.1675C39.9924 70.4009 38.8767 76.0101 38.8767 81.6748C38.8767 87.3395 39.9924 92.9487 42.1602 98.1821C44.328 103.416 47.5053 108.171 51.5109 112.176Z" stroke="#354052" stroke-width="6" stroke-linecap="round" stroke-linejoin="round"/>
</g>
<defs>
<clipPath id="clip0_1225_74">
<rect width="115.029" height="115.029" fill="white" transform="translate(0.674805 81.6748) rotate(-45)"/>
</clipPath>
</defs>
</svg>
