<svg width="80" height="75" viewBox="0 0 80 75" fill="none" xmlns="http://www.w3.org/2000/svg">
<path d="M23.1269 22.5558H53.0443Z" />
<path d="M23.1269 37.5146H45.565Z" />
<path d="M39.4095 66.1082L38.0856 67.432L26.8666 56.213H15.6475C12.672 56.213 9.81843 55.031 7.71445 52.927C5.61047 50.823 4.42847 47.9694 4.42847 44.9939V15.0765C4.42847 12.101 5.61047 9.24739 7.71445 7.14341C9.81843 5.03943 12.672 3.85742 15.6475 3.85742H60.5237C63.4992 3.85742 66.3528 5.03943 68.4568 7.14341C70.5608 9.24739 71.7428 12.101 71.7428 15.0765V35.6447" />
<path d="M64.2634 71.1717V48.7336Z" />
<path d="M75.4824 59.9527L64.2634 48.7336L53.0443 59.9527" />
<path d="M23.1269 22.5558H53.0443M23.1269 37.5146H45.565M39.4095 66.1082L38.0856 67.432L26.8666 56.213H15.6475C12.672 56.213 9.81843 55.031 7.71445 52.927C5.61047 50.823 4.42847 47.9694 4.42847 44.9939V15.0765C4.42847 12.101 5.61047 9.24739 7.71445 7.14341C9.81843 5.03943 12.672 3.85742 15.6475 3.85742H60.5237C63.4992 3.85742 66.3528 5.03943 68.4568 7.14341C70.5608 9.24739 71.7428 12.101 71.7428 15.0765V35.6447M64.2634 71.1717V48.7336M64.2634 48.7336L75.4824 59.9527M64.2634 48.7336L53.0443 59.9527" stroke="white" stroke-width="7.47937" stroke-linecap="round" stroke-linejoin="round"/>
</svg>
