<svg width="55" height="66" viewBox="0 0 55 66" fill="none" xmlns="http://www.w3.org/2000/svg">
<path d="M29.4037 62.9903C28.2639 63.8031 26.7361 63.8031 25.5963 62.9903C9.17869 51.2826 -8.24906 27.2101 9.36678 9.81625C14.176 5.06764 20.6987 2.3999 27.5 2.3999C34.3013 2.3999 40.824 5.06764 45.6332 9.81625C63.2491 27.2101 45.8213 51.2826 29.4037 62.9903Z" stroke="white" stroke-width="3.5" stroke-linecap="round" stroke-linejoin="round"/>
<path d="M27.4998 32.9997C31.2554 32.9997 34.2998 29.9552 34.2998 26.1997C34.2998 22.4441 31.2554 19.3997 27.4998 19.3997C23.7443 19.3997 20.6998 22.4441 20.6998 26.1997C20.6998 29.9552 23.7443 32.9997 27.4998 32.9997Z" stroke="white" stroke-width="3.5" stroke-linecap="round" stroke-linejoin="round"/>
</svg>
