<svg width="55" height="72" viewBox="0 0 55 72" fill="none" xmlns="http://www.w3.org/2000/svg">
<path d="M18.9167 2H10.5C5.80558 2 2 5.80558 2 10.5V61.5C2 66.1944 5.80558 70 10.5 70H44.5C49.1944 70 53 66.1944 53 61.5V36M18.9167 2C23.6112 2 27.5 5.80558 27.5 10.5V19C27.5 23.6944 31.3056 27.5 36 27.5H44.5C49.1944 27.5 53 31.3056 53 36M18.9167 2C32.8564 2 53 22.2478 53 36" stroke="white" stroke-width="3.5" stroke-linecap="round" stroke-linejoin="round"/>
<path d="M17.1111 53H39.7777" stroke="white" stroke-width="3.5" stroke-linecap="round" stroke-linejoin="round"/>
<path d="M17.1111 41.6666H32.2222" stroke="white" stroke-width="3.5" stroke-linecap="round" stroke-linejoin="round"/>
</svg>
