<svg width="40" height="45" viewBox="0 0 40 45" fill="none" xmlns="http://www.w3.org/2000/svg">
<path d="M1.66675 10.5877H38.5803M15.5093 19.8424V33.7244M24.7377 19.8424V33.7244M3.97385 10.5877L6.28095 38.3518C6.28095 39.579 6.76708 40.756 7.63241 41.6238C8.49774 42.4916 9.67138 42.9791 10.8951 42.9791H29.3519C30.5757 42.9791 31.7493 42.4916 32.6147 41.6238C33.48 40.756 33.9661 39.579 33.9661 38.3518L36.2732 10.5877M13.2022 10.5877V3.64668C13.2022 3.03306 13.4453 2.44456 13.878 2.01067C14.3106 1.57677 14.8975 1.33301 15.5093 1.33301H24.7377C25.3496 1.33301 25.9364 1.57677 26.3691 2.01067C26.8018 2.44456 27.0448 3.03306 27.0448 3.64668V10.5877" stroke="#00224D" stroke-width="2.28296" stroke-linecap="round" stroke-linejoin="round"/>
</svg>
