<svg width="82" height="72" viewBox="0 0 82 72" fill="none" xmlns="http://www.w3.org/2000/svg">
<path d="M25.9171 56.8322C25.9171 60.9989 20.2671 69.3322 18.2838 69.3322C12.3296 69.3322 7.04213 62.3864 4.3963 56.8322C1.75046 49.8864 2.41296 32.528 10.3463 8.91553C16.1296 4.68636 21.938 3.33219 28.0005 2.66553L32.063 10.678C37.6508 9.71343 43.3626 9.71343 48.9505 10.678L53.0005 2.66553C59.2505 3.33219 65.6796 4.68636 71.7505 8.91553C80.0838 32.528 80.7796 49.8864 78.0005 56.8322C75.2213 62.3864 69.6671 69.3322 63.4171 69.3322C61.3338 69.3322 55.0838 60.9989 55.0838 56.8322M19.6671 54.7489C34.2504 58.9155 46.7504 58.9155 61.3338 54.7489M23.8338 35.9989C23.8338 37.1039 24.2728 38.1637 25.0542 38.9451C25.8356 39.7265 26.8954 40.1655 28.0004 40.1655C29.1055 40.1655 30.1653 39.7265 30.9467 38.9451C31.7281 38.1637 32.1671 37.1039 32.1671 35.9989C32.1671 34.8938 31.7281 33.834 30.9467 33.0526C30.1653 32.2712 29.1055 31.8322 28.0004 31.8322C26.8954 31.8322 25.8356 32.2712 25.0542 33.0526C24.2728 33.834 23.8338 34.8938 23.8338 35.9989ZM48.8338 35.9989C48.8338 37.1039 49.2728 38.1637 50.0542 38.9451C50.8356 39.7265 51.8954 40.1655 53.0004 40.1655C54.1055 40.1655 55.1653 39.7265 55.9467 38.9451C56.7281 38.1637 57.1671 37.1039 57.1671 35.9989C57.1671 34.8938 56.7281 33.834 55.9467 33.0526C55.1653 32.2712 54.1055 31.8322 53.0004 31.8322C51.8954 31.8322 50.8356 32.2712 50.0542 33.0526C49.2728 33.834 48.8338 34.8938 48.8338 35.9989Z" stroke="#141e46" stroke-width="5" stroke-linecap="round" stroke-linejoin="round"/>
<circle cx="27.9995" cy="35.5" r="3.5" fill="#141e46"/>
<circle cx="52.9995" cy="35.5" r="3.5" fill="#141e46"/>
</svg>
