<svg width="124" height="116" viewBox="0 0 124 116" fill="none" xmlns="http://www.w3.org/2000/svg">
<path d="M77.1632 88.5658C71.7899 87.0541 68.6593 81.4732 70.171 76.0999C70.9927 73.179 73.0169 70.9209 75.5565 69.7108C74.4799 68.4989 73.3722 67.3306 72.2442 66.2026L41.7724 70.0116C41.9344 72.4465 41.0903 74.9362 39.2389 76.8046L39.2346 76.8089L39.2312 76.8125C39.2244 76.8195 39.2141 76.83 39.2006 76.8441C39.1825 76.8628 39.1587 76.8878 39.1293 76.9187C39.0263 77.0272 38.8567 77.2086 38.6346 77.4558C38.1886 77.9524 37.5419 78.7022 36.8036 79.6492C35.2931 81.5863 33.5626 84.1401 32.3228 86.8866C31.0576 89.6894 30.5712 92.0992 30.7695 93.9964C30.9328 95.5596 31.6043 97.4333 34.2161 99.5226C38.0178 102.564 38.6344 108.111 35.5931 111.913C35.4327 112.113 35.2653 112.305 35.0915 112.488C40.9231 114.652 47.2318 115.835 53.8167 115.835C67.6659 115.835 80.2933 110.604 89.8306 102.009C89.5596 97.9336 88.8288 94.1378 87.7361 90.5943C84.4179 90.26 80.8876 89.6135 77.1632 88.5658Z" fill="#4956DC"/>
<path d="M70.171 76.0999C68.6593 81.4732 71.7899 87.0541 77.1632 88.5658C80.8876 89.6135 84.4179 90.26 87.7361 90.5943C85.2079 82.3959 80.743 75.5487 75.5565 69.7108C73.0169 70.9209 70.9927 73.179 70.171 76.0999Z" fill="#4956DC"/>
<path d="M53.8167 8.20166C24.0946 8.20166 0 32.2962 0 62.0184C0 75.6892 5.09742 88.1695 13.4953 97.6623C13.3856 97.0549 13.2988 96.4435 13.2346 95.8288C12.5942 89.7015 14.2671 84.0338 16.2537 79.6329C18.2657 75.1758 20.8794 71.3998 22.9002 68.8081C23.9275 67.4907 24.8432 66.4264 25.5182 65.6749C25.8567 65.2981 26.1372 64.997 26.3443 64.7789C26.4478 64.6698 26.5332 64.5813 26.5985 64.5142L26.6813 64.4297L26.7109 64.3997L26.7227 64.3878L26.7279 64.3826C26.7303 64.3802 26.7325 64.3779 32.9767 70.6003L26.7325 64.3779C30.1691 60.9294 35.7505 60.9196 39.1991 64.3561C40.7772 65.9287 41.6352 67.9506 41.7724 70.0116L72.2442 66.2026C73.3722 67.3306 74.4799 68.4989 75.5565 69.7108C77.6889 68.6948 80.1847 68.4177 82.6372 69.1076C91.3383 71.5551 97.8754 70.6825 102.034 69.438C104.154 68.8035 105.721 68.0508 106.681 67.5162C106.982 67.3489 107.222 67.204 107.397 67.0928C107.554 65.4223 107.633 63.7297 107.633 62.0184C107.633 32.2962 83.5389 8.20166 53.8167 8.20166Z" fill="#141E46"/>
<path d="M87.7361 90.5943C88.8288 94.1378 89.5596 97.9336 89.8306 102.009C93.5528 98.6553 96.8043 94.7889 99.4741 90.5213C95.9392 90.9374 92.0138 91.0253 87.7361 90.5943Z" fill="#141E46"/>
<path d="M38.6346 77.4558C38.8567 77.2086 39.0263 77.0272 39.1293 76.9187C39.1587 76.8878 39.1825 76.8628 39.2006 76.8441L39.2312 76.8125L39.2346 76.8089L39.2389 76.8046C41.0903 74.9362 41.9344 72.4465 41.7724 70.0116C41.6352 67.9506 40.7772 65.9287 39.1991 64.3561C35.7505 60.9196 30.1691 60.9294 26.7325 64.3779L32.9767 70.6003C26.7325 64.3779 26.7303 64.3802 26.7279 64.3826L26.7227 64.3878L26.7109 64.3997L26.6813 64.4297L26.5985 64.5142C26.5332 64.5813 26.4478 64.6698 26.3443 64.7789C26.1372 64.997 25.8567 65.2981 25.5182 65.6749C24.8432 66.4264 23.9275 67.4907 22.9002 68.8081C20.8794 71.3998 18.2657 75.1758 16.2537 79.6329C14.2671 84.0338 12.5942 89.7015 13.2346 95.8288C13.2988 96.4435 13.3856 97.0549 13.4953 97.6623C17.5899 102.291 22.4691 106.209 27.9247 109.209C30.217 110.469 32.6111 111.567 35.0915 112.488C35.2653 112.305 35.4327 112.113 35.5931 111.913C38.6344 108.111 38.0178 102.564 34.2161 99.5226C31.6043 97.4333 30.9328 95.5596 30.7695 93.9964C30.5712 92.0992 31.0576 89.6894 32.3228 86.8866C33.5626 84.1401 35.2931 81.5863 36.8036 79.6492C37.5419 78.7022 38.1886 77.9524 38.6346 77.4558Z" fill="#5865F2"/>
<path d="M13.4953 97.6623C14.5388 103.439 17.6578 108.854 23.2029 113.29C26.804 116.171 31.9714 115.769 35.0915 112.488C32.6111 111.567 30.217 110.469 27.9247 109.209C22.4691 106.209 17.5899 102.291 13.4953 97.6623Z" fill="#5865F2"/>
<path d="M102.034 69.438C97.8754 70.6825 91.3383 71.5551 82.6372 69.1076C80.1847 68.4177 77.6889 68.6948 75.5565 69.7108C80.743 75.5487 85.2079 82.3959 87.7361 90.5943C92.0138 91.0253 95.9392 90.9374 99.4741 90.5213C103.799 83.6074 106.598 75.6405 107.397 67.0928C107.222 67.204 106.982 67.3489 106.681 67.5162C105.721 68.0508 104.154 68.8035 102.034 69.438Z" fill="#5865F2"/>
<path d="M120.18 82.7967C124.55 79.3245 125.278 72.9671 121.807 68.5965C118.369 64.2688 112.102 63.512 107.736 66.8677C107.718 66.8807 107.687 66.9027 107.642 66.9331C107.583 66.973 107.501 67.027 107.397 67.0928C106.598 75.6405 103.799 83.6074 99.4741 90.5213C102.567 90.1572 105.361 89.5418 107.83 88.8028C111.53 87.6953 114.443 86.329 116.508 85.1806C117.542 84.6055 118.368 84.0818 118.98 83.6669C119.287 83.4596 119.541 83.2785 119.74 83.1313C120.211 82.7845 120.204 82.7889 120.169 82.812C120.148 82.8263 120.115 82.8477 120.18 82.7967Z" fill="#5865F2"/>
<path d="M63.2038 0.788417C56.0357 -1.79857 49.4604 4.39942 45.4182 12.1065C42.0767 18.52 39.4897 24.233 33.0762 27.844L53.287 24.6102C70.0916 14.0467 69.876 3.15982 63.2038 0.788417Z" fill="#47C46E"/>
<path d="M45.5132 24.0713C45.4082 24.0735 45.3043 24.0501 45.2104 24.0031C45.1165 23.9562 45.0354 23.8871 44.9742 23.8018C44.8869 23.6713 44.8543 23.5118 44.8835 23.3575C44.9128 23.2032 45.0015 23.0666 45.1305 22.9772C45.1481 22.9615 45.1682 22.9488 45.1898 22.9395C55.9689 16.3642 59.9033 4.66889 59.9572 4.5611C59.9749 4.48484 60.0076 4.41285 60.0533 4.34928C60.099 4.28571 60.1568 4.23184 60.2235 4.19075C60.2901 4.14966 60.3643 4.12217 60.4416 4.10989C60.5189 4.0976 60.5979 4.10075 60.674 4.11915H60.7117C60.7937 4.14323 60.8701 4.18331 60.9364 4.23707C61.0028 4.29083 61.0579 4.35721 61.0985 4.43237C61.1391 4.50754 61.1644 4.59 61.1729 4.675C61.1815 4.76 61.1731 4.84585 61.1483 4.92759C60.9866 5.41265 57.0522 17.1619 45.8419 24.0066L45.5132 24.0713Z" fill="#2C9F50"/>
<path d="M62.8694 22.6699C58.7733 23.155 47.8864 21.1069 44.006 19.5979C37.0534 16.9031 31.2327 16.0407 27.2983 17.1726C25.6001 17.6628 24.165 18.8053 23.3065 20.3504C22.4481 21.8956 22.2363 23.7177 22.7172 25.4186C23.849 28.8679 27.8373 30.4309 33.9814 30.7003C41.3651 30.9698 62.8694 22.6699 62.8694 22.6699Z" fill="#57F287"/>
<path d="M42.3877 25.797H42.0643C31.9859 19.2217 26.3269 17.9282 18.8354 20.5691C18.6915 20.6311 18.5291 20.6343 18.383 20.5778C18.2369 20.5214 18.1187 20.4099 18.0539 20.2673V20.1919C18.0023 20.0344 18.0126 19.8632 18.0827 19.713C18.1527 19.5629 18.2773 19.445 18.4312 19.3834C27.27 16.2575 33.5758 18.7367 42.7919 24.7191C42.8585 24.7594 42.9164 24.8125 42.9623 24.8754C43.0082 24.9383 43.0411 25.0097 43.0592 25.0854C43.0772 25.1611 43.0801 25.2397 43.0675 25.3165C43.0549 25.3933 43.0272 25.4669 42.986 25.5329C42.9771 25.5503 42.9662 25.5665 42.9536 25.5814C42.8917 25.6699 42.8047 25.7378 42.7038 25.7762C42.6029 25.8146 42.4928 25.8219 42.3877 25.797Z" fill="#47C46E"/>
<path d="M83.2417 30.5574L26.9584 40.0769C23.0983 40.73 20.4983 44.3885 21.1512 48.2487L23.4409 61.7861C24.0938 65.6464 27.7523 68.2463 31.6125 67.5933L87.8958 58.0738C91.7561 57.4207 94.356 53.7622 93.703 49.902L91.4135 36.3646C90.7604 32.5045 87.1019 29.9045 83.2417 30.5574Z" fill="#5866FF"/>
<path d="M29.1738 77.9678L77.9772 69.7132C85.833 68.3843 91.1241 60.939 89.7956 53.0832L85.8466 29.736C84.5178 21.8802 77.0724 16.589 69.2167 17.9177L20.4132 26.1722C12.5575 27.5009 7.26623 34.9465 8.59494 42.8023L12.5438 66.1494C13.8725 74.0051 21.318 79.2963 29.1738 77.9678Z" fill="#5866FF"/>
<path d="M77.1951 42.2574C79.7367 42.2574 81.7969 40.1976 81.7969 37.6561C81.7969 35.1149 79.7367 33.0547 77.1951 33.0547C74.6539 33.0547 72.5938 35.1149 72.5938 37.6561C72.5938 40.1976 74.6539 42.2574 77.1951 42.2574Z" fill="black"/>
<path d="M67.4615 59.366L51.7661 62.0209C48.7089 62.5379 45.5716 61.8192 43.0444 60.0233C40.5171 58.2271 38.8069 55.5009 38.2899 52.4437L36.3611 41.0399C36.1521 39.8041 36.4426 38.5361 37.1687 37.5142C37.8948 36.4927 38.9967 35.8012 40.2326 35.5921L68.1904 30.8636C69.4263 30.6545 70.6942 30.945 71.7161 31.6711C72.7376 32.3971 73.4291 33.4991 73.6382 34.7349L75.8158 47.6102C76.0564 48.9327 76.0301 50.2895 75.7382 51.6015C75.4463 52.9132 74.8946 54.1536 74.1161 55.2489C73.3379 56.3445 72.3478 57.273 71.205 57.9799C70.0622 58.6871 68.7893 59.1584 67.4615 59.366Z" fill="#B1B8FF"/>
<path d="M66.9957 53.1977L69.2342 52.8247C69.5124 52.7936 69.782 52.7079 70.027 52.5719C70.2721 52.4363 70.4875 52.2531 70.6612 52.0332C70.8346 51.8133 70.9629 51.5613 71.0381 51.2914C71.1132 51.0215 71.1342 50.7397 71.0996 50.4618C70.9797 49.887 70.6385 49.3822 70.1501 49.0567C69.6617 48.7309 69.0646 48.6103 68.4881 48.7204L66.3738 49.0938C65.7917 49.1854 65.2648 49.4913 64.8967 49.9517C64.5286 50.4118 64.3458 50.9928 64.3839 51.5808C64.531 52.1325 64.8834 52.6072 65.3687 52.9079C65.8543 53.2085 66.4363 53.312 66.9957 53.1977Z" fill="#5866FF"/>
<path d="M52.6954 55.5565L56.7993 54.9346C57.372 54.8423 57.8862 54.5315 58.2341 54.0676C58.5823 53.6037 58.7364 53.0227 58.6648 52.4472C58.5176 51.8956 58.1655 51.4208 57.68 51.1205C57.1944 50.8199 56.6126 50.716 56.0529 50.8307L51.949 51.4523C51.3764 51.5446 50.8621 51.8554 50.5143 52.3193C50.1661 52.7832 50.0119 53.3642 50.0836 53.9396C50.1416 54.2214 50.2566 54.4882 50.4213 54.7238C50.586 54.9594 50.7971 55.159 51.0415 55.3104C51.2859 55.4614 51.5585 55.5614 51.8431 55.6037C52.1273 55.646 52.4175 55.6299 52.6954 55.5565Z" fill="#5866FF"/>
<path d="M23.1356 68.7648L10.1377 70.9634C8.41411 71.2549 6.64527 70.8498 5.22035 69.837C3.79543 68.8245 2.8311 67.287 2.53961 65.5635L0.0923281 51.0941C-0.199196 49.3706 0.205929 47.6016 1.21858 46.1767C2.23123 44.7517 3.76844 43.7875 5.49209 43.496L18.49 41.2974L23.1356 68.7648Z" fill="#5866FF"/>
<path d="M14.8168 62.8855L11.1382 63.5075C10.7443 63.5914 10.3376 63.5945 9.94251 63.5166C9.54743 63.4389 9.17214 63.2823 8.83925 63.0558C8.50633 62.8293 8.2227 62.5377 8.00543 62.1986C7.78812 61.8598 7.64168 61.4802 7.57487 61.0834L5.66681 49.8019C5.5348 49.0216 5.71824 48.2203 6.1768 47.5753C6.63537 46.93 7.33145 46.4933 8.11195 46.3612L11.7906 45.7393L14.6942 62.9062L14.8168 62.8855Z" fill="#B1B8FF"/>
<path d="M28.0689 50.7076C30.7476 50.7076 32.9191 48.5362 32.9191 45.8573C32.9191 43.1787 30.7476 41.0073 28.0689 41.0073C25.3902 41.0073 23.2188 43.1787 23.2188 45.8573C23.2188 48.5362 25.3902 50.7076 28.0689 50.7076Z" fill="black"/>
</svg>
