<svg width="78" height="68" viewBox="0 0 78 68" fill="none" xmlns="http://www.w3.org/2000/svg">
<path d="M25.0401 10.9771V31.9648C25.0401 33.8202 24.3022 35.5996 22.9887 36.9116C21.6753 38.2236 19.8939 38.9607 18.0365 38.9607H11.0329C9.17542 38.9607 7.39403 38.2236 6.0806 36.9116C4.76717 35.5996 4.0293 33.8202 4.0293 31.9648V10.9771C4.0293 9.12166 4.76717 7.34222 6.0806 6.03024C7.39403 4.71825 9.17542 3.98119 11.0329 3.98119H18.0365C19.8939 3.98119 21.6753 4.71825 22.9887 6.03024C24.3022 7.34222 25.0401 9.12166 25.0401 10.9771ZM25.0401 10.9771C25.0401 9.12166 25.7779 7.34219 27.0914 6.03021C28.4048 4.71822 30.1862 3.98117 32.0436 3.98117H58.3491C59.8558 3.98106 61.3224 4.46634 62.5311 5.36492C63.7398 6.26351 64.6261 7.5275 65.0585 8.96924L73.4628 29.9569C74.0932 32.0767 74.3943 34.3643 73.0706 36.1413C71.754 37.9183 69.2747 38.9606 67.0616 38.9606H53.0544V56.2195C53.0536 57.8705 52.5212 59.4775 51.5359 60.8031C50.5506 62.1287 49.1646 63.1027 47.5826 63.581C46.0007 64.0594 44.3066 64.0169 42.7507 63.4597C41.1948 62.9026 39.8596 61.8604 38.9422 60.487L25.0401 38.9606V10.9771Z" stroke="#41B06E" stroke-width="6.77742" stroke-linecap="round" stroke-linejoin="round"/>
</svg>
