<svg width="77" height="59" viewBox="0 0 77 59" fill="none" xmlns="http://www.w3.org/2000/svg">
<path d="M31.3169 28.1493V9.85237M31.3169 9.85237C31.3169 8.23482 31.9602 6.68349 33.1052 5.53971C34.2503 4.39593 35.8033 3.75336 37.4226 3.75336H60.3556C61.6691 3.75327 62.9476 4.17633 64.0014 4.95972C65.0551 5.7431 65.8278 6.84504 66.2048 8.10194L73.5316 26.3989C74.0811 28.2469 74.3437 30.2413 73.1897 31.7904C72.0418 33.3395 69.8804 34.2483 67.951 34.2483H55.7397V49.2945C55.7389 50.7338 55.2748 52.1348 54.4158 53.2905C53.5568 54.4461 52.3485 55.2952 50.9694 55.7122C49.5903 56.1293 48.1134 56.0922 46.757 55.6065C45.4006 55.1208 44.2365 54.2122 43.4367 53.0149L31.3169 34.2483V9.85237Z" stroke="#41B06E" stroke-width="5.90852" stroke-linecap="round" stroke-linejoin="round"/>
<path d="M51 55C54.6 55 54.8333 49.6667 54.5 47L53.5 40.5L55.5 35H63L73.5 32L72 22.5L66.5 9L58.5 4L38.5 3L31.5 6V17V33L36.5 40C38.3333 43.1667 42.1 49.8 42.5 51C43 52.5 46.5 55 51 55Z" fill="#41B06E"/>
<path d="M19.5288 32.2137C18.3837 33.3574 16.8307 34 15.2114 34H9.10569C7.48636 34 5.93335 33.3574 4.78831 32.2137C3.64328 31.0699 3 29.5186 3 27.901V9.60406C3 7.98651 3.64328 6.43521 4.78831 5.29143C5.93335 4.14765 7.48636 3.50507 9.10569 3.50507H15.2114C16.8307 3.50507 18.3837 4.14765 19.5288 5.29143" stroke="#41B06E" stroke-width="5.90852" stroke-linecap="round" stroke-linejoin="round"/>
<path d="M5.00006 5.29122C6.14509 4.14744 7.6981 3.50488 9.31743 3.50488L15.4231 3.50488C17.0424 3.50488 18.5955 4.14744 19.7405 5.29123C20.8855 6.43501 21.5288 7.98631 21.5288 9.60386L21.5288 27.9008C21.5288 29.5184 20.8855 31.0697 19.7405 32.2135C18.5955 33.3572 17.0424 33.9998 15.4231 33.9998L9.31743 33.9998C7.6981 33.9998 6.14509 33.3572 5.00005 32.2135" stroke="#41B06E" stroke-width="5.90852" stroke-linecap="round" stroke-linejoin="round"/>
<rect width="15" height="27" transform="matrix(1 0 0 -1 5 32)" fill="#41B06E"/>
</svg>
