<svg width="38" height="38" viewBox="0 0 38 38" fill="none" xmlns="http://www.w3.org/2000/svg">
<path d="M7.35539 9.3546H5.30463C4.21685 9.3546 3.17361 9.78673 2.40443 10.5559C1.63525 11.3251 1.20313 12.3683 1.20312 13.4561V31.9129C1.20313 33.0007 1.63525 34.0439 2.40443 34.8131C3.17361 35.5823 4.21685 36.0144 5.30463 36.0144H23.7614C24.8492 36.0144 25.8924 35.5823 26.6616 34.8131C27.4308 34.0439 27.8629 33.0007 27.8629 31.9129V29.8621M25.8122 5.25309L31.9644 11.4054M34.8047 8.50354C35.6124 7.69586 36.0662 6.60041 36.0662 5.45817C36.0662 4.31594 35.6124 3.22048 34.8047 2.4128C33.9971 1.60512 32.9016 1.15137 31.7594 1.15137C30.6171 1.15137 29.5217 1.60512 28.714 2.4128L11.4569 19.6084V25.7606H17.6092L34.8047 8.50354Z" stroke="#00224D" stroke-width="2.28296" stroke-linecap="round" stroke-linejoin="round"/>
</svg>
