<svg width="59" height="59" viewBox="0 0 59 59" fill="none" xmlns="http://www.w3.org/2000/svg">
<path d="M17.1388 17.3732H14.7067C13.4165 17.3732 12.1793 17.8857 11.267 18.7979C10.3548 19.7102 9.84229 20.9474 9.84229 22.2376V44.1272C9.84229 45.4174 10.3548 46.6546 11.267 47.5669C12.1793 48.4791 13.4165 48.9916 14.7067 48.9916H36.5964C37.8865 48.9916 39.1237 48.4791 40.036 47.5669C40.9482 46.6546 41.4607 45.4174 41.4607 44.1272V41.6951M39.0285 12.5088L46.3251 19.8054M49.6937 16.3638C50.6516 15.4059 51.1897 14.1067 51.1897 12.752C51.1897 11.3973 50.6516 10.0981 49.6937 9.14022C48.7358 8.18231 47.4366 7.64417 46.0819 7.64417C44.7272 7.64417 43.428 8.18231 42.4701 9.14022L22.0032 29.5341V36.8307H29.2998L49.6937 16.3638Z" stroke="#141e46" stroke-width="4.69655" stroke-linecap="round" stroke-linejoin="round"/>
</svg>
