<svg width="180" height="38" viewBox="0 0 180 38" fill="none" xmlns="http://www.w3.org/2000/svg">
<rect width="180" height="37.2611" rx="7.45223" fill="#FFFFFF"/>
<path d="M10.2307 15.7927H7.90813L9.14198 8.3606H11.5081C12.229 8.3606 12.823 8.51181 13.2899 8.81422C13.7592 9.11663 14.0858 9.54848 14.2697 10.1098C14.456 10.671 14.4838 11.3412 14.3532 12.1202C14.2274 12.8847 13.983 13.5416 13.6201 14.0907C13.2597 14.6375 12.7927 15.0585 12.2193 15.3536C11.6484 15.6464 10.9855 15.7927 10.2307 15.7927ZM8.94239 14.9944H10.2597C10.8742 14.9944 11.404 14.8734 11.8492 14.6315C12.2968 14.3895 12.6572 14.0448 12.9306 13.5972C13.2064 13.1496 13.3951 12.6186 13.4967 12.0041C13.5984 11.4138 13.5887 10.9069 13.4677 10.4835C13.3492 10.0577 13.1157 9.73114 12.7673 9.50372C12.4214 9.27389 11.9581 9.15897 11.3774 9.15897H9.90769L8.94239 14.9944ZM17.4596 15.9089C16.9249 15.9089 16.4834 15.7903 16.135 15.5532C15.7866 15.3137 15.5435 14.9798 15.4056 14.5516C15.2677 14.121 15.2459 13.6202 15.3403 13.0492C15.4346 12.4783 15.6221 11.9751 15.9027 11.5396C16.1834 11.1017 16.533 10.7606 16.9515 10.5162C17.3701 10.2694 17.8297 10.1461 18.3305 10.1461C18.6208 10.1461 18.9003 10.1944 19.1688 10.2912C19.4374 10.388 19.6696 10.5452 19.8656 10.763C20.0615 10.9783 20.1982 11.2638 20.2757 11.6194C20.3531 11.9751 20.3482 12.4129 20.2611 12.9331L20.2031 13.296H15.9064L16.0225 12.5557H19.4482C19.5039 12.2412 19.4894 11.9605 19.4047 11.7138C19.3224 11.467 19.1785 11.2722 18.9729 11.1295C18.7696 10.9868 18.512 10.9154 18.1999 10.9154C17.8781 10.9154 17.5781 11.0025 17.2999 11.1767C17.0217 11.3484 16.7894 11.5662 16.6031 11.8299C16.4169 12.0912 16.3007 12.3573 16.2548 12.6283L16.1531 13.267C16.0806 13.7291 16.0915 14.0968 16.1858 14.3702C16.2826 14.6436 16.4507 14.8407 16.6902 14.9617C16.9297 15.0802 17.2297 15.1395 17.5902 15.1395C17.8201 15.1395 18.0317 15.1081 18.2253 15.0452C18.4188 14.9798 18.5918 14.8831 18.7442 14.7548C18.8966 14.6242 19.0249 14.4621 19.1289 14.2686L19.9128 14.5008C19.7797 14.7815 19.5922 15.0282 19.3503 15.2411C19.1108 15.4516 18.8301 15.6161 18.5083 15.7347C18.189 15.8508 17.8394 15.9089 17.4596 15.9089ZM25.779 11.467L24.9661 11.6847C24.9371 11.5541 24.8863 11.4283 24.8137 11.3073C24.7435 11.1839 24.6346 11.0835 24.4871 11.0061C24.3419 10.9263 24.1435 10.8864 23.8919 10.8864C23.5508 10.8864 23.2544 10.965 23.0028 11.1222C22.7512 11.2771 22.6073 11.4743 22.571 11.7138C22.5347 11.9242 22.5831 12.0924 22.7161 12.2182C22.8492 12.344 23.0718 12.4468 23.3839 12.5267L24.1822 12.7299C24.6613 12.8533 25.0024 13.0383 25.2056 13.2851C25.4112 13.5295 25.4814 13.8476 25.4161 14.2395C25.3629 14.5589 25.2238 14.8444 24.9988 15.096C24.7738 15.3476 24.4859 15.546 24.1351 15.6911C23.7843 15.8363 23.3935 15.9089 22.9629 15.9089C22.3895 15.9089 21.9371 15.7855 21.6057 15.5387C21.2742 15.2895 21.0976 14.929 21.0758 14.4573L21.9323 14.254C21.9541 14.5516 22.0605 14.7766 22.2516 14.929C22.4452 15.079 22.7161 15.154 23.0645 15.154C23.4637 15.154 23.7964 15.0694 24.0625 14.9C24.3286 14.7282 24.4798 14.5226 24.5161 14.2831C24.5524 14.0871 24.5137 13.9238 24.4 13.7932C24.2887 13.6625 24.0951 13.5645 23.8193 13.4992L22.9339 13.2815C22.4403 13.1581 22.0944 12.9694 21.896 12.7154C21.7 12.4613 21.6347 12.142 21.7 11.7573C21.7532 11.4428 21.8887 11.1646 22.1065 10.9226C22.3266 10.6807 22.6024 10.4908 22.9339 10.3529C23.2677 10.215 23.6306 10.1461 24.0226 10.1461C24.5742 10.1461 24.9867 10.267 25.26 10.5089C25.5334 10.7485 25.7064 11.0678 25.779 11.467ZM26.444 15.7927L27.373 10.2186H28.2294L27.3004 15.7927H26.444ZM28.0625 9.2751C27.8956 9.2751 27.7516 9.21824 27.6307 9.10454C27.5121 8.99083 27.4528 8.85414 27.4528 8.69446C27.4528 8.53479 27.5121 8.3981 27.6307 8.28439C27.7516 8.17068 27.8956 8.11383 28.0625 8.11383C28.2294 8.11383 28.3722 8.17068 28.4907 8.28439C28.6117 8.3981 28.6722 8.53479 28.6722 8.69446C28.6722 8.85414 28.6117 8.99083 28.4907 9.10454C28.3722 9.21824 28.2294 9.2751 28.0625 9.2751ZM30.7706 17.9991C30.3545 17.9991 30.0061 17.9459 29.7255 17.8395C29.4448 17.7354 29.2199 17.5975 29.0505 17.4258C28.8811 17.2564 28.7529 17.075 28.6658 16.8814L29.4352 16.4024C29.4932 16.504 29.5682 16.6201 29.6602 16.7508C29.7521 16.8838 29.8912 16.9988 30.0775 17.0955C30.2662 17.1947 30.5311 17.2443 30.8722 17.2443C31.3198 17.2443 31.7117 17.1354 32.048 16.9177C32.3843 16.7 32.5924 16.3588 32.6722 15.8943L32.8464 14.7621H32.7738C32.6964 14.8637 32.5887 14.9895 32.4508 15.1395C32.3129 15.2871 32.1279 15.4189 31.8956 15.5351C31.6634 15.6488 31.3658 15.7056 31.0029 15.7056C30.5505 15.7056 30.1634 15.5992 29.8416 15.3863C29.5198 15.1734 29.2888 14.8637 29.1485 14.4573C29.0106 14.0508 28.99 13.5573 29.0868 12.9766C29.1811 12.4057 29.3626 11.9085 29.6311 11.4851C29.9021 11.0593 30.236 10.7303 30.6327 10.4981C31.0295 10.2634 31.4626 10.1461 31.9319 10.1461C32.2948 10.1461 32.573 10.2065 32.7666 10.3275C32.9625 10.446 33.1053 10.5815 33.1948 10.7339C33.2843 10.8839 33.352 11.0073 33.398 11.1041H33.4851L33.6303 10.2186H34.4577L33.5141 15.9524C33.4343 16.4314 33.2613 16.8209 32.9952 17.1209C32.7291 17.4233 32.4025 17.6447 32.0154 17.785C31.6283 17.9278 31.2134 17.9991 30.7706 17.9991ZM31.2206 14.9363C31.5617 14.9363 31.8654 14.8577 32.1315 14.7004C32.4 14.5431 32.6226 14.3169 32.7992 14.0218C32.9758 13.7266 33.098 13.3734 33.1657 12.9621C33.2335 12.5605 33.2287 12.2061 33.1512 11.8988C33.0738 11.5916 32.9274 11.3509 32.7121 11.1767C32.4992 11.0025 32.2198 10.9154 31.8738 10.9154C31.5085 10.9154 31.1928 11.0073 30.9267 11.1912C30.663 11.3751 30.4489 11.6218 30.2843 11.9315C30.1198 12.2412 30.0061 12.5847 29.9432 12.9621C29.8803 13.3492 29.8827 13.6916 29.9505 13.9891C30.0182 14.2843 30.1561 14.5165 30.3642 14.6859C30.5747 14.8528 30.8601 14.9363 31.2206 14.9363ZM36.5044 12.4396L35.9528 15.7927H35.0964L36.0254 10.2186H36.8528L36.7076 11.0896H36.7802C36.9544 10.8065 37.1903 10.5791 37.4878 10.4073C37.7854 10.2331 38.1447 10.1461 38.5657 10.1461C38.9382 10.1461 39.2527 10.2235 39.5092 10.3783C39.7681 10.5307 39.9507 10.763 40.0572 11.0751C40.166 11.3847 40.1818 11.7767 40.1043 12.2509L39.5092 15.7927H38.6527L39.2334 12.3089C39.306 11.8734 39.2491 11.5323 39.0628 11.2855C38.879 11.0388 38.5874 10.9154 38.1882 10.9154C37.9124 10.9154 37.6572 10.9747 37.4225 11.0932C37.1903 11.2118 36.9931 11.3847 36.831 11.6122C36.6713 11.8396 36.5625 12.1154 36.5044 12.4396ZM43.3967 15.9089C42.862 15.9089 42.4205 15.7903 42.0721 15.5532C41.7238 15.3137 41.4806 14.9798 41.3427 14.5516C41.2048 14.121 41.183 13.6202 41.2774 13.0492C41.3718 12.4783 41.5592 11.9751 41.8399 11.5396C42.1205 11.1017 42.4701 10.7606 42.8887 10.5162C43.3072 10.2694 43.7669 10.1461 44.2677 10.1461C44.558 10.1461 44.8374 10.1944 45.106 10.2912C45.3745 10.388 45.6068 10.5452 45.8027 10.763C45.9987 10.9783 46.1354 11.2638 46.2128 11.6194C46.2902 11.9751 46.2854 12.4129 46.1983 12.9331L46.1402 13.296H41.8435L41.9596 12.5557H45.3854C45.441 12.2412 45.4265 11.9605 45.3418 11.7138C45.2596 11.467 45.1156 11.2722 44.91 11.1295C44.7068 10.9868 44.4491 10.9154 44.137 10.9154C43.8153 10.9154 43.5153 11.0025 43.237 11.1767C42.9588 11.3484 42.7266 11.5662 42.5403 11.8299C42.354 12.0912 42.2379 12.3573 42.1919 12.6283L42.0903 13.267C42.0177 13.7291 42.0286 14.0968 42.1229 14.3702C42.2197 14.6436 42.3879 14.8407 42.6274 14.9617C42.8669 15.0802 43.1669 15.1395 43.5274 15.1395C43.7572 15.1395 43.9689 15.1081 44.1624 15.0452C44.356 14.9798 44.529 14.8831 44.6814 14.7548C44.8338 14.6242 44.962 14.4621 45.066 14.2686L45.8499 14.5008C45.7168 14.7815 45.5293 15.0282 45.2874 15.2411C45.0479 15.4516 44.7673 15.6161 44.4455 15.7347C44.1261 15.8508 43.7765 15.9089 43.3967 15.9089ZM49.1396 15.9089C48.6726 15.9089 48.2807 15.7915 47.9638 15.5568C47.6468 15.3197 47.4231 14.9859 47.2924 14.5552C47.1642 14.1222 47.1485 13.6105 47.2452 13.0202C47.3444 12.4347 47.5295 11.9267 47.8005 11.496C48.0738 11.0654 48.4089 10.7327 48.8057 10.4981C49.2025 10.2634 49.6355 10.1461 50.1049 10.1461C50.4678 10.1461 50.7448 10.2065 50.9359 10.3275C51.1294 10.446 51.2698 10.5815 51.3569 10.7339C51.444 10.8839 51.5105 11.0073 51.5564 11.1041H51.629L52.0863 8.3606H52.9427L51.7089 15.7927H50.8815L51.0266 14.9363H50.925C50.8452 15.0379 50.7339 15.1661 50.5911 15.321C50.4484 15.4734 50.2597 15.6101 50.025 15.731C49.7928 15.8496 49.4976 15.9089 49.1396 15.9089ZM49.35 15.1395C49.6936 15.1395 50.0008 15.05 50.2718 14.871C50.5452 14.6895 50.7726 14.4391 50.954 14.1198C51.1355 13.798 51.2613 13.4266 51.3315 13.0057C51.4016 12.5896 51.3992 12.2254 51.3242 11.9134C51.2492 11.5988 51.1052 11.3545 50.8923 11.1803C50.6794 11.0037 50.3976 10.9154 50.0468 10.9154C49.6863 10.9154 49.373 11.0085 49.1069 11.1948C48.8408 11.3787 48.6242 11.6291 48.4573 11.946C48.2904 12.2605 48.1743 12.6137 48.1089 13.0057C48.0436 13.4024 48.0424 13.7629 48.1053 14.0871C48.1682 14.4089 48.3013 14.6653 48.5045 14.8565C48.7101 15.0452 48.992 15.1395 49.35 15.1395ZM55.4794 15.8943C54.9907 15.8943 54.5842 15.8048 54.26 15.6258C53.9358 15.4468 53.7048 15.2012 53.5669 14.8891C53.429 14.577 53.3939 14.2202 53.4617 13.8186C53.51 13.5089 53.6201 13.2343 53.7919 12.9948C53.9637 12.7529 54.1838 12.5291 54.4524 12.3234C54.7209 12.1154 55.0245 11.9073 55.3632 11.6992L56.5681 10.9009C56.8003 10.763 56.9926 10.6154 57.1451 10.4581C57.2975 10.3009 57.3955 10.0952 57.439 9.84122C57.468 9.65251 57.4136 9.46985 57.2757 9.29324C57.1402 9.11663 56.9382 9.02833 56.6697 9.02833C56.481 9.02833 56.3068 9.07671 56.1471 9.17349C55.9874 9.26784 55.8544 9.38881 55.7479 9.53638C55.6439 9.68154 55.5786 9.83154 55.5519 9.98638C55.5229 10.1606 55.5423 10.336 55.61 10.5126C55.6777 10.6892 55.7721 10.8706 55.8931 11.0569C56.014 11.2408 56.1374 11.4307 56.2632 11.6267L58.9777 15.7927H57.9471L55.6971 12.396C55.489 12.0815 55.3003 11.796 55.131 11.5396C54.9641 11.2831 54.8382 11.0303 54.7536 10.7811C54.6689 10.5319 54.6495 10.2622 54.6955 9.97186C54.7487 9.63799 54.8697 9.34526 55.0584 9.09365C55.2495 8.83962 55.4915 8.64245 55.7842 8.50213C56.0794 8.35939 56.4084 8.28802 56.7713 8.28802C57.1439 8.28802 57.4523 8.3606 57.6967 8.50576C57.9434 8.6485 58.1188 8.83841 58.2229 9.0755C58.3293 9.31018 58.3583 9.56542 58.31 9.84122C58.2519 10.1969 58.1116 10.5053 57.889 10.7666C57.6664 11.0255 57.3858 11.2686 57.0471 11.496L55.3923 12.5992C55.0173 12.8484 54.7499 13.0891 54.5903 13.3214C54.433 13.5512 54.3471 13.717 54.3326 13.8186C54.2939 14.0508 54.3181 14.2673 54.4052 14.4682C54.4947 14.669 54.6387 14.831 54.837 14.9544C55.0378 15.0778 55.2858 15.1395 55.581 15.1395C55.8616 15.1395 56.1447 15.0802 56.4302 14.9617C56.7156 14.8407 56.9842 14.6665 57.2358 14.4391C57.4898 14.2117 57.7063 13.9383 57.8854 13.619C58.0644 13.2996 58.1866 12.9404 58.2519 12.5412H59.0793C58.997 13.0347 58.8761 13.4363 58.7164 13.746C58.5591 14.0532 58.3971 14.2952 58.2301 14.4718C58.0656 14.646 57.9325 14.7815 57.8309 14.8782C57.7946 14.9145 57.7559 14.9508 57.7148 14.9871C57.6737 15.0234 57.635 15.0597 57.5987 15.096C57.3156 15.3645 56.9805 15.5653 56.5935 15.6984C56.2064 15.829 55.835 15.8943 55.4794 15.8943ZM10.2307 27.7927H7.90813L9.14198 20.3606H11.5081C12.229 20.3606 12.823 20.5118 13.2899 20.8142C13.7592 21.1166 14.0858 21.5485 14.2697 22.1098C14.456 22.671 14.4838 23.3412 14.3532 24.1202C14.2274 24.8847 13.983 25.5416 13.6201 26.0907C13.2597 26.6375 12.7927 27.0585 12.2193 27.3536C11.6484 27.6464 10.9855 27.7927 10.2307 27.7927ZM8.94239 26.9944H10.2597C10.8742 26.9944 11.404 26.8734 11.8492 26.6315C12.2968 26.3895 12.6572 26.0448 12.9306 25.5972C13.2064 25.1496 13.3951 24.6186 13.4967 24.0041C13.5984 23.4138 13.5887 22.9069 13.4677 22.4835C13.3492 22.0577 13.1157 21.7311 12.7673 21.5037C12.4214 21.2739 11.9581 21.159 11.3774 21.159H9.90769L8.94239 26.9944ZM17.4596 27.9089C16.9249 27.9089 16.4834 27.7903 16.135 27.5532C15.7866 27.3137 15.5435 26.9798 15.4056 26.5516C15.2677 26.121 15.2459 25.6202 15.3403 25.0492C15.4346 24.4783 15.6221 23.9751 15.9027 23.5396C16.1834 23.1017 16.533 22.7606 16.9515 22.5162C17.3701 22.2694 17.8297 22.1461 18.3305 22.1461C18.6208 22.1461 18.9003 22.1944 19.1688 22.2912C19.4374 22.388 19.6696 22.5452 19.8656 22.763C20.0615 22.9783 20.1982 23.2638 20.2757 23.6194C20.3531 23.9751 20.3482 24.4129 20.2611 24.9331L20.2031 25.296H15.9064L16.0225 24.5557H19.4482C19.5039 24.2412 19.4894 23.9605 19.4047 23.7138C19.3224 23.467 19.1785 23.2722 18.9729 23.1295C18.7696 22.9868 18.512 22.9154 18.1999 22.9154C17.8781 22.9154 17.5781 23.0025 17.2999 23.1767C17.0217 23.3484 16.7894 23.5662 16.6031 23.8299C16.4169 24.0912 16.3007 24.3573 16.2548 24.6283L16.1531 25.267C16.0806 25.7291 16.0915 26.0968 16.1858 26.3702C16.2826 26.6436 16.4507 26.8407 16.6902 26.9617C16.9297 27.0802 17.2297 27.1395 17.5902 27.1395C17.8201 27.1395 18.0317 27.1081 18.2253 27.0452C18.4188 26.9798 18.5918 26.8831 18.7442 26.7548C18.8966 26.6242 19.0249 26.4621 19.1289 26.2686L19.9128 26.5008C19.7797 26.7815 19.5922 27.0282 19.3503 27.2411C19.1108 27.4516 18.8301 27.6161 18.5083 27.7347C18.189 27.8508 17.8394 27.9089 17.4596 27.9089ZM26.4222 22.2186L23.4319 27.7927H22.561L21.4288 22.2186H22.3215L23.1199 26.6605H23.1779L25.4569 22.2186H26.4222ZM28.7466 27.9089C28.2119 27.9089 27.7704 27.7903 27.422 27.5532C27.0736 27.3137 26.8305 26.9798 26.6926 26.5516C26.5547 26.121 26.5329 25.6202 26.6273 25.0492C26.7216 24.4783 26.9091 23.9751 27.1897 23.5396C27.4704 23.1017 27.82 22.7606 28.2385 22.5162C28.6571 22.2694 29.1167 22.1461 29.6175 22.1461C29.9078 22.1461 30.1873 22.1944 30.4558 22.2912C30.7244 22.388 30.9566 22.5452 31.1526 22.763C31.3485 22.9783 31.4852 23.2638 31.5627 23.6194C31.6401 23.9751 31.6352 24.4129 31.5481 24.9331L31.4901 25.296H27.1934L27.3095 24.5557H30.7352C30.7909 24.2412 30.7764 23.9605 30.6917 23.7138C30.6094 23.467 30.4655 23.2722 30.2599 23.1295C30.0566 22.9868 29.799 22.9154 29.4869 22.9154C29.1651 22.9154 28.8651 23.0025 28.5869 23.1767C28.3087 23.3484 28.0764 23.5662 27.8901 23.8299C27.7039 24.0912 27.5877 24.3573 27.5418 24.6283L27.4401 25.267C27.3676 25.7291 27.3785 26.0968 27.4728 26.3702C27.5696 26.6436 27.7377 26.8407 27.9772 26.9617C28.2167 27.0802 28.5167 27.1395 28.8772 27.1395C29.1071 27.1395 29.3187 27.1081 29.5123 27.0452C29.7058 26.9798 29.8788 26.8831 30.0312 26.7548C30.1836 26.6242 30.3119 26.4621 30.4159 26.2686L31.1998 26.5008C31.0667 26.7815 30.8792 27.0282 30.6373 27.2411C30.3978 27.4516 30.1171 27.6161 29.7953 27.7347C29.476 27.8508 29.1264 27.9089 28.7466 27.9089ZM34.4822 20.3606L33.2483 27.7927H32.3919L33.6257 20.3606H34.4822ZM37.1177 27.9089C36.6048 27.9089 36.1754 27.7867 35.8294 27.5423C35.4834 27.298 35.2391 26.9556 35.0964 26.5153C34.956 26.075 34.9331 25.5621 35.0274 24.9766C35.1193 24.4057 35.302 23.9085 35.5754 23.4851C35.8512 23.0593 36.1935 22.7303 36.6024 22.4981C37.0137 22.2634 37.4661 22.1461 37.9596 22.1461C38.4725 22.1461 38.9007 22.2694 39.2443 22.5162C39.5902 22.7606 39.8346 23.1041 39.9773 23.5468C40.1201 23.9871 40.1443 24.5025 40.0499 25.0928C39.958 25.6589 39.7729 26.1536 39.4947 26.577C39.2189 26.998 38.8765 27.3258 38.4677 27.5605C38.0612 27.7927 37.6112 27.9089 37.1177 27.9089ZM37.1322 27.1395C37.5241 27.1395 37.8641 27.0391 38.152 26.8383C38.4423 26.6375 38.6769 26.3726 38.856 26.0436C39.0374 25.7145 39.1596 25.3589 39.2225 24.9766C39.2806 24.6137 39.2781 24.2763 39.2152 23.9642C39.1523 23.6497 39.0181 23.3968 38.8124 23.2057C38.6068 23.0122 38.3177 22.9154 37.9451 22.9154C37.5532 22.9154 37.2108 23.017 36.9181 23.2202C36.6278 23.4234 36.3931 23.6908 36.2141 24.0222C36.0351 24.3537 35.9153 24.7105 35.8548 25.0928C35.7968 25.4557 35.798 25.7932 35.8584 26.1053C35.9213 26.4149 36.0556 26.6653 36.2613 26.8565C36.4693 27.0452 36.7596 27.1395 37.1322 27.1395ZM40.5661 29.883L41.8508 22.2186H42.6782L42.533 23.1041H42.6346C42.7121 23.0073 42.8185 22.8839 42.954 22.7339C43.0919 22.5815 43.277 22.446 43.5092 22.3275C43.7439 22.2065 44.0427 22.1461 44.4056 22.1461C44.8749 22.1461 45.2681 22.2634 45.585 22.4981C45.9019 22.7327 46.1257 23.0654 46.2563 23.496C46.387 23.9267 46.4039 24.4347 46.3071 25.0202C46.2104 25.6105 46.0253 26.1222 45.7519 26.5552C45.4785 26.9859 45.1447 27.3197 44.7503 27.5568C44.356 27.7915 43.9265 27.9089 43.462 27.9089C43.104 27.9089 42.827 27.8496 42.631 27.731C42.435 27.6101 42.2923 27.4734 42.2028 27.321C42.1133 27.1661 42.0443 27.0379 41.9959 26.9363H41.9234L41.4298 29.883H40.5661ZM42.2282 25.0057C42.1604 25.4266 42.1604 25.798 42.2282 26.1198C42.2983 26.4391 42.4375 26.6895 42.6455 26.871C42.856 27.05 43.133 27.1395 43.4766 27.1395C43.8346 27.1395 44.1479 27.0452 44.4165 26.8565C44.6874 26.6653 44.91 26.4089 45.0842 26.0871C45.2608 25.7629 45.383 25.4024 45.4507 25.0057C45.5136 24.6137 45.5112 24.2605 45.4435 23.946C45.3757 23.6291 45.2378 23.3787 45.0298 23.1948C44.8217 23.0085 44.5362 22.9154 44.1733 22.9154C43.8249 22.9154 43.5165 23.0037 43.2479 23.1803C42.9818 23.3545 42.7616 23.5988 42.5875 23.9134C42.4157 24.2254 42.2959 24.5896 42.2282 25.0057ZM49.4743 27.9089C48.9397 27.9089 48.4981 27.7903 48.1498 27.5532C47.8014 27.3137 47.5582 26.9798 47.4203 26.5516C47.2824 26.121 47.2607 25.6202 47.355 25.0492C47.4494 24.4783 47.6369 23.9751 47.9175 23.5396C48.1981 23.1017 48.5477 22.7606 48.9663 22.5162C49.3848 22.2694 49.8445 22.1461 50.3453 22.1461C50.6356 22.1461 50.915 22.1944 51.1836 22.2912C51.4521 22.388 51.6844 22.5452 51.8803 22.763C52.0763 22.9783 52.213 23.2638 52.2904 23.6194C52.3678 23.9751 52.363 24.4129 52.2759 24.9331L52.2178 25.296H47.9211L48.0373 24.5557H51.463C51.5187 24.2412 51.5041 23.9605 51.4195 23.7138C51.3372 23.467 51.1933 23.2722 50.9876 23.1295C50.7844 22.9868 50.5267 22.9154 50.2146 22.9154C49.8929 22.9154 49.5929 23.0025 49.3147 23.1767C49.0364 23.3484 48.8042 23.5662 48.6179 23.8299C48.4316 24.0912 48.3155 24.3573 48.2695 24.6283L48.1679 25.267C48.0953 25.7291 48.1062 26.0968 48.2006 26.3702C48.2973 26.6436 48.4655 26.8407 48.705 26.9617C48.9445 27.0802 49.2445 27.1395 49.605 27.1395C49.8348 27.1395 50.0465 27.1081 50.24 27.0452C50.4336 26.9798 50.6066 26.8831 50.759 26.7548C50.9114 26.6242 51.0396 26.4621 51.1437 26.2686L51.9275 26.5008C51.7945 26.7815 51.607 27.0282 51.365 27.2411C51.1255 27.4516 50.8449 27.6161 50.5231 27.7347C50.2038 27.8508 49.8542 27.9089 49.4743 27.9089ZM55.2172 27.9089C54.7502 27.9089 54.3583 27.7915 54.0414 27.5568C53.7245 27.3197 53.5007 26.9859 53.37 26.5552C53.2418 26.1222 53.2261 25.6105 53.3228 25.0202C53.422 24.4347 53.6071 23.9267 53.8781 23.496C54.1515 23.0654 54.4865 22.7327 54.8833 22.4981C55.2801 22.2634 55.7131 22.1461 56.1825 22.1461C56.5454 22.1461 56.8224 22.2065 57.0135 22.3275C57.2071 22.446 57.3474 22.5815 57.4345 22.7339C57.5216 22.8839 57.5881 23.0073 57.6341 23.1041H57.7066L58.1639 20.3606H59.0203L57.7865 27.7927H56.9591L57.1042 26.9363H57.0026C56.9228 27.0379 56.8115 27.1661 56.6688 27.321C56.526 27.4734 56.3373 27.6101 56.1026 27.731C55.8704 27.8496 55.5752 27.9089 55.2172 27.9089ZM55.4277 27.1395C55.7712 27.1395 56.0784 27.05 56.3494 26.871C56.6228 26.6895 56.8502 26.4391 57.0317 26.1198C57.2131 25.798 57.3389 25.4266 57.4091 25.0057C57.4792 24.5896 57.4768 24.2254 57.4018 23.9134C57.3268 23.5988 57.1829 23.3545 56.97 23.1803C56.7571 23.0037 56.4752 22.9154 56.1244 22.9154C55.7639 22.9154 55.4506 23.0085 55.1845 23.1948C54.9184 23.3787 54.7019 23.6291 54.5349 23.946C54.368 24.2605 54.2519 24.6137 54.1865 25.0057C54.1212 25.4024 54.12 25.7629 54.1829 26.0871C54.2458 26.4089 54.3789 26.6653 54.5821 26.8565C54.7877 27.0452 55.0696 27.1395 55.4277 27.1395Z" fill="#141E46"/>
<path d="M65.2324 20.9519L66.4662 13.5198H69.0645C69.5823 13.5198 69.9948 13.6093 70.302 13.7883C70.6093 13.9649 70.8198 14.2032 70.9335 14.5032C71.0472 14.8008 71.0726 15.131 71.0097 15.4939C70.9564 15.8133 70.856 16.077 70.7085 16.2851C70.5633 16.4931 70.3891 16.6576 70.1859 16.7786C69.9851 16.8996 69.7758 16.9891 69.5581 17.0471L69.5436 17.1197C69.7661 17.1342 69.9803 17.2141 70.1859 17.3592C70.3915 17.5044 70.55 17.7124 70.6613 17.9834C70.7726 18.2544 70.7968 18.5858 70.7339 18.9777C70.671 19.3503 70.5294 19.6854 70.3093 19.983C70.0891 20.2805 69.7819 20.5164 69.3875 20.6906C68.9932 20.8648 68.5033 20.9519 67.9178 20.9519H65.2324ZM66.263 20.1535H68.0484C68.6363 20.1535 69.073 20.0398 69.3585 19.8124C69.6464 19.5826 69.8194 19.3044 69.8774 18.9777C69.9161 18.7261 69.8883 18.4939 69.794 18.281C69.702 18.0657 69.5484 17.8939 69.3331 17.7657C69.1202 17.635 68.8516 17.5697 68.5275 17.5697H66.6985L66.263 20.1535ZM66.8291 16.7858H68.4984C68.7694 16.7858 69.0234 16.7326 69.2605 16.6262C69.4976 16.5197 69.696 16.3697 69.8557 16.1762C70.0153 15.9826 70.1145 15.7552 70.1532 15.4939C70.2113 15.1673 70.146 14.8903 69.9573 14.6629C69.7686 14.4331 69.4274 14.3182 68.9339 14.3182H67.2355L66.8291 16.7858ZM71.9732 23.0422C71.828 23.0422 71.6998 23.0301 71.5885 23.0059C71.4796 22.9841 71.4046 22.9624 71.3635 22.9406L71.7119 22.1858C71.9103 22.239 72.0869 22.2547 72.2417 22.2329C72.399 22.2136 72.5477 22.1374 72.6881 22.0043C72.8308 21.8737 72.9796 21.668 73.1344 21.3874L73.3739 20.9519L72.2562 15.3778H73.1489L73.9473 19.8342H74.0054L76.2844 15.3778H77.2497L73.8312 21.7575C73.6715 22.0551 73.4961 22.2983 73.305 22.487C73.1139 22.6757 72.907 22.8148 72.6844 22.9043C72.4619 22.9962 72.2248 23.0422 71.9732 23.0422Z" fill="#141E46"/>
<path d="M83.0963 16.9973V8.80681H88.9992V10.5985H85.3199V12.0062H88.6952V13.7979H85.3199V15.2056H88.9832V16.9973H83.0963ZM91.4534 16.9973V8.80681H93.677V15.2056H96.9884V16.9973H91.4534ZM102.834 8.80681H105.601L107.505 13.446H107.601L109.504 8.80681H112.272V16.9973H110.096V12.2622H110.032L108.209 16.9333H106.897L105.073 12.2302H105.009V16.9973H102.834V8.80681ZM114.677 16.9973V8.80681H120.58V10.5985H116.901V12.0062H120.276V13.7979H116.901V15.2056H120.564V16.9973H114.677ZM123.034 16.9973V8.80681H125.258V12.0062H128.201V8.80681H130.425V16.9973H128.201V13.7979H125.258V16.9973H123.034ZM135.984 16.9973H132.832V8.80681H135.952C136.794 8.80681 137.522 8.97078 138.135 9.29872C138.751 9.62399 139.226 10.0932 139.559 10.7065C139.895 11.317 140.063 12.0489 140.063 12.9021C140.063 13.7552 139.896 14.4884 139.563 15.1017C139.23 15.7122 138.758 16.1815 138.147 16.5094C137.537 16.8347 136.816 16.9973 135.984 16.9973ZM135.056 15.1097H135.904C136.309 15.1097 136.654 15.0443 136.94 14.9137C137.227 14.7831 137.446 14.5578 137.595 14.2378C137.747 13.9179 137.823 13.4726 137.823 12.9021C137.823 12.3315 137.746 11.8862 137.591 11.5663C137.439 11.2464 137.215 11.0211 136.92 10.8904C136.626 10.7598 136.266 10.6945 135.84 10.6945H135.056V15.1097ZM144.667 8.80681V16.9973H142.443V8.80681H144.667ZM83.0963 27.9973V19.8068H85.3199V23.1182H85.4318L87.8954 19.8068H90.4869L87.7194 23.4541L90.5509 27.9973H87.8954L86.0557 24.9259L85.3199 25.8857V27.9973H83.0963ZM92.4982 27.9973V19.8068H98.4012V21.5985H94.7218V23.0062H98.0972V24.7979H94.7218V26.2056H98.3852V27.9973H92.4982ZM107.942 19.8068V27.9973H106.086L103.127 23.6941H103.079V27.9973H100.855V19.8068H102.743L105.655 24.094H105.718V19.8068H107.942ZM113.561 28.1093C112.916 28.1093 112.342 27.9986 111.841 27.7774C111.342 27.5534 110.951 27.2455 110.665 26.8535C110.38 26.4616 110.236 26.011 110.233 25.5018H112.473C112.476 25.6591 112.524 25.8004 112.617 25.9257C112.713 26.0483 112.844 26.1443 113.009 26.2136C113.174 26.283 113.363 26.3176 113.577 26.3176C113.782 26.3176 113.963 26.2816 114.121 26.2096C114.278 26.135 114.401 26.0323 114.489 25.9017C114.577 25.7711 114.619 25.6217 114.617 25.4538C114.619 25.2885 114.569 25.1418 114.465 25.0139C114.363 24.8859 114.221 24.7859 114.037 24.7139C113.853 24.6419 113.641 24.6059 113.401 24.6059H112.569V23.0702H113.401C113.622 23.0702 113.817 23.0342 113.985 22.9622C114.155 22.8902 114.287 22.7903 114.381 22.6623C114.477 22.5343 114.523 22.3877 114.521 22.2224C114.523 22.0624 114.485 21.9211 114.405 21.7984C114.325 21.6758 114.213 21.5798 114.069 21.5105C113.927 21.4412 113.763 21.4065 113.577 21.4065C113.374 21.4065 113.193 21.4425 113.033 21.5145C112.876 21.5865 112.752 21.6865 112.661 21.8144C112.57 21.9424 112.524 22.0891 112.521 22.2544H110.393C110.396 21.7531 110.533 21.3105 110.805 20.9266C111.08 20.5427 111.456 20.2414 111.933 20.0228C112.41 19.8041 112.958 19.6948 113.577 19.6948C114.182 19.6948 114.717 19.7975 115.18 20.0028C115.647 20.2081 116.011 20.4907 116.272 20.8506C116.536 21.2079 116.667 21.6171 116.664 22.0784C116.67 22.537 116.512 22.9129 116.192 23.2062C115.875 23.4995 115.472 23.6728 114.984 23.7261V23.7901C115.646 23.8621 116.143 24.0647 116.476 24.398C116.809 24.7286 116.973 25.1445 116.968 25.6457C116.971 26.1257 116.827 26.5509 116.536 26.9215C116.248 27.2921 115.847 27.5827 115.332 27.7934C114.821 28.004 114.23 28.1093 113.561 28.1093ZM121.424 27.9973H119.024L121.728 19.8068H124.767L127.471 27.9973H125.071L123.28 22.0624H123.216L121.424 27.9973ZM120.976 24.7659H125.487V26.4296H120.976V24.7659ZM136.698 19.8068V27.9973H134.842L131.883 23.6941H131.835V27.9973H129.611V19.8068H131.499L134.41 24.094H134.474V19.8068H136.698ZM139.101 27.9973V19.8068H145.004V21.5985H141.325V23.0062H144.7V24.7979H141.325V26.2056H144.988V27.9973H139.101Z" fill="#141E46"/>
<rect x="149.639" y="6.79248" width="22.93" height="22.93" rx="5.64693" fill="#141E46"/>
<path d="M153.488 12.0972H161.95V14.0432H155.417V17.2845H163.117V17.2781C165.048 17.2781 166.623 15.734 166.694 13.8041C166.696 13.7586 166.697 13.7129 166.697 13.6669C166.697 13.621 166.696 13.5752 166.694 13.5297V12.0972H168.409L168.632 12.0972C168.632 12.0972 168.632 13.6371 168.632 13.6656V13.6679C168.632 15.362 167.88 16.8799 166.694 17.9004C166.547 18.0273 166.393 18.1465 166.233 18.2575C166.393 18.3684 166.547 18.4876 166.694 18.6145C167.88 19.635 168.632 21.153 168.632 22.847V22.849C168.632 22.8494 168.632 22.8499 168.632 22.8503V24.4177H166.694V22.9852C166.696 22.9397 166.697 22.8939 166.697 22.848C166.697 22.8021 166.696 22.7563 166.694 22.7108C166.623 20.7809 165.048 19.2368 163.117 19.2368L163.117 19.2305L155.417 19.2305V22.4717H161.95V24.4177H153.488V22.4717L153.488 14.0432V12.0972Z" fill="#FFFFFF"/>
</svg>
