<svg width="90" height="37" viewBox="0 0 90 37" fill="none" xmlns="http://www.w3.org/2000/svg">
<rect width="90" height="37" rx="7.45223" fill="#FFFFFF"/>
<path d="M8.68042 14H7.26533L8.0171 9.4717H9.45873C9.898 9.4717 10.2599 9.56383 10.5444 9.74808C10.8303 9.93234 11.0293 10.1955 11.1414 10.5374C11.2549 10.8794 11.2718 11.2877 11.1922 11.7624C11.1156 12.2282 10.9667 12.6284 10.7456 12.963C10.5259 13.2961 10.2415 13.5526 9.8921 13.7325C9.54422 13.9108 9.14033 14 8.68042 14ZM7.89549 13.5136H8.69811C9.07252 13.5136 9.39534 13.4399 9.66657 13.2925C9.93927 13.145 10.1589 12.935 10.3255 12.6623C10.4935 12.3896 10.6085 12.066 10.6704 11.6916C10.7323 11.332 10.7264 11.0231 10.6527 10.7652C10.5805 10.5057 10.4382 10.3068 10.226 10.1682C10.0152 10.0282 9.7329 9.95814 9.37913 9.95814H8.48364L7.89549 13.5136ZM13.0849 14.0708C12.7591 14.0708 12.4901 13.9985 12.2779 13.8541C12.0656 13.7081 11.9175 13.5047 11.8334 13.2438C11.7494 12.9814 11.7361 12.6763 11.7936 12.3284C11.8511 11.9805 11.9654 11.6739 12.1364 11.4086C12.3073 11.1418 12.5203 10.934 12.7754 10.7851C13.0304 10.6347 13.3104 10.5596 13.6156 10.5596C13.7925 10.5596 13.9627 10.589 14.1263 10.648C14.2899 10.707 14.4315 10.8028 14.5509 10.9354C14.6703 11.0666 14.7535 11.2406 14.8007 11.4573C14.8479 11.6739 14.8449 11.9407 14.7919 12.2577L14.7565 12.4788H12.1386L12.2093 12.0277H14.2966C14.3305 11.8361 14.3216 11.6651 14.27 11.5147C14.2199 11.3644 14.1322 11.2457 14.0069 11.1588C13.8831 11.0718 13.7261 11.0283 13.536 11.0283C13.3399 11.0283 13.1571 11.0814 12.9876 11.1875C12.8181 11.2922 12.6766 11.4248 12.5631 11.5855C12.4496 11.7447 12.3788 11.9068 12.3508 12.0719L12.2889 12.4611C12.2447 12.7426 12.2513 12.9667 12.3088 13.1333C12.3678 13.2998 12.4702 13.42 12.6162 13.4937C12.7621 13.5659 12.9449 13.602 13.1645 13.602C13.3045 13.602 13.4335 13.5828 13.5514 13.5445C13.6694 13.5047 13.7748 13.4458 13.8676 13.3676C13.9605 13.288 14.0386 13.1893 14.102 13.0713L14.5796 13.2129C14.4985 13.3838 14.3843 13.5342 14.2369 13.6639C14.0909 13.7922 13.92 13.8924 13.7239 13.9646C13.5293 14.0354 13.3163 14.0708 13.0849 14.0708ZM18.1538 11.3644L17.6585 11.4971C17.6408 11.4175 17.6099 11.3408 17.5657 11.2671C17.5229 11.1919 17.4566 11.1307 17.3667 11.0836C17.2782 11.0349 17.1574 11.0106 17.0041 11.0106C16.7962 11.0106 16.6156 11.0585 16.4623 11.1543C16.309 11.2487 16.2213 11.3688 16.1992 11.5147C16.1771 11.643 16.2066 11.7454 16.2877 11.8221C16.3687 11.8987 16.5043 11.9614 16.6945 12.01L17.1809 12.1338C17.4728 12.209 17.6806 12.3218 17.8045 12.4721C17.9298 12.621 17.9725 12.8149 17.9327 13.0537C17.9003 13.2482 17.8155 13.4222 17.6784 13.5755C17.5413 13.7288 17.3659 13.8496 17.1522 13.9381C16.9385 14.0265 16.7004 14.0708 16.438 14.0708C16.0887 14.0708 15.813 13.9956 15.6111 13.8452C15.4091 13.6934 15.3015 13.4738 15.2883 13.1863L15.8101 13.0625C15.8233 13.2438 15.8882 13.3809 16.0046 13.4738C16.1226 13.5652 16.2877 13.6108 16.4999 13.6108C16.7431 13.6108 16.9458 13.5593 17.108 13.4561C17.2701 13.3514 17.3622 13.2261 17.3844 13.0802C17.4065 12.9608 17.3829 12.8613 17.3136 12.7817C17.2458 12.7021 17.1279 12.6424 16.9598 12.6026L16.4203 12.4699C16.1196 12.3948 15.9088 12.2798 15.788 12.125C15.6686 11.9702 15.6288 11.7756 15.6686 11.5413C15.701 11.3496 15.7835 11.1801 15.9162 11.0327C16.0503 10.8853 16.2184 10.7696 16.4203 10.6856C16.6237 10.6016 16.8449 10.5596 17.0837 10.5596C17.4197 10.5596 17.6711 10.6333 17.8376 10.7807C18.0042 10.9266 18.1096 11.1212 18.1538 11.3644ZM18.559 14L19.125 10.6038H19.6469L19.0808 14H18.559ZM19.5451 10.0289C19.4434 10.0289 19.3557 9.99425 19.282 9.92497C19.2098 9.85569 19.1737 9.77241 19.1737 9.67512C19.1737 9.57783 19.2098 9.49455 19.282 9.42527C19.3557 9.35598 19.4434 9.32134 19.5451 9.32134C19.6469 9.32134 19.7338 9.35598 19.8061 9.42527C19.8798 9.49455 19.9166 9.57783 19.9166 9.67512C19.9166 9.77241 19.8798 9.85569 19.8061 9.92497C19.7338 9.99425 19.6469 10.0289 19.5451 10.0289ZM21.1952 15.3443C20.9416 15.3443 20.7294 15.3119 20.5584 15.2471C20.3874 15.1837 20.2503 15.0996 20.1471 14.995C20.0439 14.8918 19.9658 14.7813 19.9127 14.6633L20.3815 14.3715C20.4169 14.4334 20.4626 14.5041 20.5186 14.5837C20.5746 14.6648 20.6593 14.7348 20.7728 14.7938C20.8878 14.8542 21.0492 14.8844 21.2571 14.8844C21.5298 14.8844 21.7686 14.8181 21.9735 14.6854C22.1784 14.5528 22.3051 14.3449 22.3538 14.0619L22.4599 13.3721H22.4157C22.3685 13.434 22.3029 13.5106 22.2189 13.602C22.1349 13.6919 22.0221 13.7723 21.8806 13.843C21.7391 13.9123 21.5578 13.9469 21.3367 13.9469C21.061 13.9469 20.8252 13.8821 20.6291 13.7524C20.4331 13.6226 20.2923 13.434 20.2068 13.1863C20.1228 12.9387 20.1103 12.638 20.1692 12.2842C20.2267 11.9363 20.3373 11.6334 20.5009 11.3754C20.666 11.116 20.8694 10.9155 21.1111 10.774C21.3529 10.631 21.6167 10.5596 21.9027 10.5596C22.1238 10.5596 22.2933 10.5964 22.4113 10.6701C22.5307 10.7423 22.6176 10.8249 22.6722 10.9177C22.7267 11.0091 22.768 11.0843 22.796 11.1433H22.8491L22.9375 10.6038H23.4416L22.8667 14.0973C22.8181 14.3892 22.7127 14.6265 22.5506 14.8093C22.3884 14.9935 22.1894 15.1284 21.9536 15.2139C21.7177 15.3009 21.4649 15.3443 21.1952 15.3443ZM21.4693 13.4782C21.6772 13.4782 21.8622 13.4303 22.0243 13.3345C22.1879 13.2386 22.3236 13.1008 22.4312 12.921C22.5388 12.7412 22.6132 12.5259 22.6545 12.2754C22.6958 12.0307 22.6928 11.8147 22.6456 11.6275C22.5985 11.4403 22.5093 11.2936 22.3781 11.1875C22.2484 11.0814 22.0781 11.0283 21.8673 11.0283C21.6448 11.0283 21.4524 11.0843 21.2902 11.1963C21.1296 11.3084 20.9991 11.4587 20.8989 11.6474C20.7986 11.8361 20.7294 12.0454 20.691 12.2754C20.6527 12.5112 20.6542 12.7198 20.6955 12.9011C20.7367 13.0809 20.8208 13.2224 20.9475 13.3256C21.0758 13.4273 21.2497 13.4782 21.4693 13.4782ZM24.6887 11.957L24.3526 14H23.8308L24.3968 10.6038H24.9009L24.8125 11.1344H24.8567C24.9629 10.962 25.1066 10.8234 25.2879 10.7188C25.4692 10.6126 25.6881 10.5596 25.9446 10.5596C26.1716 10.5596 26.3632 10.6067 26.5195 10.7011C26.6772 10.7939 26.7885 10.9354 26.8533 11.1256C26.9197 11.3143 26.9292 11.5531 26.8821 11.842L26.5195 14H25.9976L26.3514 11.8774C26.3956 11.612 26.361 11.4042 26.2475 11.2538C26.1355 11.1035 25.9578 11.0283 25.7146 11.0283C25.5466 11.0283 25.3911 11.0644 25.2481 11.1366C25.1066 11.2089 24.9864 11.3143 24.8877 11.4528C24.7904 11.5914 24.7241 11.7594 24.6887 11.957ZM28.8881 14.0708C28.5623 14.0708 28.2933 13.9985 28.081 13.8541C27.8688 13.7081 27.7206 13.5047 27.6366 13.2438C27.5526 12.9814 27.5393 12.6763 27.5968 12.3284C27.6543 11.9805 27.7685 11.6739 27.9395 11.4086C28.1105 11.1418 28.3235 10.934 28.5785 10.7851C28.8335 10.6347 29.1136 10.5596 29.4187 10.5596C29.5956 10.5596 29.7659 10.589 29.9295 10.648C30.0931 10.707 30.2346 10.8028 30.354 10.9354C30.4734 11.0666 30.5567 11.2406 30.6039 11.4573C30.6511 11.6739 30.6481 11.9407 30.595 12.2577L30.5597 12.4788H27.9417L28.0125 12.0277H30.0998C30.1337 11.8361 30.1248 11.6651 30.0732 11.5147C30.0231 11.3644 29.9354 11.2457 29.8101 11.1588C29.6863 11.0718 29.5293 11.0283 29.3391 11.0283C29.1431 11.0283 28.9603 11.0814 28.7908 11.1875C28.6213 11.2922 28.4798 11.4248 28.3663 11.5855C28.2528 11.7447 28.182 11.9068 28.154 12.0719L28.0921 12.4611C28.0479 12.7426 28.0545 12.9667 28.112 13.1333C28.171 13.2998 28.2734 13.42 28.4193 13.4937C28.5653 13.5659 28.748 13.602 28.9677 13.602C29.1077 13.602 29.2367 13.5828 29.3546 13.5445C29.4725 13.5047 29.5779 13.4458 29.6708 13.3676C29.7637 13.288 29.8418 13.1893 29.9052 13.0713L30.3828 13.2129C30.3017 13.3838 30.1875 13.5342 30.0401 13.6639C29.8941 13.7922 29.7231 13.8924 29.5271 13.9646C29.3325 14.0354 29.1195 14.0708 28.8881 14.0708ZM32.3871 14.0708C32.1026 14.0708 31.8638 13.9993 31.6707 13.8563C31.4776 13.7118 31.3413 13.5084 31.2617 13.246C31.1836 12.9822 31.174 12.6704 31.2329 12.3107C31.2934 11.954 31.4061 11.6445 31.5712 11.3821C31.7378 11.1197 31.942 10.917 32.1837 10.774C32.4254 10.631 32.6893 10.5596 32.9753 10.5596C33.1964 10.5596 33.3652 10.5964 33.4816 10.6701C33.5995 10.7423 33.685 10.8249 33.7381 10.9177C33.7912 11.0091 33.8317 11.0843 33.8597 11.1433H33.9039L34.1825 9.4717H34.7043L33.9526 14H33.4484L33.5369 13.4782H33.475C33.4263 13.5401 33.3585 13.6182 33.2716 13.7126C33.1846 13.8054 33.0696 13.8887 32.9266 13.9624C32.7851 14.0346 32.6053 14.0708 32.3871 14.0708ZM32.5154 13.602C32.7247 13.602 32.9119 13.5475 33.077 13.4384C33.2436 13.3278 33.3821 13.1753 33.4927 12.9807C33.6032 12.7846 33.6799 12.5584 33.7226 12.3019C33.7654 12.0483 33.7639 11.8265 33.7182 11.6364C33.6725 11.4447 33.5848 11.2958 33.4551 11.1897C33.3254 11.0821 33.1536 11.0283 32.9399 11.0283C32.7203 11.0283 32.5294 11.0851 32.3672 11.1986C32.2051 11.3106 32.0731 11.4631 31.9714 11.6562C31.8697 11.8479 31.799 12.0631 31.7592 12.3019C31.7194 12.5436 31.7186 12.7633 31.757 12.9608C31.7953 13.1568 31.8764 13.3131 32.0002 13.4295C32.1255 13.5445 32.2972 13.602 32.5154 13.602ZM37.3328 14.0633C37.0285 14.0633 36.7754 14.0075 36.5736 13.8961C36.3717 13.7846 36.2279 13.6317 36.142 13.4374C36.0561 13.2431 36.0343 13.0209 36.0765 12.7708C36.1066 12.578 36.1751 12.407 36.2821 12.2579C36.389 12.1073 36.5261 11.9679 36.6933 11.8399C36.8605 11.7103 37.0496 11.5808 37.2605 11.4512L38.0106 10.9541C38.1552 10.8683 38.275 10.7764 38.3699 10.6785C38.4648 10.5806 38.5258 10.4525 38.5529 10.2943C38.571 10.1768 38.5371 10.0631 38.4512 9.95315C38.3669 9.84319 38.2411 9.78821 38.0739 9.78821C37.9564 9.78821 37.848 9.81833 37.7485 9.87859C37.6491 9.93734 37.5663 10.0127 37.5 10.1045C37.4352 10.1949 37.3945 10.2883 37.378 10.3847C37.3599 10.4932 37.3719 10.6024 37.4141 10.7124C37.4563 10.8223 37.515 10.9353 37.5904 11.0513C37.6657 11.1658 37.7425 11.284 37.8208 11.406L39.511 14H38.8693L37.4683 11.8851C37.3388 11.6892 37.2213 11.5115 37.1159 11.3518C37.0119 11.1921 36.9336 11.0347 36.8809 10.8796C36.8281 10.7244 36.8161 10.5565 36.8447 10.3757C36.8779 10.1678 36.9532 9.98554 37.0707 9.82888C37.1897 9.67071 37.3403 9.54794 37.5226 9.46057C37.7064 9.3717 37.9112 9.32726 38.1372 9.32726C38.3692 9.32726 38.5612 9.37245 38.7134 9.46283C38.867 9.55171 38.9762 9.66996 39.041 9.81758C39.1073 9.9637 39.1253 10.1226 39.0952 10.2943C39.0591 10.5158 38.9717 10.7078 38.8331 10.8705C38.6945 11.0317 38.5198 11.1831 38.3089 11.3247L37.2785 12.0116C37.0451 12.1668 36.8786 12.3166 36.7792 12.4612C36.6813 12.6044 36.6278 12.7075 36.6188 12.7708C36.5947 12.9154 36.6097 13.0502 36.6639 13.1753C36.7197 13.3003 36.8093 13.4012 36.9328 13.478C37.0579 13.5549 37.2123 13.5933 37.396 13.5933C37.5708 13.5933 37.747 13.5564 37.9248 13.4826C38.1025 13.4072 38.2697 13.2988 38.4264 13.1572C38.5846 13.0156 38.7194 12.8454 38.8309 12.6465C38.9423 12.4477 39.0184 12.224 39.0591 11.9754H39.5742C39.523 12.2827 39.4477 12.5328 39.3483 12.7256C39.2504 12.9169 39.1494 13.0676 39.0455 13.1775C38.9431 13.286 38.8602 13.3703 38.797 13.4306C38.7744 13.4532 38.7503 13.4758 38.7247 13.4984C38.699 13.521 38.6749 13.5436 38.6523 13.5662C38.4761 13.7334 38.2675 13.8584 38.0265 13.9413C37.7854 14.0226 37.5542 14.0633 37.3328 14.0633ZM8.71726 26H7.27115L8.03939 21.3724H9.51262C9.96151 21.3724 10.3313 21.4666 10.6221 21.6549C10.9143 21.8432 11.1176 22.1121 11.2321 22.4616C11.3481 22.811 11.3654 23.2283 11.2841 23.7133C11.2058 24.1894 11.0536 24.5983 10.8277 24.9403C10.6032 25.2807 10.3125 25.5428 9.95549 25.7266C9.59998 25.9089 9.18724 26 8.71726 26ZM7.91512 25.5029H8.73533C9.11795 25.5029 9.44784 25.4276 9.72501 25.2769C10.0037 25.1263 10.2281 24.9117 10.3984 24.633C10.5701 24.3543 10.6876 24.0237 10.7508 23.641C10.8141 23.2735 10.8081 22.9579 10.7328 22.6943C10.659 22.4292 10.5136 22.2258 10.2967 22.0842C10.0813 21.9411 9.7928 21.8695 9.43127 21.8695H8.51616L7.91512 25.5029ZM13.2183 26.0723C12.8854 26.0723 12.6105 25.9985 12.3935 25.8509C12.1766 25.7017 12.0252 25.4939 11.9394 25.2272C11.8535 24.9591 11.8399 24.6473 11.8987 24.2918C11.9574 23.9363 12.0742 23.623 12.2489 23.3518C12.4237 23.0792 12.6413 22.8668 12.9019 22.7146C13.1625 22.561 13.4487 22.4841 13.7606 22.4841C13.9413 22.4841 14.1153 22.5143 14.2825 22.5745C14.4497 22.6348 14.5943 22.7327 14.7164 22.8683C14.8384 23.0023 14.9235 23.1801 14.9717 23.4015C15.0199 23.623 15.0169 23.8956 14.9626 24.2195L14.9265 24.4454H12.2512L12.3235 23.9845H14.4565C14.4911 23.7887 14.4821 23.6139 14.4294 23.4603C14.3782 23.3066 14.2885 23.1854 14.1605 23.0965C14.034 23.0076 13.8735 22.9632 13.6792 22.9632C13.4789 22.9632 13.2921 23.0174 13.1189 23.1259C12.9456 23.2328 12.801 23.3684 12.685 23.5326C12.569 23.6953 12.4967 23.861 12.4681 24.0297L12.4048 24.4274C12.3596 24.7151 12.3664 24.944 12.4252 25.1143C12.4854 25.2845 12.5901 25.4072 12.7392 25.4826C12.8884 25.5564 13.0752 25.5933 13.2996 25.5933C13.4427 25.5933 13.5745 25.5737 13.695 25.5345C13.8155 25.4939 13.9232 25.4336 14.0182 25.3538C14.1131 25.2724 14.1929 25.1715 14.2577 25.051L14.7457 25.1956C14.6629 25.3703 14.5461 25.524 14.3955 25.6565C14.2464 25.7876 14.0716 25.89 13.8713 25.9638C13.6724 26.0362 13.4548 26.0723 13.2183 26.0723ZM18.7988 22.5293L16.9369 26H16.3946L15.6896 22.5293H16.2455L16.7426 25.295H16.7788L18.1977 22.5293H18.7988ZM20.246 26.0723C19.9131 26.0723 19.6382 25.9985 19.4213 25.8509C19.2044 25.7017 19.053 25.4939 18.9671 25.2272C18.8813 24.9591 18.8677 24.6473 18.9264 24.2918C18.9852 23.9363 19.1019 23.623 19.2767 23.3518C19.4514 23.0792 19.6691 22.8668 19.9297 22.7146C20.1903 22.561 20.4765 22.4841 20.7883 22.4841C20.9691 22.4841 21.1431 22.5143 21.3103 22.5745C21.4775 22.6348 21.6221 22.7327 21.7441 22.8683C21.8661 23.0023 21.9512 23.1801 21.9994 23.4015C22.0476 23.623 22.0446 23.8956 21.9904 24.2195L21.9542 24.4454H19.2789L19.3512 23.9845H21.4843C21.5189 23.7887 21.5099 23.6139 21.4571 23.4603C21.4059 23.3066 21.3163 23.1854 21.1883 23.0965C21.0617 23.0076 20.9013 22.9632 20.707 22.9632C20.5066 22.9632 20.3198 23.0174 20.1466 23.1259C19.9734 23.2328 19.8288 23.3684 19.7128 23.5326C19.5968 23.6953 19.5245 23.861 19.4959 24.0297L19.4326 24.4274C19.3874 24.7151 19.3942 24.944 19.4529 25.1143C19.5132 25.2845 19.6179 25.4072 19.767 25.4826C19.9161 25.5564 20.1029 25.5933 20.3274 25.5933C20.4705 25.5933 20.6023 25.5737 20.7228 25.5345C20.8433 25.4939 20.951 25.4336 21.0459 25.3538C21.1408 25.2724 21.2206 25.1715 21.2854 25.051L21.7735 25.1956C21.6906 25.3703 21.5739 25.524 21.4232 25.6565C21.2741 25.7876 21.0994 25.89 20.899 25.9638C20.7002 26.0362 20.4825 26.0723 20.246 26.0723ZM23.8172 21.3724L23.049 26H22.5157L23.284 21.3724H23.8172ZM25.4582 26.0723C25.1389 26.0723 24.8715 25.9962 24.6561 25.8441C24.4407 25.6919 24.2885 25.4788 24.1997 25.2046C24.1123 24.9305 24.098 24.6111 24.1567 24.2466C24.214 23.8911 24.3277 23.5815 24.4979 23.3179C24.6697 23.0528 24.8828 22.8479 25.1374 22.7033C25.3935 22.5572 25.6751 22.4841 25.9824 22.4841C26.3018 22.4841 26.5684 22.561 26.7823 22.7146C26.9977 22.8668 27.1499 23.0807 27.2388 23.3563C27.3276 23.6305 27.3427 23.9513 27.2839 24.3189C27.2267 24.6714 27.1115 24.9794 26.9382 25.2431C26.7665 25.5052 26.5534 25.7093 26.2988 25.8554C26.0457 26 25.7655 26.0723 25.4582 26.0723ZM25.4673 25.5933C25.7113 25.5933 25.9229 25.5308 26.1022 25.4057C26.283 25.2807 26.4291 25.1158 26.5406 24.9109C26.6535 24.706 26.7296 24.4846 26.7688 24.2466C26.8049 24.0206 26.8034 23.8105 26.7642 23.6162C26.7251 23.4204 26.6415 23.2629 26.5134 23.1439C26.3854 23.0234 26.2054 22.9632 25.9734 22.9632C25.7294 22.9632 25.5162 23.0264 25.334 23.153C25.1532 23.2795 25.0071 23.446 24.8956 23.6523C24.7841 23.8587 24.7096 24.0809 24.6719 24.3189C24.6358 24.5449 24.6365 24.755 24.6742 24.9493C24.7133 25.1421 24.7969 25.298 24.925 25.417C25.0545 25.5345 25.2353 25.5933 25.4673 25.5933ZM27.6054 27.3015L28.4052 22.5293H28.9204L28.83 23.0807H28.8933C28.9415 23.0204 29.0078 22.9436 29.0921 22.8502C29.178 22.7553 29.2932 22.6709 29.4379 22.5971C29.584 22.5218 29.77 22.4841 29.996 22.4841C30.2882 22.4841 30.533 22.5572 30.7303 22.7033C30.9277 22.8494 31.067 23.0566 31.1483 23.3247C31.2297 23.5928 31.2402 23.9092 31.18 24.2737C31.1197 24.6413 31.0045 24.9599 30.8343 25.2295C30.664 25.4976 30.4562 25.7055 30.2106 25.8531C29.9651 25.9992 29.6977 26.0723 29.4085 26.0723C29.1855 26.0723 29.0131 26.0354 28.891 25.9616C28.769 25.8863 28.6802 25.8012 28.6244 25.7063C28.5687 25.6099 28.5258 25.53 28.4956 25.4667H28.4504L28.1431 27.3015H27.6054ZM28.6402 24.2647C28.5981 24.5268 28.5981 24.758 28.6402 24.9583C28.6839 25.1572 28.7705 25.3131 28.9001 25.4261C29.0311 25.5375 29.2036 25.5933 29.4175 25.5933C29.6405 25.5933 29.8355 25.5345 30.0027 25.417C30.1715 25.298 30.31 25.1384 30.4185 24.938C30.5285 24.7362 30.6045 24.5117 30.6467 24.2647C30.6859 24.0206 30.6844 23.8007 30.6422 23.6049C30.6 23.4075 30.5142 23.2516 30.3846 23.1372C30.2551 23.0212 30.0773 22.9632 29.8514 22.9632C29.6344 22.9632 29.4424 23.0182 29.2752 23.1281C29.1095 23.2366 28.9724 23.3887 28.8639 23.5845C28.757 23.7789 28.6824 24.0056 28.6402 24.2647ZM33.152 26.0723C32.8191 26.0723 32.5442 25.9985 32.3273 25.8509C32.1103 25.7017 31.9589 25.4939 31.8731 25.2272C31.7872 24.9591 31.7737 24.6473 31.8324 24.2918C31.8912 23.9363 32.0079 23.623 32.1826 23.3518C32.3574 23.0792 32.575 22.8668 32.8356 22.7146C33.0963 22.561 33.3825 22.4841 33.6943 22.4841C33.875 22.4841 34.049 22.5143 34.2162 22.5745C34.3834 22.6348 34.528 22.7327 34.6501 22.8683C34.7721 23.0023 34.8572 23.1801 34.9054 23.4015C34.9536 23.623 34.9506 23.8956 34.8964 24.2195L34.8602 24.4454H32.1849L32.2572 23.9845H34.3902C34.4249 23.7887 34.4158 23.6139 34.3631 23.4603C34.3119 23.3066 34.2223 23.1854 34.0942 23.0965C33.9677 23.0076 33.8073 22.9632 33.6129 22.9632C33.4126 22.9632 33.2258 23.0174 33.0526 23.1259C32.8793 23.2328 32.7347 23.3684 32.6187 23.5326C32.5027 23.6953 32.4304 23.861 32.4018 24.0297L32.3385 24.4274C32.2934 24.7151 32.3001 24.944 32.3589 25.1143C32.4191 25.2845 32.5238 25.4072 32.673 25.4826C32.8221 25.5564 33.0089 25.5933 33.2333 25.5933C33.3764 25.5933 33.5082 25.5737 33.6288 25.5345C33.7493 25.4939 33.857 25.4336 33.9519 25.3538C34.0468 25.2724 34.1266 25.1715 34.1914 25.051L34.6794 25.1956C34.5966 25.3703 34.4798 25.524 34.3292 25.6565C34.1801 25.7876 34.0053 25.89 33.805 25.9638C33.6062 26.0362 33.3885 26.0723 33.152 26.0723ZM36.7277 26.0723C36.437 26.0723 36.193 25.9992 35.9956 25.8531C35.7983 25.7055 35.659 25.4976 35.5776 25.2295C35.4978 24.9599 35.488 24.6413 35.5482 24.2737C35.61 23.9092 35.7252 23.5928 35.8939 23.3247C36.0642 23.0566 36.2728 22.8494 36.5198 22.7033C36.7669 22.5572 37.0365 22.4841 37.3288 22.4841C37.5547 22.4841 37.7272 22.5218 37.8462 22.5971C37.9667 22.6709 38.0541 22.7553 38.1083 22.8502C38.1625 22.9436 38.204 23.0204 38.2326 23.0807H38.2778L38.5625 21.3724H39.0957L38.3275 26H37.8123L37.9027 25.4667H37.8394C37.7897 25.53 37.7204 25.6099 37.6315 25.7063C37.5427 25.8012 37.4252 25.8863 37.279 25.9616C37.1344 26.0354 36.9507 26.0723 36.7277 26.0723ZM36.8588 25.5933C37.0727 25.5933 37.264 25.5375 37.4327 25.4261C37.6029 25.3131 37.7445 25.1572 37.8575 24.9583C37.9705 24.758 38.0488 24.5268 38.0925 24.2647C38.1362 24.0056 38.1347 23.7789 38.088 23.5845C38.0413 23.3887 37.9516 23.2366 37.8191 23.1281C37.6865 23.0182 37.511 22.9632 37.2926 22.9632C37.0682 22.9632 36.8731 23.0212 36.7074 23.1372C36.5417 23.2516 36.4069 23.4075 36.3029 23.6049C36.199 23.8007 36.1267 24.0206 36.086 24.2647C36.0453 24.5117 36.0446 24.7362 36.0837 24.938C36.1229 25.1384 36.2058 25.298 36.3323 25.417C36.4603 25.5345 36.6358 25.5933 36.8588 25.5933Z" fill="#141E46"/>
<path d="M43.4355 21.1594L44.6693 13.7273H47.2677C47.7854 13.7273 48.1979 13.8168 48.5051 13.9958C48.8124 14.1725 49.0229 14.4108 49.1366 14.7107C49.2503 15.0083 49.2757 15.3386 49.2128 15.7015C49.1596 16.0208 49.0592 16.2845 48.9116 16.4926C48.7664 16.7006 48.5922 16.8651 48.389 16.9861C48.1882 17.1071 47.9789 17.1966 47.7612 17.2547L47.7467 17.3272C47.9693 17.3417 48.1834 17.4216 48.389 17.5667C48.5947 17.7119 48.7531 17.92 48.8644 18.1909C48.9757 18.4619 48.9999 18.7933 48.937 19.1853C48.8741 19.5578 48.7326 19.8929 48.5124 20.1905C48.2922 20.4881 47.985 20.7239 47.5906 20.8981C47.1963 21.0723 46.7064 21.1594 46.1209 21.1594H43.4355ZM44.4661 20.3611H46.2516C46.8394 20.3611 47.2761 20.2473 47.5616 20.0199C47.8495 19.7901 48.0225 19.5119 48.0806 19.1853C48.1193 18.9337 48.0914 18.7014 47.9971 18.4885C47.9052 18.2732 47.7515 18.1014 47.5362 17.9732C47.3233 17.8425 47.0548 17.7772 46.7306 17.7772H44.9016L44.4661 20.3611ZM45.0322 16.9934H46.7015C46.9725 16.9934 47.2265 16.9401 47.4636 16.8337C47.7007 16.7272 47.8991 16.5772 48.0588 16.3837C48.2185 16.1902 48.3176 15.9627 48.3564 15.7015C48.4144 15.3748 48.3491 15.0978 48.1604 14.8704C47.9717 14.6406 47.6306 14.5257 47.137 14.5257H45.4387L45.0322 16.9934ZM50.1763 23.2497C50.0311 23.2497 49.9029 23.2376 49.7916 23.2134C49.6827 23.1916 49.6077 23.1699 49.5666 23.1481L49.915 22.3933C50.1134 22.4465 50.29 22.4622 50.4448 22.4404C50.6021 22.4211 50.7509 22.3449 50.8912 22.2118C51.0339 22.0812 51.1827 21.8755 51.3376 21.5949L51.5771 21.1594L50.4593 15.5853H51.3521L52.1504 20.0417H52.2085L54.4875 15.5853H55.4528L52.0343 21.9651C51.8746 22.2626 51.6992 22.5058 51.5081 22.6945C51.317 22.8832 51.1101 23.0223 50.8876 23.1118C50.665 23.2037 50.4279 23.2497 50.1763 23.2497Z" fill="#141E46"/>
<rect x="60.2031" y="7" width="22.93" height="22.93" rx="5.64693" fill="#141E46"/>
<path d="M64.0527 12.3047H72.5146V14.2507H65.9818V17.492H73.6816V17.4857C75.6121 17.4857 77.1873 15.9416 77.2589 14.0117C77.2606 13.9661 77.2614 13.9204 77.2614 13.8744C77.2614 13.8285 77.2606 13.7827 77.2589 13.7372V12.3047H78.9739L79.1968 12.3047C79.1968 12.3047 79.1968 13.8446 79.1968 13.8731V13.8754C79.1965 15.5695 78.4444 17.0874 77.2589 18.1079C77.1115 18.2348 76.9574 18.3541 76.7971 18.465C76.9574 18.5759 77.1115 18.6951 77.2589 18.822C78.4444 19.8425 79.1965 21.3605 79.1968 23.0546V23.0565C79.1968 23.0569 79.1968 23.0574 79.1968 23.0579V24.6253H77.2589V23.1927C77.2606 23.1472 77.2614 23.1015 77.2614 23.0555C77.2614 23.0096 77.2606 22.9638 77.2589 22.9183C77.1873 20.9884 75.6121 19.4443 73.6816 19.4443L73.6816 19.438L65.9818 19.438V22.6793H72.5146V24.6253H64.0527V22.6793L64.0527 14.2507V12.3047Z" fill="#FFFFFF"/>
</svg>
