<svg width="20" height="20" viewBox="0 0 20 20" fill="none" xmlns="http://www.w3.org/2000/svg">
<path d="M8 8C7.5 7 5.5 7 5 8M15 8C14.5 7 12.5 7 12 8M12.5 13C12.1741 13.3326 11.7852 13.5968 11.3559 13.7772C10.9266 13.9576 10.4656 14.0505 10 14.0505C9.53436 14.0505 9.07341 13.9576 8.64413 13.7772C8.21485 13.5968 7.82588 13.3326 7.5 13M10 19C8.8181 19 7.64778 18.7672 6.55585 18.3149C5.46392 17.8626 4.47177 17.1997 3.63604 16.364C2.80031 15.5282 2.13738 14.5361 1.68508 13.4442C1.23279 12.3522 1 11.1819 1 10C1 8.8181 1.23279 7.64778 1.68508 6.55585C2.13738 5.46392 2.80031 4.47177 3.63604 3.63604C4.47177 2.80031 5.46392 2.13738 6.55585 1.68508C7.64778 1.23279 8.8181 1 10 1C12.3869 1 14.6761 1.94821 16.364 3.63604C18.0518 5.32387 19 7.61305 19 10C19 12.3869 18.0518 14.6761 16.364 16.364C14.6761 18.0518 12.3869 19 10 19Z" stroke="#354052" stroke-width="2" stroke-linecap="round" stroke-linejoin="round"/>
</svg>
