<svg width="212" height="26" viewBox="0 0 212 26" fill="none" xmlns="http://www.w3.org/2000/svg">
<path d="M112.922 18.578H100.796C100.873 19.7024 101.387 20.6136 102.337 21.3115C103.287 21.99 104.373 22.3292 105.594 22.3292C107.533 22.3292 109.006 21.7186 110.014 20.4972L111.875 22.5328C110.208 24.2581 108.037 25.1208 105.361 25.1208C103.19 25.1208 101.339 24.4035 99.8072 22.969C98.2951 21.515 97.5391 19.5764 97.5391 17.1532C97.5391 14.7105 98.3145 12.7719 99.8654 11.3374C101.416 9.90283 103.239 9.18555 105.332 9.18555C107.445 9.18555 109.238 9.82528 110.712 11.1048C112.185 12.3648 112.922 14.1096 112.922 16.339V18.578ZM100.796 16.0191H109.665C109.665 14.7202 109.258 13.7219 108.444 13.024C107.629 12.3261 106.621 11.9771 105.419 11.9771C104.237 11.9771 103.171 12.3455 102.221 13.0821C101.271 13.7994 100.796 14.7784 100.796 16.0191Z" fill="#FFF5E0"/>
<path d="M122.348 24.8882L116.125 9.41818H119.498L124.209 21.1079L128.92 9.41818H132.293L126.07 24.8882H122.348Z" fill="#FFF5E0"/>
<path d="M139.89 24.8882H136.634V9.41821H139.89V24.8882Z" fill="#FFF5E0"/>
<path d="M160.752 18.578H148.626C148.704 19.7024 149.217 20.6136 150.167 21.3115C151.117 21.99 152.203 22.3292 153.424 22.3292C155.363 22.3292 156.836 21.7186 157.844 20.4972L159.705 22.5328C158.038 24.2581 155.867 25.1208 153.192 25.1208C151.02 25.1208 149.169 24.4035 147.637 22.969C146.125 21.515 145.369 19.5764 145.369 17.1532C145.369 14.7105 146.145 12.7719 147.696 11.3374C149.247 9.90283 151.069 9.18555 153.162 9.18555C155.276 9.18555 157.069 9.82528 158.542 11.1048C160.015 12.3648 160.752 14.1096 160.752 16.339V18.578ZM148.626 16.0191H157.495C157.495 14.7202 157.088 13.7219 156.274 13.024C155.46 12.3261 154.452 11.9771 153.25 11.9771C152.067 11.9771 151.001 12.3455 150.051 13.0821C149.101 13.7994 148.626 14.7784 148.626 16.0191Z" fill="#FFF5E0"/>
<path d="M173.319 24.8882H169.597L164.246 9.41818H167.619L171.458 21.1079L175.296 9.41818H178.669L182.508 21.1079L186.346 9.41818H189.719L184.369 24.8882H180.647L176.983 14.3034L173.319 24.8882Z" fill="#FFF5E0"/>
<path d="M205.367 20.2646C205.367 21.7379 204.834 22.9205 203.768 23.8122C202.702 24.6846 201.335 25.1208 199.668 25.1208C198.543 25.1208 197.37 24.9172 196.149 24.5101C194.947 24.103 193.881 23.5311 192.95 22.7945L194.521 20.2646C196.324 21.6216 198.068 22.3001 199.755 22.3001C200.492 22.3001 201.073 22.1354 201.5 21.8058C201.926 21.4568 202.139 21.0207 202.139 20.4972C202.139 19.7218 201.112 19.0239 199.057 18.4036C198.902 18.3454 198.786 18.3066 198.708 18.2872C195.49 17.4149 193.881 15.9609 193.881 13.9254C193.881 12.4909 194.433 11.3471 195.538 10.4941C196.663 9.62173 198.117 9.18555 199.9 9.18555C201.684 9.18555 203.37 9.70897 204.96 10.7558L203.739 13.1694C202.479 12.3358 201.112 11.919 199.639 11.919C198.863 11.919 198.233 12.0644 197.748 12.3551C197.264 12.6266 197.021 13.0433 197.021 13.6055C197.021 14.1096 197.273 14.4779 197.777 14.7105C198.126 14.885 198.611 15.0498 199.231 15.2049C199.871 15.36 200.433 15.5151 200.918 15.6701C201.403 15.8252 201.868 15.9997 202.314 16.1936C202.779 16.3874 203.273 16.6588 203.797 17.0078C204.844 17.7057 205.367 18.7913 205.367 20.2646Z" fill="#FFF5E0"/>
<path d="M112.922 18.578H100.796C100.873 19.7024 101.387 20.6136 102.337 21.3115C103.287 21.99 104.373 22.3292 105.594 22.3292C107.533 22.3292 109.006 21.7186 110.014 20.4972L111.875 22.5328C110.208 24.2581 108.037 25.1208 105.361 25.1208C103.19 25.1208 101.339 24.4035 99.8072 22.969C98.2951 21.515 97.5391 19.5764 97.5391 17.1532C97.5391 14.7105 98.3145 12.7719 99.8654 11.3374C101.416 9.90283 103.239 9.18555 105.332 9.18555C107.445 9.18555 109.238 9.82528 110.712 11.1048C112.185 12.3648 112.922 14.1096 112.922 16.339V18.578ZM100.796 16.0191H109.665C109.665 14.7202 109.258 13.7219 108.444 13.024C107.629 12.3261 106.621 11.9771 105.419 11.9771C104.237 11.9771 103.171 12.3455 102.221 13.0821C101.271 13.7994 100.796 14.7784 100.796 16.0191Z" fill="#FFF5E0"/>
<path d="M122.348 24.8882L116.125 9.41818H119.498L124.209 21.1079L128.92 9.41818H132.293L126.07 24.8882H122.348Z" fill="#FFF5E0"/>
<path d="M139.89 24.8882H136.634V9.41821H139.89V24.8882Z" fill="#FFF5E0"/>
<path d="M160.752 18.578H148.626C148.704 19.7024 149.217 20.6136 150.167 21.3115C151.117 21.99 152.203 22.3292 153.424 22.3292C155.363 22.3292 156.836 21.7186 157.844 20.4972L159.705 22.5328C158.038 24.2581 155.867 25.1208 153.192 25.1208C151.02 25.1208 149.169 24.4035 147.637 22.969C146.125 21.515 145.369 19.5764 145.369 17.1532C145.369 14.7105 146.145 12.7719 147.696 11.3374C149.247 9.90283 151.069 9.18555 153.162 9.18555C155.276 9.18555 157.069 9.82528 158.542 11.1048C160.015 12.3648 160.752 14.1096 160.752 16.339V18.578ZM148.626 16.0191H157.495C157.495 14.7202 157.088 13.7219 156.274 13.024C155.46 12.3261 154.452 11.9771 153.25 11.9771C152.067 11.9771 151.001 12.3455 150.051 13.0821C149.101 13.7994 148.626 14.7784 148.626 16.0191Z" fill="#FFF5E0"/>
<path d="M173.319 24.8882H169.597L164.246 9.41818H167.619L171.458 21.1079L175.296 9.41818H178.669L182.508 21.1079L186.346 9.41818H189.719L184.369 24.8882H180.647L176.983 14.3034L173.319 24.8882Z" fill="#FFF5E0"/>
<path d="M205.367 20.2646C205.367 21.7379 204.834 22.9205 203.768 23.8122C202.702 24.6846 201.335 25.1208 199.668 25.1208C198.543 25.1208 197.37 24.9172 196.149 24.5101C194.947 24.103 193.881 23.5311 192.95 22.7945L194.521 20.2646C196.324 21.6216 198.068 22.3001 199.755 22.3001C200.492 22.3001 201.073 22.1354 201.5 21.8058C201.926 21.4568 202.139 21.0207 202.139 20.4972C202.139 19.7218 201.112 19.0239 199.057 18.4036C198.902 18.3454 198.786 18.3066 198.708 18.2872C195.49 17.4149 193.881 15.9609 193.881 13.9254C193.881 12.4909 194.433 11.3471 195.538 10.4941C196.663 9.62173 198.117 9.18555 199.9 9.18555C201.684 9.18555 203.37 9.70897 204.96 10.7558L203.739 13.1694C202.479 12.3358 201.112 11.919 199.639 11.919C198.863 11.919 198.233 12.0644 197.748 12.3551C197.264 12.6266 197.021 13.0433 197.021 13.6055C197.021 14.1096 197.273 14.4779 197.777 14.7105C198.126 14.885 198.611 15.0498 199.231 15.2049C199.871 15.36 200.433 15.5151 200.918 15.6701C201.403 15.8252 201.868 15.9997 202.314 16.1936C202.779 16.3874 203.273 16.6588 203.797 17.0078C204.844 17.7057 205.367 18.7913 205.367 20.2646Z" fill="#FFF5E0"/>
<path d="M207.77 23.0636C207.77 23.6258 207.973 24.1105 208.38 24.5176C208.787 24.9247 209.272 25.1282 209.834 25.1282C210.396 25.1282 210.881 24.9247 211.288 24.5176C211.695 24.1105 211.899 23.6258 211.899 23.0636C211.899 22.5014 211.695 22.0168 211.288 21.6097C210.881 21.2026 210.396 20.999 209.834 20.999C209.272 20.999 208.787 21.2026 208.38 21.6097C207.973 22.0168 207.77 22.5014 207.77 23.0636Z" fill="#FFF5E0"/>
<path d="M0.400391 24.8569V4.53076H3.8317V21.6001H13.1079V24.8569H0.400391Z" fill="#FFF5E0"/>
<path d="M32.5444 18.5468H20.4185C20.496 19.6712 21.0098 20.5823 21.9597 21.2802C22.9096 21.9587 23.9952 22.298 25.2165 22.298C27.1551 22.298 28.6284 21.6873 29.6365 20.466L31.4976 22.5015C29.8304 24.2269 27.6591 25.0896 24.9839 25.0896C22.8127 25.0896 20.9613 24.3723 19.4298 22.9377C17.9177 21.4838 17.1617 19.5452 17.1617 17.1219C17.1617 14.6793 17.9371 12.7407 19.488 11.3062C21.0388 9.87159 22.8611 9.15431 24.9548 9.15431C27.0679 9.15431 28.8611 9.79405 30.3344 11.0735C31.8077 12.3336 32.5444 14.0783 32.5444 16.3077V18.5468ZM20.4185 15.9879H29.2876C29.2876 14.689 28.8805 13.6906 28.0662 12.9927C27.252 12.2948 26.244 11.9459 25.042 11.9459C23.8595 11.9459 22.7933 12.3142 21.8434 13.0509C20.8935 13.7682 20.4185 14.7472 20.4185 15.9879Z" fill="#FFF5E0"/>
<path d="M52.2647 18.5468H40.1388C40.2163 19.6712 40.73 20.5823 41.68 21.2802C42.6299 21.9587 43.7155 22.298 44.9368 22.298C46.8754 22.298 48.3487 21.6873 49.3568 20.466L51.2178 22.5015C49.5506 24.2269 47.3794 25.0896 44.7042 25.0896C42.5329 25.0896 40.6816 24.3723 39.1501 22.9377C37.638 21.4838 36.8819 19.5452 36.8819 17.1219C36.8819 14.6793 37.6574 12.7407 39.2082 11.3062C40.7591 9.87159 42.5814 9.15431 44.6751 9.15431C46.7881 9.15431 48.5813 9.79405 50.0547 11.0735C51.528 12.3336 52.2647 14.0783 52.2647 16.3077V18.5468ZM40.1388 15.9879H49.0078C49.0078 14.689 48.6007 13.6906 47.7865 12.9927C46.9723 12.2948 45.9642 11.9459 44.7623 11.9459C43.5798 11.9459 42.5135 12.3142 41.5636 13.0509C40.6137 13.7682 40.1388 14.7472 40.1388 15.9879Z" fill="#FFF5E0"/>
<path d="M61.6038 12.004V19.8554C61.6038 20.592 61.7976 21.1833 62.1853 21.6292C62.5731 22.0557 63.1159 22.2689 63.8138 22.2689C64.5117 22.2689 65.1805 21.9296 65.8202 21.2511L67.1578 23.5484C66.0141 24.5758 64.7443 25.0896 63.3485 25.0896C61.9721 25.0896 60.7896 24.6146 59.8009 23.6647C58.8316 22.6954 58.3469 21.3965 58.3469 19.7681V12.004H56.3986V9.38694H58.3469V4.53076H61.6038V9.38694H65.6748V12.004H61.6038Z" fill="#FFF5E0"/>
<path d="M71.7539 0.723633H84.1572C86.0294 0.723633 87.652 0.921254 89.025 1.3165C90.3979 1.70134 91.5368 2.263 92.4417 3.00148C93.3466 3.73996 94.0175 4.63965 94.4543 5.70057C94.9016 6.76148 95.1252 7.96281 95.1252 9.30455C95.1252 10.2095 95.016 11.0727 94.7976 11.8944C94.5792 12.7057 94.2411 13.4546 93.7835 14.1411C93.3362 14.8275 92.7694 15.4412 92.0829 15.9821C91.3964 16.5125 90.5903 16.9546 89.6646 17.3082L94.9692 25.1091H88.9158L84.3289 18.1819H84.1884L76.6996 18.1663H71.7539L71.7539 0.723633ZM84.2821 13.8914C85.2182 13.8914 86.0346 13.7822 86.7315 13.5638C87.4388 13.3454 88.0265 13.0386 88.4945 12.6433C88.973 12.2481 89.3266 11.7696 89.5554 11.208C89.7946 10.6359 89.9143 10.0014 89.9143 9.30455C89.9143 7.94201 89.4462 6.8915 88.5101 6.15302C87.574 5.40414 86.1647 5.0297 84.2821 5.0297H76.6996V13.8914H84.2821Z" fill="#41B06E"/>
<path d="M71.7589 21.8018L71.7589 18.162L76.4629 18.1407L71.7589 21.8018Z" fill="#41B06E"/>
<rect x="72.0293" y="4.98682" width="22.8174" height="9.02479" rx="4.5124" fill="#41B06E"/>
<circle cx="77.6571" cy="9.50862" r="1.82893" fill="#FFF5E0"/>
<circle cx="83.3211" cy="9.50862" r="1.82893" fill="#FFF5E0"/>
<circle cx="88.9754" cy="9.50862" r="1.82893" fill="#FFF5E0"/>
</svg>
