<svg width="20" height="20" viewBox="0 0 20 20" fill="none" xmlns="http://www.w3.org/2000/svg">
<path d="M7.17157 8.58589H11.4142V12.8285M3.63604 16.3641C4.47177 17.1998 5.46392 17.8627 6.55585 18.315C7.64778 18.7673 8.8181 19.0001 10 19.0001C11.1819 19.0001 12.3522 18.7673 13.4442 18.315C14.5361 17.8627 15.5282 17.1998 16.364 16.3641C17.1997 15.5283 17.8626 14.5362 18.3149 13.4443C18.7672 12.3523 19 11.182 19 10.0001C19 8.81821 18.7672 7.64788 18.3149 6.55595C17.8626 5.46402 17.1997 4.47187 16.364 3.63614C14.6761 1.94832 12.3869 1.00011 10 1.00011C7.61305 1.00011 5.32387 1.94832 3.63604 3.63614C1.94821 5.32397 1 7.61316 1 10.0001C1 12.3871 1.94821 14.6762 3.63604 16.3641Z" stroke="#FFFFFF" stroke-width="2" stroke-linecap="round" stroke-linejoin="round"/>
</svg>
