<svg width="57" height="58" viewBox="0 0 57 58" fill="none" xmlns="http://www.w3.org/2000/svg">
<path d="M23.7358 28.9978C23.7358 30.256 24.2356 31.4627 25.1253 32.3523C26.0149 33.242 27.2216 33.7418 28.4798 33.7418C29.738 33.7418 30.9446 33.242 31.8343 32.3523C32.724 31.4627 33.2238 30.256 33.2238 28.9978C33.2238 27.7396 32.724 26.533 31.8343 25.6433C30.9446 24.7537 29.738 24.2538 28.4798 24.2538C27.2216 24.2538 26.0149 24.7537 25.1253 25.6433C24.2356 26.533 23.7358 27.7396 23.7358 28.9978Z" stroke="#141e46" stroke-width="4.69655" stroke-linecap="round" stroke-linejoin="round"/>
<path d="M49.8277 28.9978C44.1349 38.4858 37.019 43.2298 28.4798 43.2298C19.9406 43.2298 12.8246 38.4858 7.13184 28.9978C12.8246 19.5099 19.9406 14.7659 28.4798 14.7659C37.019 14.7659 44.1349 19.5099 49.8277 28.9978Z" stroke="#141e46" stroke-width="4.69655" stroke-linecap="round" stroke-linejoin="round"/>
</svg>
