<svg width="1011" height="1011" viewBox="0 0 1011 1011" fill="none" xmlns="http://www.w3.org/2000/svg">
<g clip-path="url(#clip0_997_9)">
<path fill-rule="evenodd" clip-rule="evenodd" d="M505.5 902.679C610.838 902.679 711.862 860.833 786.348 786.348C860.833 711.862 902.679 610.838 902.679 505.5C902.679 400.162 860.833 299.138 786.348 224.652C711.862 150.167 610.838 108.321 505.5 108.321C400.162 108.321 299.138 150.167 224.652 224.652C150.167 299.138 108.321 400.162 108.321 505.5C108.321 610.838 150.167 711.862 224.652 786.348C299.138 860.833 400.162 902.679 505.5 902.679ZM505.5 1011C639.567 1011 768.143 957.742 862.942 862.942C957.742 768.143 1011 639.567 1011 505.5C1011 371.433 957.742 242.857 862.942 148.058C768.143 53.2579 639.567 0 505.5 0C371.433 0 242.857 53.2579 148.058 148.058C53.2579 242.857 0 371.433 0 505.5C0 639.567 53.2579 768.143 148.058 862.942C242.857 957.742 371.433 1011 505.5 1011ZM270.804 595.768C270.804 581.404 276.51 567.628 286.667 557.47C296.824 547.313 310.6 541.607 324.964 541.607H686.036C700.4 541.607 714.176 547.313 724.333 557.47C734.49 567.628 740.196 581.404 740.196 595.768C740.196 645.307 709.144 691.019 669.86 721.854C628.698 754.134 571.793 776.304 505.5 776.304C439.207 776.304 382.302 754.134 341.14 721.854C301.928 691.019 270.804 645.307 270.804 595.768ZM649.929 469.393C635.564 469.393 621.788 463.687 611.631 453.53C601.474 443.372 595.768 429.596 595.768 415.232V343.018C595.768 328.654 601.474 314.878 611.631 304.72C621.788 294.563 635.564 288.857 649.929 288.857C664.293 288.857 678.069 294.563 688.226 304.72C698.383 314.878 704.089 328.654 704.089 343.018V415.232C704.089 429.596 698.383 443.372 688.226 453.53C678.069 463.687 664.293 469.393 649.929 469.393ZM306.911 415.232C306.911 429.596 312.617 443.372 322.774 453.53C332.931 463.687 346.707 469.393 361.071 469.393C375.436 469.393 389.212 463.687 399.369 453.53C409.526 443.372 415.232 429.596 415.232 415.232V343.018C415.232 328.654 409.526 314.878 399.369 304.72C389.212 294.563 375.436 288.857 361.071 288.857C346.707 288.857 332.931 294.563 322.774 304.72C312.617 314.878 306.911 328.654 306.911 343.018V415.232Z" fill="#00224D"/>
</g>
<defs>
<clipPath id="clip0_997_9">
<rect width="1011" height="1011" fill="white"/>
</clipPath>
</defs>
</svg>
