<svg width="20" height="20" viewBox="0 0 20 20" fill="none" xmlns="http://www.w3.org/2000/svg">
<path d="M7 7H7.01M13 7H13.01M1 10C1 11.1819 1.23279 12.3522 1.68508 13.4442C2.13738 14.5361 2.80031 15.5282 3.63604 16.364C4.47177 17.1997 5.46392 17.8626 6.55585 18.3149C7.64778 18.7672 8.8181 19 10 19C11.1819 19 12.3522 18.7672 13.4442 18.3149C14.5361 17.8626 15.5282 17.1997 16.364 16.364C17.1997 15.5282 17.8626 14.5361 18.3149 13.4442C18.7672 12.3522 19 11.1819 19 10C19 8.8181 18.7672 7.64778 18.3149 6.55585C17.8626 5.46392 17.1997 4.47177 16.364 3.63604C15.5282 2.80031 14.5361 2.13738 13.4442 1.68508C12.3522 1.23279 11.1819 1 10 1C8.8181 1 7.64778 1.23279 6.55585 1.68508C5.46392 2.13738 4.47177 2.80031 3.63604 3.63604C2.80031 4.47177 2.13738 5.46392 1.68508 6.55585C1.23279 7.64778 1 8.8181 1 10ZM6 11C6 12.0609 6.42143 13.0783 7.17157 13.8284C7.92172 14.5786 8.93913 15 10 15C11.0609 15 12.0783 14.5786 12.8284 13.8284C13.5786 13.0783 14 12.0609 14 11H6Z" stroke="#FFFFFF" stroke-width="2" stroke-linecap="round" stroke-linejoin="round"/>
</svg>
