<svg width="43" height="43" viewBox="0 0 43 43" fill="none" xmlns="http://www.w3.org/2000/svg">
<rect width="43" height="43" rx="12" fill="#FFFFFF"/>
<path d="M17.3475 33L25.6525 33M17.3475 28.9058L25.6525 28.9058M17.3475 20.7174L12.3839 20.7174C12.1102 20.7173 11.8426 20.6372 11.615 20.4873C11.3875 20.3373 11.2101 20.1242 11.1053 19.8748C11.0006 19.6255 10.9732 19.3511 11.0266 19.0864C11.08 18.8218 11.2117 18.5786 11.4053 18.3877L20.5214 9.39958C20.781 9.14373 21.133 9 21.5 9C21.867 9 22.219 9.14373 22.4786 9.39958L31.5947 18.3877C31.7883 18.5786 31.92 18.8218 31.9734 19.0864C32.0268 19.3511 31.9994 19.6255 31.8947 19.8748C31.7899 20.1242 31.6125 20.3373 31.385 20.4873C31.1574 20.6372 30.8898 20.7173 30.6161 20.7174L25.6525 20.7174L25.6525 24.8116L17.3475 24.8116L17.3475 20.7174Z" stroke="#141E46" stroke-width="2" stroke-linecap="round" stroke-linejoin="round"/>
</svg>
