<svg width="35" height="28" viewBox="0 0 35 28" fill="none" xmlns="http://www.w3.org/2000/svg">
<g clip-path="url(#clip0_1803_467)">
<path d="M28.0696 25.8501C23.0696 17.5201 17.9196 9.28015 12.6196 1.14015C12.1196 0.380149 13.0496 0.0401489 13.6696 0.000148822C14.4996 -0.0398513 15.7396 0.310149 16.2196 1.05015C21.5196 9.20015 26.6696 17.4401 31.6696 25.7701C32.5896 27.3101 28.7296 26.9401 28.0696 25.8501Z" fill="#FFF5E0"/>
<path d="M28.4393 9.67007L2.68927 11.5101C1.87927 11.5701 0.569268 11.2101 0.139267 10.4601C-0.320732 9.66007 0.539267 9.37007 1.18927 9.32007L26.9393 7.48007C27.7493 7.42007 29.0593 7.78007 29.4893 8.53007C29.9493 9.33007 29.0893 9.62007 28.4393 9.67007Z" fill="#FFF5E0"/>
<path d="M33.6901 19.34C25.3301 20.23 16.9701 21.2 8.63006 22.24C7.72006 22.35 6.59006 22.18 5.90006 21.51C5.37006 21 5.40006 20.25 6.27006 20.14C14.9001 19.06 23.5501 18.07 32.2001 17.14C33.0001 17.06 34.3301 17.46 34.7501 18.19C35.2201 19 34.3401 19.26 33.7001 19.33L33.6901 19.34Z" fill="#FFF5E0"/>
<path d="M5.75953 2.50009C11.1395 10.2501 16.2595 18.1801 21.0895 26.2801C22.0095 27.8201 18.1495 27.4601 17.4895 26.3601C12.6495 18.2601 7.53953 10.3301 2.15953 2.58009C1.63953 1.83009 2.60953 1.47009 3.20953 1.44009C4.05953 1.40009 5.24953 1.75009 5.75953 2.49009L5.75953 2.50009Z" fill="#FFF5E0"/>
</g>
<defs>
<clipPath id="clip0_1803_467">
<rect width="34.87" height="27.31" fill="white" transform="matrix(-1 8.74228e-08 8.74228e-08 1 34.8691 0)"/>
</clipPath>
</defs>
</svg>
