<svg width="170" height="170" viewBox="0 0 170 170" fill="none" xmlns="http://www.w3.org/2000/svg">
<path d="M138.125 89.0516L85.0003 141.667L31.8753 89.0516C28.3712 85.6418 25.6111 81.5433 23.7687 77.0144C21.9264 72.4855 21.0417 67.6241 21.1705 62.7365C21.2992 57.8489 22.4386 53.0409 24.5168 48.6152C26.595 44.1896 29.5671 40.2421 33.2458 37.0215C36.9245 33.8009 41.2303 31.3769 45.8918 29.9021C50.5534 28.4273 55.4699 27.9336 60.3316 28.4523C65.1934 28.9709 69.895 30.4905 74.1406 32.9155C78.3862 35.3405 82.0837 38.6182 85.0003 42.5424C87.9295 38.6467 91.6312 35.3976 95.8739 32.9984C100.117 30.5991 104.809 29.1014 109.657 28.599C114.505 28.0966 119.405 28.6003 124.049 30.0785C128.694 31.5568 132.983 33.9778 136.649 37.19C140.315 40.4022 143.278 44.3365 145.353 48.7466C147.429 53.1568 148.571 57.9478 148.71 62.8199C148.849 67.692 147.98 72.5403 146.159 77.0613C144.337 81.5823 141.603 85.6787 138.125 89.0941" stroke="#354052" stroke-width="10" stroke-linecap="round" stroke-linejoin="round"/>
</svg>
