<svg width="171" height="170" viewBox="0 0 171 170" fill="none" xmlns="http://www.w3.org/2000/svg">
<path d="M138.579 89.0516L85.4539 141.667L32.3289 89.0516C28.8248 85.6418 26.0647 81.5433 24.2223 77.0144C22.38 72.4855 21.4954 67.6241 21.6241 62.7365C21.7528 57.8489 22.8922 53.0409 24.9704 48.6152C27.0486 44.1896 30.0207 40.2421 33.6994 37.0215C37.3781 33.8009 41.6839 31.3769 46.3455 29.9021C51.007 28.4273 55.9235 27.9336 60.7852 28.4523C65.647 28.9709 70.3487 30.4905 74.5942 32.9155C78.8398 35.3405 82.5373 38.6182 85.4539 42.5424C88.3831 38.6467 92.0848 35.3976 96.3275 32.9984C100.57 30.5991 105.262 29.1014 110.11 28.599C114.959 28.0966 119.858 28.6003 124.503 30.0785C129.147 31.5568 133.437 33.9778 137.102 37.19C140.768 40.4022 143.731 44.3365 145.807 48.7466C147.882 53.1568 149.025 57.9478 149.164 62.8199C149.302 67.692 148.434 72.5403 146.612 77.0613C144.791 81.5823 142.056 85.6787 138.579 89.0941" fill="#141E46"/>
<path d="M138.579 89.0516L85.4539 141.667L32.3289 89.0516C28.8248 85.6418 26.0647 81.5433 24.2223 77.0144C22.38 72.4855 21.4954 67.6241 21.6241 62.7365C21.7528 57.8489 22.8922 53.0409 24.9704 48.6152C27.0486 44.1896 30.0207 40.2421 33.6994 37.0215C37.3781 33.8009 41.6839 31.3769 46.3455 29.9021C51.007 28.4273 55.9235 27.9336 60.7852 28.4523C65.647 28.9709 70.3487 30.4905 74.5942 32.9155C78.8398 35.3405 82.5373 38.6182 85.4539 42.5424C88.3831 38.6467 92.0848 35.3976 96.3275 32.9984C100.57 30.5991 105.262 29.1014 110.11 28.599C114.959 28.0966 119.858 28.6003 124.503 30.0785C129.147 31.5568 133.437 33.9778 137.102 37.19C140.768 40.4022 143.731 44.3365 145.807 48.7466C147.882 53.1568 149.025 57.9478 149.164 62.8199C149.302 67.692 148.434 72.5403 146.612 77.0613C144.791 81.5823 142.056 85.6787 138.579 89.0941" stroke="#141E46" stroke-width="7" stroke-linecap="round" stroke-linejoin="round"/>
</svg>
