<svg width="170" height="170" viewBox="0 0 170 170" fill="#FFF5E0" xmlns="http://www.w3.org/2000/svg">
<path d="M138.125 89.0516L84.9998 141.667L31.8748 89.0516C28.3707 85.6418 25.6106 81.5433 23.7682 77.0144C21.9259 72.4855 21.0413 67.6241 21.17 62.7365C21.2987 57.8489 22.4381 53.0409 24.5163 48.6152C26.5945 44.1896 29.5666 40.2421 33.2453 37.0215C36.924 33.8009 41.2298 31.3769 45.8914 29.9021C50.5529 28.4273 55.4694 27.9336 60.3311 28.4523C65.1929 28.9709 69.8946 30.4905 74.1401 32.9155C78.3857 35.3405 82.0832 38.6182 84.9998 42.5424C87.929 38.6467 91.6307 35.3976 95.8734 32.9984C100.116 30.5991 104.808 29.1014 109.656 28.599C114.504 28.0966 119.404 28.6003 124.049 30.0785C128.693 31.5568 132.982 33.9778 136.648 37.19C140.314 40.4022 143.277 44.3365 145.353 48.7466C147.428 53.1568 148.571 57.9478 148.709 62.8199C148.848 67.692 147.98 72.5403 146.158 77.0613C144.337 81.5823 141.602 85.6787 138.125 89.0941" stroke="#141E46" stroke-width="7" stroke-linecap="round" stroke-linejoin="round"/>
</svg>
