<svg width="60" height="60" viewBox="0 0 121 121" fill="none" xmlns="http://www.w3.org/2000/svg">
<path d="M110.038 37.3609L72.2621 7.9792C68.947 5.40021 64.8668 4 60.6667 4C56.4666 4 52.3863 5.40021 49.0713 7.9792L11.2888 37.3609C9.01814 39.1266 7.18108 41.3879 5.91785 43.9721C4.65462 46.5562 3.99864 49.3949 4 52.2713V103.271C4 107.029 5.49256 110.632 8.14932 113.289C10.8061 115.945 14.4094 117.438 18.1667 117.438H103.167C106.924 117.438 110.527 115.945 113.184 113.289C115.841 110.632 117.333 107.029 117.333 103.271V52.2713C117.333 46.4417 114.642 40.9379 110.038 37.3609Z" fill="#FFF5E0"/>
<path d="M88.7873 81.915C73.1331 91.3571 47.7606 91.3571 32.1206 81.915Z" fill="#FFF5E0"/>
<path d="M88.7873 81.915C73.1331 91.3571 47.7606 91.3571 32.1206 81.915M110.038 37.3609L72.2621 7.9792C68.947 5.40021 64.8668 4 60.6667 4C56.4666 4 52.3863 5.40021 49.0713 7.9792L11.2888 37.3609C9.01814 39.1266 7.18108 41.3879 5.91785 43.9721C4.65462 46.5562 3.99864 49.3949 4 52.2713V103.271C4 107.029 5.49256 110.632 8.14932 113.289C10.8061 115.945 14.4094 117.438 18.1667 117.438H103.167C106.924 117.438 110.527 115.945 113.184 113.289C115.841 110.632 117.333 107.029 117.333 103.271V52.2713C117.333 46.4417 114.642 40.9379 110.038 37.3609Z" stroke="#354052" stroke-width="7" stroke-linecap="round" stroke-linejoin="round"/>
</svg>
