<svg width="170" height="170" viewBox="0 0 170 170" fill="#FFF5E0" xmlns="http://www.w3.org/2000/svg">
<path d="M113.333 106.25C97.6793 115.692 72.3068 115.692 56.6668 106.25M134.584 61.6958L96.8082 32.3142C93.4932 29.7352 89.4129 28.335 85.2128 28.335C81.0127 28.335 76.9325 29.7352 73.6174 32.3142L35.8349 61.6958C33.5643 63.4616 31.7272 65.7229 30.464 68.307C29.2008 70.8912 28.5448 73.7299 28.5461 76.6062V127.606C28.5461 131.363 30.0387 134.967 32.6955 137.624C35.3522 140.28 38.9556 141.773 42.7128 141.773H127.713C131.47 141.773 135.073 140.28 137.73 137.624C140.387 134.967 141.879 131.363 141.879 127.606V76.6062C141.879 70.7767 139.188 65.2729 134.584 61.6958Z" stroke="#141E46" stroke-width="7" stroke-linecap="round" stroke-linejoin="round"/>
</svg>
