<svg width="121" height="121" viewBox="0 0 121 121" fill="none" xmlns="http://www.w3.org/2000/svg">
<path d="M110.038 37.3609L72.2621 7.9792C68.947 5.40021 64.8668 4 60.6667 4C56.4666 4 52.3863 5.40021 49.0713 7.9792L11.2888 37.3609C9.01814 39.1266 7.18108 41.3879 5.91785 43.9721C4.65462 46.5562 3.99864 49.3949 4 52.2713V103.271C4 107.029 5.49256 110.632 8.14932 113.289C10.8061 115.945 14.4094 117.438 18.1667 117.438H103.167C106.924 117.438 110.527 115.945 113.184 113.289C115.841 110.632 117.333 107.029 117.333 103.271V52.2713C117.333 46.4417 114.642 40.9379 110.038 37.3609Z" fill="#354052"/>
<path d="M88.7873 81.915C73.1331 91.3571 47.7606 91.3571 32.1206 81.915Z" fill="#354052"/>
<path d="M88.7873 81.915C73.1331 91.3571 47.7606 91.3571 32.1206 81.915M110.038 37.3609L72.2621 7.9792C68.947 5.40021 64.8668 4 60.6667 4C56.4666 4 52.3863 5.40021 49.0713 7.9792L11.2888 37.3609C9.01814 39.1266 7.18108 41.3879 5.91785 43.9721C4.65462 46.5562 3.99864 49.3949 4 52.2713V103.271C4 107.029 5.49256 110.632 8.14932 113.289C10.8061 115.945 14.4094 117.438 18.1667 117.438H103.167C106.924 117.438 110.527 115.945 113.184 113.289C115.841 110.632 117.333 107.029 117.333 103.271V52.2713C117.333 46.4417 114.642 40.9379 110.038 37.3609Z" stroke="#354052" stroke-width="7" stroke-linecap="round" stroke-linejoin="round"/>
<path fill-rule="evenodd" clip-rule="evenodd" d="M92.2125 79.8492C93.3535 81.7409 92.745 84.1993 90.8533 85.3403C82.2621 90.5222 71.2479 92.9967 60.4487 92.9967C49.6497 92.9967 38.6383 90.5223 30.0534 85.3395C28.1622 84.1977 27.5546 81.739 28.6964 79.8478C29.8381 77.9566 32.2968 77.349 34.188 78.4908C41.2432 82.7501 50.7379 84.9967 60.4487 84.9967C70.1594 84.9967 79.6584 82.7501 86.7214 78.49C88.6131 77.349 91.0716 77.9575 92.2125 79.8492Z" fill="white"/>
</svg>
