<svg width="79" height="78" viewBox="0 0 79 78" fill="none" xmlns="http://www.w3.org/2000/svg">
<path d="M4.85718 38.9852H8.74448ZM39.8429 3.99951V7.88681ZM70.9413 38.9852H74.8286ZM14.9642 14.1065L17.6853 16.8276ZM64.7216 14.1065L62.0005 16.8276Z"/>
<path d="M28.181 54.5344C24.9175 52.0868 22.5068 48.6744 21.2905 44.7806C20.0741 40.8867 20.1138 36.7089 21.4038 32.8389C22.6938 28.9688 25.1688 25.6028 28.4782 23.2175C31.7875 20.8323 35.7635 19.5487 39.8429 19.5487C43.9223 19.5487 47.8982 20.8323 51.2076 23.2175C54.517 25.6028 56.992 28.9688 58.282 32.8389C59.572 36.7089 59.6116 40.8867 58.3953 44.7806C57.179 48.6744 54.7683 52.0868 51.5048 54.5344C49.9871 56.0368 48.8443 57.8754 48.169 59.9013C47.4937 61.9273 47.3047 64.0838 47.6175 66.1963C47.6175 68.2583 46.7984 70.2358 45.3404 71.6938C43.8823 73.1518 41.9048 73.9709 39.8429 73.9709C37.7809 73.9709 35.8034 73.1518 34.3454 71.6938C32.8874 70.2358 32.0683 68.2583 32.0683 66.1963C32.381 64.0838 32.1921 61.9273 31.5168 59.9013C30.8415 57.8754 29.6987 56.0368 28.181 54.5344Z"/>
<path d="M30.9021 58.4217H48.7837Z"/>
<path d="M4.85718 38.9852H8.74448M39.8429 3.99951V7.88681M70.9413 38.9852H74.8286M14.9642 14.1065L17.6853 16.8276M64.7216 14.1065L62.0005 16.8276M30.9021 58.4217H48.7837M28.181 54.5344C24.9175 52.0868 22.5068 48.6744 21.2905 44.7806C20.0741 40.8867 20.1138 36.7089 21.4038 32.8389C22.6938 28.9688 25.1688 25.6028 28.4782 23.2175C31.7875 20.8323 35.7635 19.5487 39.8429 19.5487C43.9223 19.5487 47.8982 20.8323 51.2076 23.2175C54.517 25.6028 56.992 28.9688 58.282 32.8389C59.572 36.7089 59.6116 40.8867 58.3953 44.7806C57.179 48.6744 54.7683 52.0868 51.5048 54.5344C49.9871 56.0368 48.8443 57.8754 48.169 59.9013C47.4937 61.9273 47.3047 64.0838 47.6175 66.1963C47.6175 68.2583 46.7984 70.2358 45.3404 71.6938C43.8823 73.1518 41.9048 73.9709 39.8429 73.9709C37.7809 73.9709 35.8034 73.1518 34.3454 71.6938C32.8874 70.2358 32.0683 68.2583 32.0683 66.1963C32.381 64.0838 32.1921 61.9273 31.5168 59.9013C30.8415 57.8754 29.6987 56.0368 28.181 54.5344Z" stroke="white" stroke-width="7.7746" stroke-linecap="round" stroke-linejoin="round"/>
</svg>
