<svg width="78" height="68" viewBox="0 0 78 68" fill="none" xmlns="http://www.w3.org/2000/svg">
<path d="M25.0108 57.268V36.2803C25.0108 34.4249 24.2729 32.6455 22.9595 31.3335C21.646 30.0215 19.8646 29.2845 18.0072 29.2845H11.0036C9.14612 29.2845 7.36473 30.0215 6.0513 31.3335C4.73788 32.6455 4 34.4249 4 36.2803V57.268C4 59.1235 4.73788 60.9029 6.0513 62.2149C7.36473 63.5269 9.14612 64.2639 11.0036 64.2639H18.0072C19.8646 64.2639 21.646 63.5269 22.9595 62.2149C24.2729 60.9029 25.0108 59.1235 25.0108 57.268ZM25.0108 57.268C25.0108 59.1235 25.7486 60.9029 27.0621 62.2149C28.3755 63.5269 30.1569 64.2639 32.0143 64.2639H58.3198C59.8265 64.2641 61.2931 63.7788 62.5018 62.8802C63.7105 61.9816 64.5968 60.7176 65.0292 59.2759L73.4335 38.2882C74.0639 36.1684 74.365 33.8808 73.0413 32.1038C71.7247 30.3269 69.2454 29.2845 67.0323 29.2845H53.0251V12.0256C53.0243 10.3746 52.4919 8.76758 51.5066 7.44198C50.5213 6.11638 49.1353 5.14246 47.5533 4.66409C45.9714 4.18571 44.2773 4.22824 42.7214 4.78538C41.1655 5.34252 39.8303 6.38475 38.9129 7.75811L25.0108 29.2845V57.268Z" stroke="#41B06E" stroke-width="6.77742" stroke-linecap="round" stroke-linejoin="round"/>
</svg>
