<svg width="77" height="59" viewBox="0 0 77 59" fill="none" xmlns="http://www.w3.org/2000/svg">
<path d="M31.3169 30.8507V49.1476M31.3169 49.1476C31.3169 50.7652 31.9602 52.3165 33.1052 53.4603C34.2503 54.6041 35.8033 55.2466 37.4226 55.2466H60.3556C61.6691 55.2467 62.9476 54.8237 64.0014 54.0403C65.0551 53.2569 65.8278 52.155 66.2048 50.8981L73.5316 32.6011C74.0811 30.7531 74.3437 28.7587 73.1897 27.2096C72.0418 25.6605 69.8804 24.7517 67.951 24.7517H55.7397V9.70552C55.7389 8.26615 55.2748 6.86519 54.4158 5.70954C53.5568 4.55389 52.3485 3.70483 50.9694 3.28778C49.5903 2.87074 48.1134 2.90781 46.757 3.39352C45.4006 3.87924 44.2365 4.78785 43.4367 5.98514L31.3169 24.7517V49.1476Z" stroke="#FFFFFF" stroke-width="5.90852" stroke-linecap="round" stroke-linejoin="round"/>
<path d="M51 4C54.6 4 54.8333 9.33333 54.5 12L53.5 18.5L55.5 24H63L73.5 27L72 36.5L66.5 50L58.5 55L38.5 56L31.5 53V42V26L36.5 19C38.3333 15.8333 42.1 9.2 42.5 8C43 6.5 46.5 4 51 4Z" fill="#FFFFFF"/>
<path d="M19.5288 26.7863C18.3837 25.6426 16.8307 25 15.2114 25H9.10569C7.48636 25 5.93335 25.6426 4.78831 26.7863C3.64328 27.9301 3 29.4814 3 31.099V49.3959C3 51.0135 3.64328 52.5648 4.78831 53.7086C5.93335 54.8524 7.48636 55.4949 9.10569 55.4949H15.2114C16.8307 55.4949 18.3837 54.8524 19.5288 53.7086" stroke="#FFFFFF" stroke-width="5.90852" stroke-linecap="round" stroke-linejoin="round"/>
<path d="M5.00006 53.7088C6.14509 54.8526 7.6981 55.4951 9.31743 55.4951L15.4231 55.4951C17.0424 55.4951 18.5955 54.8526 19.7405 53.7088C20.8855 52.565 21.5288 51.0137 21.5288 49.3961L21.5288 31.0992C21.5288 29.4816 20.8855 27.9303 19.7405 26.7865C18.5955 25.6428 17.0424 25.0002 15.4231 25.0002L9.31743 25.0002C7.6981 25.0002 6.14509 25.6428 5.00005 26.7865" stroke="#FFFFFF" stroke-width="5.90852" stroke-linecap="round" stroke-linejoin="round"/>
<rect x="5" y="27" width="15" height="27" fill="#FFFFFF"/>
</svg>
