<svg width="57" height="57" viewBox="0 0 57 57" fill="none" xmlns="http://www.w3.org/2000/svg">
<path d="M21.4606 35.7149L35.5329 21.6426M26.1514 14.6064L27.2373 13.3493C29.4368 11.1501 32.4199 9.9147 35.5302 9.91492C38.6406 9.91514 41.6235 11.1509 43.8227 13.3504C46.0219 15.55 47.2573 18.533 47.257 21.6434C47.2568 24.7538 46.021 27.7366 43.8215 29.9358L42.5691 31.0241M30.8422 42.751L29.9111 44.0035C27.6859 46.2039 24.6827 47.438 21.5533 47.438C18.4239 47.438 15.4207 46.2039 13.1955 44.0035C12.0987 42.919 11.228 41.6276 10.6337 40.2043C10.0394 38.7809 9.7334 37.2538 9.7334 35.7113C9.7334 34.1689 10.0394 32.6418 10.6337 31.2184C11.228 29.7951 12.0987 28.5037 13.1955 27.4192L14.4245 26.3333" stroke="#141e46" stroke-width="4.69077" stroke-linecap="round" stroke-linejoin="round"/>
</svg>
