<svg width="120" height="80" viewBox="0 0 120 80" fill="none" xmlns="http://www.w3.org/2000/svg">
<g filter="url(#filter0_f_1817_144)">
<rect width="69.0632" height="69.0632" rx="10.121" transform="matrix(0.707107 -0.707107 0.951056 0.309017 3 53.835)" fill="#41B06E"/>
<path d="M31.168 46.6455L44.0079 33.8055C45.9461 31.8674 47.9009 30.2771 49.8725 29.0347C51.8296 27.7875 53.7907 26.8626 55.7556 26.2599C57.7206 25.6572 59.6678 25.3698 61.5972 25.3975C63.5373 25.4145 65.4415 25.7264 67.3097 26.3335C68.5696 26.7428 69.6585 27.2464 70.5765 27.8443C71.48 28.4374 72.1727 29.1262 72.6548 29.9105C73.1476 30.684 73.4152 31.5485 73.4576 32.5038C73.4856 33.4544 73.2666 34.4889 72.8007 35.6071L89.1535 33.6449L82.8869 39.9115L68.4936 41.526L68.3482 41.6714L60.574 49.4167L55.4542 54.5366L31.168 46.6455ZM62.4713 39.6335C63.4404 38.6644 64.1335 37.7698 64.5508 36.9495C64.9789 36.1185 65.16 35.3714 65.0942 34.708C65.0392 34.0339 64.7391 33.4514 64.194 32.9604C63.6451 32.454 62.8855 32.0431 61.9152 31.7279C60.0181 31.1114 58.0709 31.1207 56.0736 31.7557C54.0619 32.3859 52.0816 33.6755 50.1327 35.6244L42.2833 43.4737L54.622 47.4828L62.4713 39.6335Z" fill="#FFFFFF"/>
<path d="M60.5211 56.1772L55.4533 54.5306L60.2932 49.6514L60.5211 56.1772Z" fill="#FFFFFF"/>
<rect width="33.4047" height="13.2123" rx="2.54238" transform="matrix(0.707107 -0.707107 0.951056 0.309017 37.3965 48.2817)" fill="#FFFFFF"/>
<circle cx="2.67756" cy="2.67756" r="2.67756" transform="matrix(0.707107 -0.707107 0.951056 0.309017 45.0703 45.5752)" fill="#41B06E"/>
<circle cx="2.67756" cy="2.67756" r="2.67756" transform="matrix(0.707107 -0.707107 0.951056 0.309017 50.9297 39.7153)" fill="#41B06E"/>
<circle cx="2.67756" cy="2.67756" r="2.67756" transform="matrix(0.707107 -0.707107 0.951056 0.309017 56.793 33.854)" fill="#41B06E"/>
</g>
<defs>
<filter id="filter0_f_1817_144" x="0.787109" y="0.472168" width="118.943" height="79.2324" filterUnits="userSpaceOnUse" color-interpolation-filters="sRGB">
<feFlood flood-opacity="0" result="BackgroundImageFix"/>
<feBlend mode="normal" in="SourceGraphic" in2="BackgroundImageFix" result="shape"/>
<feGaussianBlur stdDeviation="3.5" result="effect1_foregroundBlur_1817_144"/>
</filter>
</defs>
</svg>
