<svg width="128" height="83" viewBox="0 0 128 83" fill="none" xmlns="http://www.w3.org/2000/svg">
<g filter="url(#filter0_f_1817_111)">
<rect width="69.0632" height="69.0632" rx="10.121" transform="matrix(0.866025 0.5 -0.866025 0.5 63.8105 7)" fill="#FFF5E0"/>
<path d="M64.498 24.0459L80.2237 33.1251C82.5974 34.4956 84.4041 35.828 85.6437 37.1223C86.8965 38.409 87.6283 39.6538 87.8393 40.8568C88.0503 42.0597 87.7602 43.2094 86.969 44.3057C86.1909 45.4097 84.9513 46.4528 83.2502 47.4349C82.1029 48.0973 80.8699 48.6493 79.5512 49.0909C78.2457 49.5249 76.8676 49.8256 75.417 49.9931C73.9796 50.1682 72.4829 50.2025 70.9268 50.0959C69.3839 49.9817 67.8014 49.7152 66.1794 49.2964L63.0145 58.8896L55.3396 54.4585L58.3067 46.0302L58.1286 45.9274L48.6537 40.4342L42.3832 36.8139L64.498 24.0459ZM63.687 42.8553C64.8739 43.5406 66.0475 44.0583 67.208 44.4085C68.3817 44.7663 69.5158 44.9719 70.6103 45.0252C71.718 45.0861 72.773 44.9948 73.7752 44.7511C74.8038 44.5075 75.7599 44.1306 76.6434 43.6205C78.3709 42.6231 79.1094 41.5115 78.8589 40.2857C78.6215 39.0523 77.3094 37.7466 74.9225 36.3685L65.3091 30.8182L54.0736 37.305L63.687 42.8553Z" fill="#41B06E"/>
<path d="M37.7802 39.4781L42.3948 36.8138L48.3858 40.2415L37.7802 39.4781Z" fill="#41B06E"/>
<rect width="33.4047" height="13.2123" rx="2.54238" transform="matrix(0.866025 0.5 -0.866025 0.5 59.4512 27.3735)" fill="#41B06E"/>
<circle cx="2.67756" cy="2.67756" r="2.67756" transform="matrix(0.866025 0.5 -0.866025 0.5 60.8438 32.1201)" fill="#FFF5E0"/>
<circle cx="2.67756" cy="2.67756" r="2.67756" transform="matrix(0.866025 0.5 -0.866025 0.5 68.0195 36.2637)" fill="#FFF5E0"/>
<circle cx="2.67756" cy="2.67756" r="2.67756" transform="matrix(0.866025 0.5 -0.866025 0.5 75.1992 40.4087)" fill="#FFF5E0"/>
</g>
<defs>
<filter id="filter0_f_1817_111" x="0.134766" y="0.964355" width="127.352" height="81.1343" filterUnits="userSpaceOnUse" color-interpolation-filters="sRGB">
<feFlood flood-opacity="0" result="BackgroundImageFix"/>
<feBlend mode="normal" in="SourceGraphic" in2="BackgroundImageFix" result="shape"/>
<feGaussianBlur stdDeviation="4.5" result="effect1_foregroundBlur_1817_111"/>
</filter>
</defs>
</svg>