<svg width="111" height="94" viewBox="0 0 111 94" fill="none" xmlns="http://www.w3.org/2000/svg">
<g filter="url(#filter0_f_1864_113)">
<rect width="69.0632" height="69.0632" rx="10.121" transform="matrix(0.961262 0.275637 -0.48481 0.87462 39 7.03662)" fill="#41B06E"/>
<path d="M47.6953 26.4058L65.1504 31.4109C67.7851 32.1664 69.9282 33.0742 71.5798 34.1343C73.2388 35.1811 74.443 36.3599 75.1923 37.6706C75.9416 38.9814 76.2471 40.4041 76.1089 41.9388C75.9853 43.4777 75.4474 45.1062 74.495 46.8242C73.8528 47.9829 73.0864 49.0442 72.1958 50.0082C71.3126 50.9589 70.3053 51.7814 69.174 52.4757C68.0574 53.1742 66.8241 53.7312 65.4742 54.1467C64.1316 54.5489 62.6835 54.7897 61.1297 54.8689L63.0581 66.998L54.5391 64.5553L53.0007 53.8345L52.8031 53.7778L42.2752 50.7359L35.3152 48.7401L47.6953 26.4058ZM55.98 48.3219C57.2974 48.6997 58.5239 48.8893 59.6596 48.8908C60.81 48.8966 61.8548 48.7408 62.794 48.4236C63.7479 48.1106 64.5851 47.6407 65.3058 47.0138C66.0485 46.3779 66.6671 45.6137 67.1617 44.7214C68.1288 42.9768 68.2157 41.4428 67.4225 40.1195C66.6367 38.7828 64.9191 37.7346 62.2697 36.9749L51.5991 33.9152L45.3094 45.2622L55.98 48.3219Z" fill="#FFFFFF"/>
<path d="M32.7415 53.3967L35.3248 48.7363L41.9598 50.6072L32.7415 53.3967Z" fill="#FFFFFF"/>
<rect width="33.4047" height="13.2123" rx="2.54238" transform="matrix(0.961262 0.275637 -0.48481 0.87462 45.0664 31.979)" fill="#FFFFFF"/>
<circle cx="2.67756" cy="2.67756" r="2.67756" transform="matrix(0.961262 0.275637 -0.48481 0.87462 48.4922 36.957)" fill="#41B06E"/>
<circle cx="2.67756" cy="2.67756" r="2.67756" transform="matrix(0.961262 0.275637 -0.48481 0.87462 56.457 39.2412)" fill="#41B06E"/>
<circle cx="2.67756" cy="2.67756" r="2.67756" transform="matrix(0.961262 0.275637 -0.48481 0.87462 64.4258 41.5264)" fill="#41B06E"/>
</g>
<defs>
<filter id="filter0_f_1864_113" x="0.253906" y="0.394531" width="110.396" height="92.7246" filterUnits="userSpaceOnUse" color-interpolation-filters="sRGB">
<feFlood flood-opacity="0" result="BackgroundImageFix"/>
<feBlend mode="normal" in="SourceGraphic" in2="BackgroundImageFix" result="shape"/>
<feGaussianBlur stdDeviation="4.5" result="effect1_foregroundBlur_1864_113"/>
</filter>
</defs>
</svg>
