<svg width="111" height="87" viewBox="0 0 111 87" fill="none" xmlns="http://www.w3.org/2000/svg">
<g filter="url(#filter0_f_1817_122)">
<rect width="69.0632" height="69.0632" rx="10.121" transform="matrix(0.992546 -0.121869 -0.438371 0.898794 36.2754 16.4167)" fill="#41B06E"/>
<path d="M46.291 29.2544L64.3141 27.0414C67.0346 26.7074 69.2655 26.6779 71.0069 26.9531C72.7549 27.2145 74.0494 27.7503 74.8904 28.5606C75.7313 29.3709 76.1287 30.435 76.0827 31.7531C76.0517 33.0693 75.6056 34.6101 74.7445 36.3756C74.1638 37.5663 73.4511 38.7218 72.6063 39.8419C71.7683 40.9484 70.7965 41.9941 69.6909 42.9791C68.6005 43.9622 67.3829 44.8708 66.0383 45.7049C64.7004 46.5254 63.2454 47.2509 61.6733 47.8814L64.3749 57.1996L55.5787 58.2796L53.3592 49.983L53.1552 50.0081L42.2833 51.3236L35.0967 52.2061L46.291 29.2544ZM56.0447 44.3458C57.405 44.1788 58.6615 43.8894 59.8143 43.4777C60.9822 43.0641 62.033 42.5555 62.9668 41.9519C63.9157 41.3465 64.7366 40.6538 65.4296 39.8739C66.1443 39.0785 66.7253 38.2223 67.1726 37.3054C68.047 35.5125 68.0411 34.2137 67.1548 33.409C66.2752 32.5906 64.4676 32.3493 61.732 32.6852L50.7141 34.0381L45.0268 45.6986L56.0447 44.3458Z" fill="#FFF5E0"/>
<path d="M32.7702 56.9889L35.1061 52.1996L41.955 51.3324L32.7702 56.9889Z" fill="#FFF5E0"/>
<rect width="33.4047" height="13.2123" rx="2.54238" transform="matrix(0.992546 -0.121869 -0.438371 0.898794 43.9648 34.8142)" fill="#FFF5E0"/>
<circle cx="2.67756" cy="2.67756" r="2.67756" transform="matrix(0.992546 -0.121869 -0.438371 0.898794 47.7461 37.6809)" fill="#41B06E"/>
<circle cx="2.67756" cy="2.67756" r="2.67756" transform="matrix(0.992546 -0.121869 -0.438371 0.898794 55.9707 36.6709)" fill="#41B06E"/>
<circle cx="2.67756" cy="2.67756" r="2.67756" transform="matrix(0.992546 -0.121869 -0.438371 0.898794 64.1992 35.6611)" fill="#41B06E"/>
</g>
<defs>
<filter id="filter0_f_1817_122" x="0.498047" y="0.14917" width="109.828" height="86.1921" filterUnits="userSpaceOnUse" color-interpolation-filters="sRGB">
<feFlood flood-opacity="0" result="BackgroundImageFix"/>
<feBlend mode="normal" in="SourceGraphic" in2="BackgroundImageFix" result="shape"/>
<feGaussianBlur stdDeviation="4.5" result="effect1_foregroundBlur_1817_122"/>
</filter>
</defs>
</svg>
