<svg width="197" height="197" viewBox="0 0 197 197" fill="none" xmlns="http://www.w3.org/2000/svg">
<rect width="197" height="197" rx="43.5781" fill="#FFF5E0"/>
<path d="M49.7578 47.4893H101.554C109.372 47.4893 116.148 48.3145 121.882 49.9651C127.615 51.5722 132.371 53.9176 136.15 57.0015C139.929 60.0854 142.731 63.8426 144.555 68.2729C146.423 72.7033 147.356 77.7201 147.356 83.3232C147.356 87.102 146.9 90.7071 145.988 94.1385C145.076 97.5264 143.664 100.654 141.753 103.52C139.886 106.387 137.518 108.95 134.652 111.208C131.785 113.424 128.419 115.27 124.553 116.746L146.705 149.323H121.426L102.271 120.395H101.684L70.4112 120.33H49.7578L49.7578 47.4893ZM102.075 102.478C105.984 102.478 109.394 102.022 112.304 101.11C115.258 100.198 117.712 98.9164 119.667 97.2658C121.665 95.6153 123.141 93.6173 124.097 91.2718C125.096 88.8829 125.595 86.2333 125.595 83.3232C125.595 77.6332 123.641 73.2462 119.732 70.1624C115.823 67.035 109.937 65.4714 102.075 65.4714H70.4112V102.478H102.075Z" fill="#141E46"/>
<path d="M49.782 135.513L49.782 120.313L69.4258 120.224L49.782 135.513Z" fill="#141E46"/>
<rect x="50.9385" y="65.2939" width="95.2855" height="37.6875" rx="18.8438" fill="#141E46"/>
<circle cx="74.4072" cy="84.1777" r="7.63762" fill="#FFF5E0"/>
<circle cx="98.0478" cy="84.1777" r="7.63762" fill="#FFF5E0"/>
<circle cx="121.688" cy="84.1777" r="7.63762" fill="#FFF5E0"/>
</svg>
