<svg width="83" height="83" viewBox="0 0 83 83" fill="none" xmlns="http://www.w3.org/2000/svg">
<path d="M47.9309 27.7228V20.8756C47.9309 19.0596 47.2095 17.3179 45.9254 16.0338C44.6413 14.7497 42.8997 14.0283 41.0837 14.0283H17.1183C15.3022 14.0283 13.5606 14.7497 12.2765 16.0338C10.9924 17.3179 10.271 19.0596 10.271 20.8756V61.9591C10.271 63.7751 10.9924 65.5168 12.2765 66.8009C13.5606 68.085 15.3022 68.8064 17.1183 68.8064H41.0837C42.8997 68.8064 44.6413 68.085 45.9254 66.8009C47.2095 65.5168 47.9309 63.7751 47.9309 61.9591V55.1119M23.9655 41.4174H71.8963M71.8963 41.4174L61.6254 31.1465M71.8963 41.4174L61.6254 51.6882" stroke="white" stroke-width="4.10836" stroke-linecap="round" stroke-linejoin="round"/>
</svg>
