<svg width="403" height="403" viewBox="0 0 403 403" fill="none" xmlns="http://www.w3.org/2000/svg">
<rect width="402.227" height="402.227" rx="93" fill="#141E46"/>
<path d="M101.593 96.9609H207.348C223.311 96.9609 237.146 98.6459 248.852 102.016C260.559 105.297 270.27 110.086 277.985 116.383C285.701 122.679 291.421 130.35 295.145 139.396C298.959 148.442 300.866 158.685 300.866 170.125C300.866 177.841 299.934 185.201 298.072 192.207C296.21 199.125 293.327 205.51 289.425 211.363C285.612 217.216 280.779 222.449 274.926 227.06C269.072 231.583 262.199 235.352 254.307 238.367L299.535 304.88H247.921L208.812 245.817H207.614L143.762 245.684H101.593L101.593 96.9609ZM208.413 209.235C216.394 209.235 223.356 208.304 229.298 206.441C235.328 204.579 240.339 201.963 244.33 198.593C248.409 195.223 251.424 191.143 253.375 186.354C255.415 181.477 256.435 176.067 256.435 170.125C256.435 158.508 252.444 149.551 244.463 143.254C236.481 136.869 224.464 133.676 208.413 133.676H143.762V209.235H208.413Z" fill="#FFF5E0"/>
<path d="M101.642 276.684L101.642 245.65L141.75 245.468L101.642 276.684Z" fill="#FFF5E0"/>
<rect x="104.002" y="133.313" width="194.55" height="76.9489" rx="23.3615" fill="#FFF5E0"/>
<circle cx="151.922" cy="171.87" r="15.5942" fill="#141E46"/>
<circle cx="200.189" cy="171.87" r="15.5942" fill="#141E46"/>
<circle cx="248.458" cy="171.87" r="15.5942" fill="#141E46"/>
</svg>
