<svg width="111" height="94" viewBox="0 0 111 94" fill="none" xmlns="http://www.w3.org/2000/svg">
<g filter="url(#filter0_f_1816_111)">
<rect width="69.0632" height="69.0632" rx="10.121" transform="matrix(0.961262 -0.275637 0.48481 0.87462 5.71484 26.4917)" fill="#41B06E"/>
<path d="M30.5527 36.2446L48.0078 31.2395C50.6425 30.484 53.0662 30.0823 55.2788 30.0343C57.4841 29.9731 59.4856 30.2326 61.2832 30.8131C63.0807 31.3935 64.6634 32.2748 66.0312 33.4569C67.4136 34.6349 68.5809 36.0829 69.5333 37.8009C70.1755 38.9596 70.6346 40.109 70.9104 41.2493C71.1788 42.3763 71.2346 43.4716 71.0778 44.5352C70.9356 45.5947 70.5735 46.6092 69.9913 47.5788C69.4017 48.535 68.5811 49.4263 67.5293 50.2527L80.5311 58.1006L72.0122 60.5434L60.6405 53.5245L60.4429 53.5812L49.8929 56.5832L42.9329 58.579L30.5527 36.2446ZM57.5294 48.0497C58.8468 47.672 59.9183 47.2027 60.744 46.6418C61.5843 46.0767 62.1935 45.4467 62.5717 44.7517C62.9645 44.0526 63.1226 43.2972 63.0459 42.4857C62.9766 41.6567 62.6946 40.796 62.2 39.9037C61.2329 38.159 59.8286 37.0028 57.9871 36.435C56.1382 35.8538 53.8891 35.9431 51.2397 36.7028L40.5691 39.7625L46.8588 51.1095L57.5294 48.0497Z" fill="#FFFFFF"/>
<path d="M45.5188 63.2322L42.9355 58.5717L49.5402 56.6463L45.5188 63.2322Z" fill="#FFFFFF"/>
<rect width="33.4047" height="13.2123" rx="2.54238" transform="matrix(0.961262 -0.275637 0.48481 0.87462 33.9766 41.5898)" fill="#FFFFFF"/>
<circle cx="2.67756" cy="2.67756" r="2.67756" transform="matrix(0.961262 -0.275637 0.48481 0.87462 41.2227 43.5078)" fill="#41B06E"/>
<circle cx="2.67756" cy="2.67756" r="2.67756" transform="matrix(0.961262 -0.275637 0.48481 0.87462 49.1875 41.2236)" fill="#41B06E"/>
<circle cx="2.67756" cy="2.67756" r="2.67756" transform="matrix(0.961262 -0.275637 0.48481 0.87462 57.1582 38.9392)" fill="#41B06E"/>
</g>
<defs>
<filter id="filter0_f_1816_111" x="0.451172" y="0.813232" width="110.396" height="92.7244" filterUnits="userSpaceOnUse" color-interpolation-filters="sRGB">
<feFlood flood-opacity="0" result="BackgroundImageFix"/>
<feBlend mode="normal" in="SourceGraphic" in2="BackgroundImageFix" result="shape"/>
<feGaussianBlur stdDeviation="4.5" result="effect1_foregroundBlur_1816_111"/>
</filter>
</defs>
</svg>
