<svg width="44" height="44" viewBox="0 0 44 44" fill="none" xmlns="http://www.w3.org/2000/svg">
<rect width="43.7734" height="43.7734" rx="10.121" fill="#141E46"/>
<path d="M11.0547 10.5518H22.5638C24.3011 10.5518 25.8067 10.7351 27.0806 11.1019C28.3546 11.459 29.4114 11.9801 30.2511 12.6654C31.0907 13.3506 31.7133 14.1855 32.1186 15.1699C32.5336 16.1543 32.7411 17.269 32.7411 18.5141C32.7411 19.3537 32.6398 20.1548 32.4371 20.9172C32.2344 21.67 31.9208 22.3649 31.4961 23.0019C31.0811 23.6389 30.5551 24.2083 29.9181 24.7102C29.2811 25.2024 28.5332 25.6126 27.6742 25.9407L32.5963 33.1792H26.9793L22.7231 26.7514H22.5928L15.6439 26.737H11.0547L11.0547 10.5518ZM22.6797 22.7703C23.5483 22.7703 24.3059 22.6689 24.9525 22.4663C25.6088 22.2636 26.1541 21.9789 26.5884 21.6121C27.0324 21.2454 27.3605 20.8014 27.5729 20.2802C27.7948 19.7494 27.9058 19.1607 27.9058 18.5141C27.9058 17.2497 27.4715 16.275 26.6029 15.5897C25.7343 14.8948 24.4265 14.5474 22.6797 14.5474H15.6439V22.7703H22.6797Z" fill="#FFFFFF"/>
<path d="M11.059 30.1104L11.059 26.733L15.4238 26.7133L11.059 30.1104Z" fill="#FFFFFF"/>
<rect x="11.3164" y="14.5078" width="21.1724" height="8.37418" rx="2.54238" fill="#FFFFFF"/>
<circle cx="16.533" cy="18.7039" r="1.69708" fill="#141E46"/>
<circle cx="21.785" cy="18.7039" r="1.69708" fill="#141E46"/>
<circle cx="27.0389" cy="18.7039" r="1.69708" fill="#141E46"/>
</svg>
