<svg width="274" height="57" viewBox="0 0 274 57" fill="none" xmlns="http://www.w3.org/2000/svg">
<rect x="1.5" y="1.5" width="271" height="53.768" rx="16.5" fill="#FFFFFF" stroke="#141E46" stroke-width="3"/>
<path d="M143.762 33.6364H132.338C132.411 34.6957 132.895 35.5541 133.79 36.2116C134.685 36.8509 135.708 37.1705 136.858 37.1705C138.685 37.1705 140.073 36.5952 141.022 35.4446L142.776 37.3623C141.205 38.9878 139.159 39.8005 136.639 39.8005C134.593 39.8005 132.849 39.1247 131.406 37.7732C129.982 36.4034 129.27 34.577 129.27 32.294C129.27 29.9928 130 28.1664 131.461 26.8149C132.922 25.4634 134.639 24.7876 136.612 24.7876C138.602 24.7876 140.292 25.3903 141.68 26.5957C143.068 27.7829 143.762 29.4266 143.762 31.527V33.6364ZM132.338 31.2256H140.694C140.694 30.0019 140.31 29.0613 139.543 28.4038C138.776 27.7463 137.826 27.4176 136.694 27.4176C135.58 27.4176 134.575 27.7646 133.68 28.4586C132.785 29.1344 132.338 30.0567 132.338 31.2256Z" fill="#141E46"/>
<path d="M152.643 39.5813L146.78 25.0068H149.958L154.396 36.0199L158.834 25.0068H162.012L156.149 39.5813H152.643Z" fill="#141E46"/>
<path d="M169.17 39.5813H166.101V25.0068H169.17V39.5813Z" fill="#141E46"/>
<path d="M188.824 33.6364H177.4C177.473 34.6957 177.957 35.5541 178.852 36.2116C179.747 36.8509 180.769 37.1705 181.92 37.1705C183.746 37.1705 185.134 36.5952 186.084 35.4446L187.837 37.3623C186.267 38.9878 184.221 39.8005 181.701 39.8005C179.655 39.8005 177.911 39.1247 176.468 37.7732C175.044 36.4034 174.331 34.577 174.331 32.294C174.331 29.9928 175.062 28.1664 176.523 26.8149C177.984 25.4634 179.701 24.7876 181.673 24.7876C183.664 24.7876 185.354 25.3903 186.742 26.5957C188.13 27.7829 188.824 29.4266 188.824 31.527V33.6364ZM177.4 31.2256H185.755C185.755 30.0019 185.372 29.0613 184.605 28.4038C183.838 27.7463 182.888 27.4176 181.756 27.4176C180.641 27.4176 179.637 27.7646 178.742 28.4586C177.847 29.1344 177.4 30.0567 177.4 31.2256Z" fill="#141E46"/>
<path d="M200.663 39.5813H197.157L192.116 25.0068H195.294L198.91 36.0199L202.526 25.0068H205.704L209.32 36.0199L212.936 25.0068H216.114L211.074 39.5813H207.567L204.115 29.6093L200.663 39.5813Z" fill="#141E46"/>
<path d="M230.856 35.2254C230.856 36.6134 230.354 37.7275 229.35 38.5677C228.345 39.3896 227.057 39.8005 225.487 39.8005C224.427 39.8005 223.323 39.6087 222.172 39.2252C221.04 38.8416 220.035 38.3029 219.158 37.6088L220.638 35.2254C222.336 36.5039 223.98 37.1431 225.569 37.1431C226.263 37.1431 226.811 36.9879 227.213 36.6774C227.615 36.3486 227.815 35.9377 227.815 35.4446C227.815 34.714 226.847 34.0565 224.911 33.4721C224.765 33.4173 224.656 33.3807 224.583 33.3625C221.551 32.5406 220.035 31.1708 220.035 29.2531C220.035 27.9016 220.556 26.824 221.597 26.0204C222.656 25.1985 224.026 24.7876 225.706 24.7876C227.386 24.7876 228.975 25.2807 230.473 26.267L229.322 28.5408C228.135 27.7555 226.847 27.3628 225.459 27.3628C224.729 27.3628 224.135 27.4998 223.679 27.7737C223.222 28.0294 222.994 28.4221 222.994 28.9518C222.994 29.4266 223.231 29.7736 223.706 29.9928C224.035 30.1572 224.491 30.3124 225.076 30.4585C225.679 30.6046 226.208 30.7507 226.665 30.8969C227.121 31.043 227.56 31.2073 227.98 31.39C228.418 31.5726 228.884 31.8283 229.377 32.1571C230.363 32.8146 230.856 33.8373 230.856 35.2254Z" fill="#141E46"/>
<path d="M143.762 33.6364H132.338C132.411 34.6957 132.895 35.5541 133.79 36.2116C134.685 36.8509 135.708 37.1705 136.858 37.1705C138.685 37.1705 140.073 36.5952 141.022 35.4446L142.776 37.3623C141.205 38.9878 139.159 39.8005 136.639 39.8005C134.593 39.8005 132.849 39.1247 131.406 37.7732C129.982 36.4034 129.27 34.577 129.27 32.294C129.27 29.9928 130 28.1664 131.461 26.8149C132.922 25.4634 134.639 24.7876 136.612 24.7876C138.602 24.7876 140.292 25.3903 141.68 26.5957C143.068 27.7829 143.762 29.4266 143.762 31.527V33.6364ZM132.338 31.2256H140.694C140.694 30.0019 140.31 29.0613 139.543 28.4038C138.776 27.7463 137.826 27.4176 136.694 27.4176C135.58 27.4176 134.575 27.7646 133.68 28.4586C132.785 29.1344 132.338 30.0567 132.338 31.2256Z" fill="#141E46"/>
<path d="M152.643 39.5813L146.78 25.0068H149.958L154.396 36.0199L158.834 25.0068H162.012L156.149 39.5813H152.643Z" fill="#141E46"/>
<path d="M169.17 39.5813H166.101V25.0068H169.17V39.5813Z" fill="#141E46"/>
<path d="M188.824 33.6364H177.4C177.473 34.6957 177.957 35.5541 178.852 36.2116C179.747 36.8509 180.769 37.1705 181.92 37.1705C183.746 37.1705 185.134 36.5952 186.084 35.4446L187.837 37.3623C186.267 38.9878 184.221 39.8005 181.701 39.8005C179.655 39.8005 177.911 39.1247 176.468 37.7732C175.044 36.4034 174.331 34.577 174.331 32.294C174.331 29.9928 175.062 28.1664 176.523 26.8149C177.984 25.4634 179.701 24.7876 181.673 24.7876C183.664 24.7876 185.354 25.3903 186.742 26.5957C188.13 27.7829 188.824 29.4266 188.824 31.527V33.6364ZM177.4 31.2256H185.755C185.755 30.0019 185.372 29.0613 184.605 28.4038C183.838 27.7463 182.888 27.4176 181.756 27.4176C180.641 27.4176 179.637 27.7646 178.742 28.4586C177.847 29.1344 177.4 30.0567 177.4 31.2256Z" fill="#141E46"/>
<path d="M200.663 39.5813H197.157L192.116 25.0068H195.294L198.91 36.0199L202.526 25.0068H205.704L209.32 36.0199L212.936 25.0068H216.114L211.074 39.5813H207.567L204.115 29.6093L200.663 39.5813Z" fill="#141E46"/>
<path d="M230.856 35.2254C230.856 36.6134 230.354 37.7275 229.35 38.5677C228.345 39.3896 227.057 39.8005 225.487 39.8005C224.427 39.8005 223.323 39.6087 222.172 39.2252C221.04 38.8416 220.035 38.3029 219.158 37.6088L220.638 35.2254C222.336 36.5039 223.98 37.1431 225.569 37.1431C226.263 37.1431 226.811 36.9879 227.213 36.6774C227.615 36.3486 227.815 35.9377 227.815 35.4446C227.815 34.714 226.847 34.0565 224.911 33.4721C224.765 33.4173 224.656 33.3807 224.583 33.3625C221.551 32.5406 220.035 31.1708 220.035 29.2531C220.035 27.9016 220.556 26.824 221.597 26.0204C222.656 25.1985 224.026 24.7876 225.706 24.7876C227.386 24.7876 228.975 25.2807 230.473 26.267L229.322 28.5408C228.135 27.7555 226.847 27.3628 225.459 27.3628C224.729 27.3628 224.135 27.4998 223.679 27.7737C223.222 28.0294 222.994 28.4221 222.994 28.9518C222.994 29.4266 223.231 29.7736 223.706 29.9928C224.035 30.1572 224.491 30.3124 225.076 30.4585C225.679 30.6046 226.208 30.7507 226.665 30.8969C227.121 31.043 227.56 31.2073 227.98 31.39C228.418 31.5726 228.884 31.8283 229.377 32.1571C230.363 32.8146 230.856 33.8373 230.856 35.2254Z" fill="#141E46"/>
<path d="M233.109 37.867C233.109 38.3966 233.301 38.8532 233.685 39.2368C234.068 39.6203 234.525 39.8121 235.054 39.8121C235.584 39.8121 236.041 39.6203 236.424 39.2368C236.808 38.8532 237 38.3966 237 37.867C237 37.3373 236.808 36.8807 236.424 36.4972C236.041 36.1136 235.584 35.9219 235.054 35.9219C234.525 35.9219 234.068 36.1136 233.685 36.4972C233.301 36.8807 233.109 37.3373 233.109 37.867Z" fill="#141E46"/>
<path d="M37.75 39.552V20.4023H40.9827V36.4837H49.722V39.552H37.75Z" fill="#141E46"/>
<path d="M68.0335 33.6071H56.6094C56.6825 34.6664 57.1665 35.5248 58.0614 36.1823C58.9563 36.8216 59.9791 37.1412 61.1297 37.1412C62.9561 37.1412 64.3442 36.5659 65.2939 35.4152L67.0472 37.333C65.4765 38.9584 63.431 39.7712 60.9106 39.7712C58.865 39.7712 57.1208 39.0954 55.678 37.7439C54.2534 36.3741 53.5411 34.5477 53.5411 32.2647C53.5411 29.9635 54.2717 28.1371 55.7328 26.7856C57.1939 25.434 58.9107 24.7583 60.8832 24.7583C62.8739 24.7583 64.5633 25.361 65.9514 26.5664C67.3395 27.7536 68.0335 29.3973 68.0335 31.4976V33.6071ZM56.6094 31.1963H64.9652C64.9652 29.9726 64.5816 29.032 63.8145 28.3745C63.0474 27.717 62.0977 27.3883 60.9654 27.3883C59.8513 27.3883 58.8468 27.7353 57.9518 28.4293C57.0569 29.1051 56.6094 30.0274 56.6094 31.1963Z" fill="#141E46"/>
<path d="M86.6123 33.6071H75.1883C75.2613 34.6664 75.7453 35.5248 76.6403 36.1823C77.5352 36.8216 78.558 37.1412 79.7086 37.1412C81.535 37.1412 82.923 36.5659 83.8727 35.4152L85.6261 37.333C84.0554 38.9584 82.0098 39.7712 79.4894 39.7712C77.4439 39.7712 75.6997 39.0954 74.2568 37.7439C72.8322 36.3741 72.1199 34.5477 72.1199 32.2647C72.1199 29.9635 72.8505 28.1371 74.3116 26.7856C75.7727 25.434 77.4895 24.7583 79.462 24.7583C81.4528 24.7583 83.1422 25.361 84.5302 26.5664C85.9183 27.7536 86.6123 29.3973 86.6123 31.4976V33.6071ZM75.1883 31.1963H83.544C83.544 29.9726 83.1605 29.032 82.3934 28.3745C81.6263 27.717 80.6766 27.3883 79.5442 27.3883C78.4301 27.3883 77.4256 27.7353 76.5307 28.4293C75.6357 29.1051 75.1883 30.0274 75.1883 31.1963Z" fill="#141E46"/>
<path d="M95.4109 27.4431V34.8399C95.4109 35.534 95.5935 36.091 95.9588 36.5111C96.3241 36.9129 96.8354 37.1138 97.4929 37.1138C98.1504 37.1138 98.7805 36.7942 99.3833 36.1549L100.643 38.3192C99.5659 39.2872 98.3696 39.7712 97.0546 39.7712C95.7579 39.7712 94.6438 39.3237 93.7123 38.4288C92.7991 37.5156 92.3425 36.2919 92.3425 34.7577V27.4431H90.507V24.9774H92.3425V20.4023H95.4109V24.9774H99.2463V27.4431H95.4109Z" fill="#141E46"/>
<path d="M104.996 16.8174H116.682C118.445 16.8174 119.974 17.0036 121.267 17.3759C122.561 17.7385 123.634 18.2676 124.486 18.9634C125.339 19.6591 125.971 20.5067 126.383 21.5062C126.804 22.5058 127.015 23.6375 127.015 24.9016C127.015 25.7542 126.912 26.5675 126.706 27.3416C126.5 28.1059 126.182 28.8115 125.751 29.4582C125.329 30.1049 124.795 30.6831 124.148 31.1926C123.502 31.6924 122.742 32.1089 121.87 32.442L126.868 39.7914H121.165L116.843 33.2652H116.711L109.656 33.2505H104.996L104.996 16.8174ZM116.799 29.223C117.681 29.223 118.45 29.1201 119.107 28.9144C119.773 28.7086 120.327 28.4195 120.768 28.0471C121.218 27.6748 121.552 27.224 121.767 26.6949C121.993 26.1559 122.105 25.5582 122.105 24.9016C122.105 23.618 121.664 22.6282 120.782 21.9325C119.901 21.227 118.573 20.8742 116.799 20.8742H109.656V29.223H116.799Z" fill="#141E46"/>
<path d="M105.019 36.6763L105.019 33.2472L109.451 33.2272L105.019 36.6763Z" fill="#141E46"/>
<rect x="105.242" y="20.8369" width="21.4967" height="8.50243" rx="4.25121" fill="#141E46"/>
<circle cx="110.573" cy="25.0873" r="1.72307" fill="#FFFFFF"/>
<circle cx="115.895" cy="25.0873" r="1.72307" fill="#FFFFFF"/>
<circle cx="121.254" cy="25.0873" r="1.72307" fill="#FFFFFF"/>
</svg>
