<svg width="212" height="25" viewBox="0 0 212 25" fill="none" xmlns="http://www.w3.org/2000/svg">
<path d="M112.521 17.8544H100.396C100.473 18.9788 100.987 19.8899 101.937 20.5878C102.887 21.2663 103.972 21.6056 105.194 21.6056C107.132 21.6056 108.605 20.9949 109.614 19.7736L111.475 21.8091C109.807 23.5345 107.636 24.3972 104.961 24.3972C102.79 24.3972 100.938 23.6799 99.4068 22.2453C97.8947 20.7914 97.1387 18.8528 97.1387 16.4295C97.1387 13.9869 97.9141 12.0483 99.465 10.6138C101.016 9.17919 102.838 8.46191 104.932 8.46191C107.045 8.46191 108.838 9.10165 110.311 10.3811C111.785 11.6412 112.521 13.3859 112.521 15.6153V17.8544ZM100.396 15.2955H109.265C109.265 13.9966 108.857 12.9982 108.043 12.3003C107.229 11.6024 106.221 11.2535 105.019 11.2535C103.837 11.2535 102.77 11.6218 101.82 12.3585C100.87 13.0758 100.396 14.0548 100.396 15.2955Z" fill="#FFFFFF"/>
<path d="M121.948 24.1645L115.725 8.69455H119.098L123.809 20.3843L128.52 8.69455H131.893L125.67 24.1645H121.948Z" fill="#FFFFFF"/>
<path d="M139.49 24.1645H136.233V8.69458H139.49V24.1645Z" fill="#FFFFFF"/>
<path d="M160.352 17.8544H148.226C148.303 18.9788 148.817 19.8899 149.767 20.5878C150.717 21.2663 151.802 21.6056 153.024 21.6056C154.962 21.6056 156.436 20.9949 157.444 19.7736L159.305 21.8091C157.638 23.5345 155.466 24.3972 152.791 24.3972C150.62 24.3972 148.769 23.6799 147.237 22.2453C145.725 20.7914 144.969 18.8528 144.969 16.4295C144.969 13.9869 145.744 12.0483 147.295 10.6138C148.846 9.17919 150.668 8.46191 152.762 8.46191C154.875 8.46191 156.668 9.10165 158.142 10.3811C159.615 11.6412 160.352 13.3859 160.352 15.6153V17.8544ZM148.226 15.2955H157.095C157.095 13.9966 156.688 12.9982 155.874 12.3003C155.059 11.6024 154.051 11.2535 152.849 11.2535C151.667 11.2535 150.601 11.6218 149.651 12.3585C148.701 13.0758 148.226 14.0548 148.226 15.2955Z" fill="#FFFFFF"/>
<path d="M172.919 24.1645H169.196L163.846 8.69455H167.219L171.057 20.3843L174.896 8.69455H178.269L182.107 20.3843L185.946 8.69455H189.319L183.969 24.1645H180.246L176.582 13.5798L172.919 24.1645Z" fill="#FFFFFF"/>
<path d="M204.967 19.541C204.967 21.0143 204.434 22.1969 203.367 23.0886C202.301 23.961 200.934 24.3972 199.267 24.3972C198.143 24.3972 196.97 24.1936 195.749 23.7865C194.547 23.3794 193.481 22.8075 192.55 22.0708L194.12 19.541C195.923 20.898 197.668 21.5765 199.354 21.5765C200.091 21.5765 200.673 21.4117 201.099 21.0822C201.526 20.7332 201.739 20.297 201.739 19.7736C201.739 18.9982 200.711 18.3003 198.657 17.6799C198.501 17.6218 198.385 17.583 198.308 17.5636C195.09 16.6912 193.481 15.2373 193.481 13.2018C193.481 11.7672 194.033 10.6234 195.138 9.77046C196.262 8.8981 197.716 8.46191 199.5 8.46191C201.283 8.46191 202.97 8.98533 204.56 10.0322L203.338 12.4457C202.078 11.6121 200.711 11.1953 199.238 11.1953C198.463 11.1953 197.833 11.3407 197.348 11.6315C196.863 11.9029 196.621 12.3197 196.621 12.8819C196.621 13.3859 196.873 13.7543 197.377 13.9869C197.726 14.1614 198.211 14.3262 198.831 14.4813C199.471 14.6363 200.033 14.7914 200.518 14.9465C201.002 15.1016 201.468 15.2761 201.913 15.4699C202.379 15.6638 202.873 15.9352 203.396 16.2841C204.443 16.982 204.967 18.0676 204.967 19.541Z" fill="#FFFFFF"/>
<path d="M112.521 17.8544H100.396C100.473 18.9788 100.987 19.8899 101.937 20.5878C102.887 21.2663 103.972 21.6056 105.194 21.6056C107.132 21.6056 108.605 20.9949 109.614 19.7736L111.475 21.8091C109.807 23.5345 107.636 24.3972 104.961 24.3972C102.79 24.3972 100.938 23.6799 99.4068 22.2453C97.8947 20.7914 97.1387 18.8528 97.1387 16.4295C97.1387 13.9869 97.9141 12.0483 99.465 10.6138C101.016 9.17919 102.838 8.46191 104.932 8.46191C107.045 8.46191 108.838 9.10165 110.311 10.3811C111.785 11.6412 112.521 13.3859 112.521 15.6153V17.8544ZM100.396 15.2955H109.265C109.265 13.9966 108.857 12.9982 108.043 12.3003C107.229 11.6024 106.221 11.2535 105.019 11.2535C103.837 11.2535 102.77 11.6218 101.82 12.3585C100.87 13.0758 100.396 14.0548 100.396 15.2955Z" fill="#FFFFFF"/>
<path d="M121.948 24.1645L115.725 8.69455H119.098L123.809 20.3843L128.52 8.69455H131.893L125.67 24.1645H121.948Z" fill="#FFFFFF"/>
<path d="M139.49 24.1645H136.233V8.69458H139.49V24.1645Z" fill="#FFFFFF"/>
<path d="M160.352 17.8544H148.226C148.303 18.9788 148.817 19.8899 149.767 20.5878C150.717 21.2663 151.802 21.6056 153.024 21.6056C154.962 21.6056 156.436 20.9949 157.444 19.7736L159.305 21.8091C157.638 23.5345 155.466 24.3972 152.791 24.3972C150.62 24.3972 148.769 23.6799 147.237 22.2453C145.725 20.7914 144.969 18.8528 144.969 16.4295C144.969 13.9869 145.744 12.0483 147.295 10.6138C148.846 9.17919 150.668 8.46191 152.762 8.46191C154.875 8.46191 156.668 9.10165 158.142 10.3811C159.615 11.6412 160.352 13.3859 160.352 15.6153V17.8544ZM148.226 15.2955H157.095C157.095 13.9966 156.688 12.9982 155.874 12.3003C155.059 11.6024 154.051 11.2535 152.849 11.2535C151.667 11.2535 150.601 11.6218 149.651 12.3585C148.701 13.0758 148.226 14.0548 148.226 15.2955Z" fill="#FFFFFF"/>
<path d="M172.919 24.1645H169.196L163.846 8.69455H167.219L171.057 20.3843L174.896 8.69455H178.269L182.107 20.3843L185.946 8.69455H189.319L183.969 24.1645H180.246L176.582 13.5798L172.919 24.1645Z" fill="#FFFFFF"/>
<path d="M204.967 19.541C204.967 21.0143 204.434 22.1969 203.367 23.0886C202.301 23.961 200.934 24.3972 199.267 24.3972C198.143 24.3972 196.97 24.1936 195.749 23.7865C194.547 23.3794 193.481 22.8075 192.55 22.0708L194.12 19.541C195.923 20.898 197.668 21.5765 199.354 21.5765C200.091 21.5765 200.673 21.4117 201.099 21.0822C201.526 20.7332 201.739 20.297 201.739 19.7736C201.739 18.9982 200.711 18.3003 198.657 17.6799C198.501 17.6218 198.385 17.583 198.308 17.5636C195.09 16.6912 193.481 15.2373 193.481 13.2018C193.481 11.7672 194.033 10.6234 195.138 9.77046C196.262 8.8981 197.716 8.46191 199.5 8.46191C201.283 8.46191 202.97 8.98533 204.56 10.0322L203.338 12.4457C202.078 11.6121 200.711 11.1953 199.238 11.1953C198.463 11.1953 197.833 11.3407 197.348 11.6315C196.863 11.9029 196.621 12.3197 196.621 12.8819C196.621 13.3859 196.873 13.7543 197.377 13.9869C197.726 14.1614 198.211 14.3262 198.831 14.4813C199.471 14.6363 200.033 14.7914 200.518 14.9465C201.002 15.1016 201.468 15.2761 201.913 15.4699C202.379 15.6638 202.873 15.9352 203.396 16.2841C204.443 16.982 204.967 18.0676 204.967 19.541Z" fill="#FFFFFF"/>
<path d="M207.369 22.3402C207.369 22.9024 207.573 23.3871 207.98 23.7942C208.387 24.2013 208.872 24.4048 209.434 24.4048C209.996 24.4048 210.481 24.2013 210.888 23.7942C211.295 23.3871 211.498 22.9024 211.498 22.3402C211.498 21.778 211.295 21.2934 210.888 20.8863C210.481 20.4792 209.996 20.2756 209.434 20.2756C208.872 20.2756 208.387 20.4792 207.98 20.8863C207.573 21.2934 207.369 21.778 207.369 22.3402Z" fill="#FFFFFF"/>
<path d="M0 24.1335V3.80737H3.43131V20.8767H12.7075V24.1335H0Z" fill="#FFFFFF"/>
<path d="M32.144 17.8234H20.0181C20.0956 18.9478 20.6094 19.8589 21.5593 20.5568C22.5092 21.2353 23.5948 21.5746 24.8161 21.5746C26.7547 21.5746 28.2281 20.9639 29.2361 19.7426L31.0972 21.7781C29.43 23.5035 27.2588 24.3662 24.5835 24.3662C22.4123 24.3662 20.5609 23.6489 19.0294 22.2143C17.5173 20.7604 16.7613 18.8218 16.7613 16.3985C16.7613 13.9559 17.5367 12.0173 19.0876 10.5828C20.6385 9.1482 22.4607 8.43092 24.5544 8.43092C26.6675 8.43092 28.4607 9.07066 29.934 10.3501C31.4073 11.6102 32.144 13.355 32.144 15.5843V17.8234ZM20.0181 15.2645H28.8872C28.8872 13.9656 28.4801 12.9672 27.6659 12.2693C26.8516 11.5714 25.8436 11.2225 24.6417 11.2225C23.4591 11.2225 22.3929 11.5908 21.443 12.3275C20.4931 13.0448 20.0181 14.0238 20.0181 15.2645Z" fill="#FFFFFF"/>
<path d="M51.8643 17.8234H39.7384C39.8159 18.9478 40.3296 19.8589 41.2796 20.5568C42.2295 21.2353 43.3151 21.5746 44.5364 21.5746C46.475 21.5746 47.9483 20.9639 48.9564 19.7426L50.8174 21.7781C49.1502 23.5035 46.979 24.3662 44.3038 24.3662C42.1325 24.3662 40.2812 23.6489 38.7497 22.2143C37.2376 20.7604 36.4815 18.8218 36.4815 16.3985C36.4815 13.9559 37.257 12.0173 38.8078 10.5828C40.3587 9.1482 42.181 8.43092 44.2747 8.43092C46.3878 8.43092 48.181 9.07066 49.6543 10.3501C51.1276 11.6102 51.8643 13.355 51.8643 15.5843V17.8234ZM39.7384 15.2645H48.6074C48.6074 13.9656 48.2003 12.9672 47.3861 12.2693C46.5719 11.5714 45.5639 11.2225 44.3619 11.2225C43.1794 11.2225 42.1132 11.5908 41.1632 12.3275C40.2133 13.0448 39.7384 14.0238 39.7384 15.2645Z" fill="#FFFFFF"/>
<path d="M61.2034 11.2807V19.132C61.2034 19.8686 61.3972 20.4599 61.785 20.9058C62.1727 21.3323 62.7155 21.5455 63.4134 21.5455C64.1113 21.5455 64.7801 21.2063 65.4198 20.5278L66.7575 22.825C65.6137 23.8524 64.3439 24.3662 62.9481 24.3662C61.5717 24.3662 60.3892 23.8912 59.4005 22.9413C58.4312 21.972 57.9465 20.6731 57.9465 19.0447V11.2807H55.9983V8.66355H57.9465V3.80737H61.2034V8.66355H65.2744V11.2807H61.2034Z" fill="#FFFFFF"/>
<path d="M71.3535 0H83.7568C85.629 0 87.2516 0.197621 88.6246 0.592864C89.9975 0.977705 91.1364 1.53937 92.0413 2.27784C92.9462 3.01632 93.6171 3.91602 94.054 4.97693C94.5012 6.03785 94.7248 7.23918 94.7248 8.58092C94.7248 9.48582 94.6156 10.3491 94.3972 11.1708C94.1788 11.9821 93.8407 12.731 93.3831 13.4174C92.9358 14.1039 92.369 14.7176 91.6825 15.2584C90.996 15.7889 90.1899 16.2309 89.2642 16.5846L94.5688 24.3854H88.5154L83.9285 17.4583H83.7881L76.2992 17.4427H71.3535L71.3535 0ZM83.8817 13.1678C84.8178 13.1678 85.6342 13.0586 86.3311 12.8402C87.0384 12.6218 87.6261 12.3149 88.0941 11.9197C88.5726 11.5244 88.9262 11.046 89.155 10.4843C89.3943 9.91226 89.5139 9.2778 89.5139 8.58092C89.5139 7.21837 89.0458 6.16786 88.1097 5.42938C87.1736 4.6805 85.7643 4.30606 83.8817 4.30606H76.2992V13.1678H83.8817Z" fill="#FFFFFF"/>
<path d="M71.3585 21.0781L71.3585 17.4384L76.0625 17.4171L71.3585 21.0781Z" fill="#FFFFFF"/>
<rect x="71.6289" y="4.26343" width="22.8174" height="9.02479" rx="4.5124" fill="#FFFFFF"/>
<circle cx="77.2567" cy="8.78523" r="1.82893" fill="#141E46"/>
<circle cx="82.9207" cy="8.78523" r="1.82893" fill="#141E46"/>
<circle cx="88.575" cy="8.78523" r="1.82893" fill="#141E46"/>
</svg>
