<svg width="170" height="170" viewBox="0 0 170 170" fill="none" xmlns="http://www.w3.org/2000/svg">
<path d="M43 148.5V134.333C43 126.819 45.9851 119.612 51.2986 114.299C56.6122 108.985 63.8189 106 71.3333 106H99.6667C107.181 106 114.388 108.985 119.701 114.299C125.015 119.612 128 126.819 128 134.333V148.5M57.1667 49.3333C57.1667 56.8478 60.1518 64.0545 65.4653 69.368C70.7788 74.6816 77.9855 77.6667 85.5 77.6667C93.0145 77.6667 100.221 74.6816 105.535 69.368C110.848 64.0545 113.833 56.8478 113.833 49.3333C113.833 41.8189 110.848 34.6122 105.535 29.2986C100.221 23.9851 93.0145 21 85.5 21C77.9855 21 70.7788 23.9851 65.4653 29.2986C60.1518 34.6122 57.1667 41.8189 57.1667 49.3333Z" stroke="#141E46" stroke-width="7" stroke-linecap="round" stroke-linejoin="round"/>
</svg>
