<svg width="93" height="135" viewBox="0 0 93 135" fill="none" xmlns="http://www.w3.org/2000/svg">
<path d="M18.1667 32.3333C18.1667 39.8478 21.1518 47.0545 26.4653 52.368C31.7788 57.6816 38.9855 60.6667 46.5 60.6667C54.0145 60.6667 61.2212 57.6816 66.5347 52.368C71.8482 47.0545 74.8333 39.8478 74.8333 32.3333C74.8333 24.8189 71.8482 17.6122 66.5347 12.2986C61.2212 6.98511 54.0145 4 46.5 4C38.9855 4 31.7788 6.98511 26.4653 12.2986C21.1518 17.6122 18.1667 24.8189 18.1667 32.3333Z" fill="#141E46"/>
<path d="M4 131.5V117.333C4 109.819 6.98511 102.612 12.2986 97.2986C17.6122 91.9851 24.8189 89 32.3333 89H60.6667C68.1811 89 75.3878 91.9851 80.7014 97.2986C86.0149 102.612 89 109.819 89 117.333V131.5M18.1667 32.3333C18.1667 39.8478 21.1518 47.0545 26.4653 52.368C31.7788 57.6816 38.9855 60.6667 46.5 60.6667C54.0145 60.6667 61.2212 57.6816 66.5347 52.368C71.8482 47.0545 74.8333 39.8478 74.8333 32.3333C74.8333 24.8189 71.8482 17.6122 66.5347 12.2986C61.2212 6.98511 54.0145 4 46.5 4C38.9855 4 31.7788 6.98511 26.4653 12.2986C21.1518 17.6122 18.1667 24.8189 18.1667 32.3333Z" stroke="#141E46" stroke-width="7" stroke-linecap="round" stroke-linejoin="round"/>
</svg>
