<svg width="331" height="332" viewBox="0 0 331 332" fill="none" xmlns="http://www.w3.org/2000/svg">
<mask id="mask0_1358_99" style="mask-type:alpha" maskUnits="userSpaceOnUse" x="0" y="0" width="331" height="332">
<rect x="0.460938" y="0.958984" width="330.079" height="330.079" fill="#41B06E"/>
</mask>
<g mask="url(#mask0_1358_99)">
<path d="M75 301V270.889C75 254.917 81.3565 239.599 92.6712 228.305C103.986 217.011 119.332 210.667 135.333 210.667H195.667C211.668 210.667 227.014 217.011 238.329 228.305C249.643 239.599 256 254.917 256 270.889V301M105.167 90.2222C105.167 106.194 111.523 121.512 122.838 132.806C134.153 144.1 149.499 150.444 165.5 150.444C181.501 150.444 196.847 144.1 208.162 132.806C219.477 121.512 225.833 106.194 225.833 90.2222C225.833 74.2503 219.477 58.9325 208.162 47.6387C196.847 36.3448 181.501 30 165.5 30C149.499 30 134.153 36.3448 122.838 47.6387C111.523 58.9325 105.167 74.2503 105.167 90.2222Z" stroke="#FFFFFF" stroke-width="16" stroke-linecap="round" stroke-linejoin="round"/>
</g>
</svg>
