<svg width="72" height="25" viewBox="0 0 72 25" fill="none" xmlns="http://www.w3.org/2000/svg">
<rect x="46.6203" y="1.26872" width="24.7904" height="22.6592" rx="5.20494" stroke="#41B06E" stroke-width="0.78354"/>
<path d="M53.9069 16.0047C53.0312 15.2993 53.0312 14.7661 53.0312 12.4955C53.0312 10.2248 53.0312 9.08951 53.9069 8.38411C54.7826 7.67871 56.192 7.67871 59.0107 7.67871C61.8294 7.67871 63.2388 7.67871 64.1144 8.38411C64.9901 9.08951 64.9901 10.2248 64.9901 12.4955C64.9901 14.7661 64.9901 15.2993 64.1144 16.0047C63.2388 16.7101 61.8294 16.7101 59.0107 16.7101C57.5102 16.7101 56.7383 17.7563 55.423 18.5164V16.5827C54.7689 16.4847 54.2875 16.3113 53.9069 16.0047Z" stroke="#41B06E" stroke-width="0.78" stroke-linecap="round" stroke-linejoin="round"/>
<rect x="1.0482" y="1.26695" width="39.2132" height="22.0733" rx="4.61132" stroke="#41B06E" stroke-width="0.78"/>
<path d="M29.917 7.31269V12.8884H32.4163C32.5541 12.8884 32.6888 12.9293 32.8034 13.0059C32.918 13.0825 33.0073 13.1913 33.0601 13.3187C33.1128 13.446 33.1266 13.5861 33.0997 13.7213C33.0728 13.8565 33.0065 13.9806 32.909 14.0781L28.3188 18.6683C28.1881 18.799 28.0109 18.8724 27.8261 18.8724C27.6413 18.8724 27.464 18.799 27.3333 18.6683L22.7431 14.0781C22.6457 13.9806 22.5793 13.8565 22.5524 13.7213C22.5256 13.5861 22.5394 13.446 22.5921 13.3187C22.6448 13.1913 22.7342 13.0825 22.8487 13.0059C22.9633 12.9293 23.0981 12.8884 23.2359 12.8884H25.7352V7.31269C25.7352 7.12784 25.8086 6.95056 25.9393 6.81986C26.07 6.68915 26.2473 6.61572 26.4322 6.61572L29.22 6.61572C29.4049 6.61572 29.5821 6.68915 29.7128 6.81986C29.8435 6.95056 29.917 7.12784 29.917 7.31269Z" stroke="#41B06E" stroke-width="0.78" stroke-linecap="round" stroke-linejoin="round"/>
<path d="M10.5811 18.4632L10.5811 12.8875L8.08176 12.8875C7.94394 12.8875 7.80922 12.8466 7.69463 12.77C7.58004 12.6934 7.49073 12.5845 7.43799 12.4572C7.38525 12.3299 7.37145 12.1898 7.39833 12.0546C7.42521 11.9194 7.49157 11.7952 7.58901 11.6978L12.1792 7.10756C12.3099 6.9769 12.4872 6.9035 12.672 6.9035C12.8568 6.9035 13.034 6.9769 13.1647 7.10756L17.7549 11.6978C17.8524 11.7952 17.9187 11.9194 17.9456 12.0546C17.9725 12.1898 17.9587 12.3299 17.9059 12.4572C17.8532 12.5846 17.7639 12.6934 17.6493 12.77C17.5347 12.8466 17.4 12.8875 17.2622 12.8875L14.7629 12.8875L14.7629 18.4632C14.7629 18.648 14.6894 18.8253 14.5587 18.956C14.428 19.0867 14.2507 19.1602 14.0659 19.1602L11.278 19.1602C11.0932 19.1602 10.9159 19.0867 10.7852 18.956C10.6545 18.8253 10.5811 18.648 10.5811 18.4632Z" stroke="#41B06E" stroke-width="0.78" stroke-linecap="round" stroke-linejoin="round"/>
</svg>
