<svg width="138" height="138" viewBox="0 0 138 138" fill="none" xmlns="http://www.w3.org/2000/svg">
<path d="M120.644 120.678L86.2924 86.3261M17.5894 57.6998C17.5894 62.9628 18.626 68.1742 20.64 73.0365C22.6541 77.8989 25.6061 82.3169 29.3276 86.0384C33.049 89.7598 37.4671 92.7119 42.3294 94.7259C47.1917 96.74 52.4032 97.7766 57.6661 97.7766C62.9291 97.7766 68.1405 96.74 73.0028 94.7259C77.8652 92.7119 82.2832 89.7598 86.0047 86.0384C89.7261 82.3169 92.6782 77.8989 94.6922 73.0365C96.7063 68.1742 97.7429 62.9628 97.7429 57.6998C97.7429 52.4369 96.7063 47.2254 94.6922 42.3631C92.6782 37.5008 89.7261 33.0827 86.0047 29.3613C82.2832 25.6398 77.8652 22.6878 73.0028 20.6737C68.1405 18.6597 62.9291 17.623 57.6661 17.623C52.4032 17.623 47.1917 18.6597 42.3294 20.6737C37.4671 22.6878 33.049 25.6398 29.3276 29.3613C25.6061 33.0827 22.6541 37.5008 20.64 42.3631C18.626 47.2254 17.5894 52.4369 17.5894 57.6998Z" stroke="#fff5e0" stroke-width="7" stroke-linecap="round" stroke-linejoin="round"/>
</svg>
