<svg width="83" height="83" viewBox="0 0 83 83" fill="none" xmlns="http://www.w3.org/2000/svg">
<path d="M35.3491 14.9469C36.8075 8.93501 45.3598 8.93501 46.8182 14.9469C47.0371 15.8501 47.4661 16.6888 48.0703 17.3948C48.6745 18.1008 49.4369 18.6542 50.2955 19.0099C51.154 19.3656 52.0844 19.5135 53.0109 19.4417C53.9374 19.3699 54.8338 19.0803 55.6272 18.5965C60.9099 15.3783 66.9595 21.4244 63.7412 26.7105C63.2582 27.5036 62.969 28.3995 62.8974 29.3254C62.8257 30.2513 62.9735 31.181 63.3288 32.039C63.6841 32.897 64.2368 33.659 64.942 34.2632C65.6472 34.8674 66.4851 35.2966 67.3874 35.5161C73.3993 36.9745 73.3993 45.5268 67.3874 46.9852C66.4843 47.2041 65.6455 47.6331 64.9395 48.2373C64.2335 48.8415 63.6801 49.6039 63.3244 50.4625C62.9687 51.321 62.8208 52.2513 62.8926 53.1778C62.9645 54.1044 63.2541 55.0008 63.7378 55.7942C66.956 61.0769 60.9099 67.1264 55.6238 63.9082C54.8307 63.4252 53.9348 63.136 53.0089 63.0644C52.0831 62.9927 51.1533 63.1405 50.2954 63.4958C49.4374 63.8511 48.6753 64.4038 48.0711 65.109C47.4669 65.8142 47.0377 66.6521 46.8182 67.5544C45.3598 73.5663 36.8075 73.5663 35.3491 67.5544C35.1303 66.6513 34.7013 65.8125 34.097 65.1065C33.4928 64.4005 32.7304 63.8471 31.8719 63.4914C31.0133 63.1357 30.083 62.9878 29.1565 63.0596C28.23 63.1315 27.3335 63.421 26.5401 63.9048C21.2574 67.123 15.2079 61.0769 18.4261 55.7908C18.9092 54.9977 19.1983 54.1018 19.27 53.1759C19.3416 52.2501 19.1938 51.3203 18.8385 50.4623C18.4833 49.6043 17.9305 48.8423 17.2253 48.2381C16.5201 47.6339 15.6823 47.2047 14.7799 46.9852C8.76802 45.5268 8.76802 36.9745 14.7799 35.5161C15.6831 35.2972 16.5218 34.8683 17.2278 34.264C17.9338 33.6598 18.4872 32.8974 18.8429 32.0389C19.1986 31.1803 19.3465 30.25 19.2747 29.3235C19.2029 28.397 18.9133 27.5005 18.4295 26.7071C15.2113 21.4244 21.2574 15.3749 26.5435 18.5931C29.9671 20.6746 34.4042 18.8327 35.3491 14.9469Z" stroke="white" stroke-width="4.10836" stroke-linecap="round" stroke-linejoin="round"/>
<path d="M30.8128 41.2507C30.8128 43.9747 31.8949 46.5871 33.821 48.5133C35.7472 50.4394 38.3597 51.5215 41.0837 51.5215C43.8077 51.5215 46.4201 50.4394 48.3463 48.5133C50.2724 46.5871 51.3546 43.9747 51.3546 41.2507C51.3546 38.5266 50.2724 35.9142 48.3463 33.988C46.4201 32.0619 43.8077 30.9798 41.0837 30.9798C38.3597 30.9798 35.7472 32.0619 33.821 33.988C31.8949 35.9142 30.8128 38.5266 30.8128 41.2507Z" stroke="white" stroke-width="4.10836" stroke-linecap="round" stroke-linejoin="round"/>
</svg>
