<svg width="18" height="18" viewBox="0 0 18 18" fill="none" xmlns="http://www.w3.org/2000/svg">
<path d="M6 12.0003L12 6.00031M8 3.00031L8.463 2.46431C9.40081 1.52663 10.6727 0.999906 11.9989 1C13.325 1.00009 14.5968 1.527 15.5345 2.46481C16.4722 3.40261 16.9989 4.6745 16.9988 6.00066C16.9987 7.32682 16.4718 8.59863 15.534 9.53631L15 10.0003M10 15.0003L9.60302 15.5343C8.65427 16.4725 7.37381 16.9987 6.03952 16.9987C4.70523 16.9987 3.42477 16.4725 2.47602 15.5343C2.00838 15.0719 1.63711 14.5213 1.38373 13.9144C1.13035 13.3076 0.999878 12.6565 0.999878 11.9988C0.999878 11.3412 1.13035 10.69 1.38373 10.0832C1.63711 9.47628 2.00838 8.92571 2.47602 8.46331L3.00002 8.00031" stroke="#354052" stroke-width="1.5" stroke-linecap="round" stroke-linejoin="round"/>
</svg>
