<svg width="7" height="41" viewBox="0 0 7 41" fill="none" xmlns="http://www.w3.org/2000/svg">
<path d="M0.42738 3.4259C0.42738 2.62108 0.710394 1.93123 1.27642 1.35636C1.84245 0.781492 2.53229 0.498478 3.34596 0.507322C4.14193 0.498478 4.82293 0.781492 5.38896 1.35636C5.95499 1.93123 6.238 2.62108 6.238 3.4259C6.238 4.20419 5.95499 4.88077 5.38896 5.45564C4.82293 6.03935 4.14193 6.33563 3.34596 6.34448C2.80646 6.33563 2.31561 6.19413 1.8734 5.91996C1.43119 5.65463 1.07743 5.30086 0.812102 4.85866C0.555621 4.42529 0.42738 3.94771 0.42738 3.4259ZM0.42738 20.6119C0.42738 19.8071 0.710393 19.1173 1.27642 18.5424C1.84245 17.9675 2.53229 17.6845 3.34596 17.6934C4.14193 17.6845 4.82293 17.9675 5.38896 18.5424C5.95499 19.1173 6.238 19.8071 6.238 20.6119C6.238 21.3902 5.95499 22.0668 5.38896 22.6417C4.82293 23.2254 4.14193 23.5217 3.34596 23.5305C2.80646 23.5217 2.31561 23.3802 1.8734 23.106C1.43119 22.8407 1.07743 22.4869 0.812101 22.0447C0.55562 21.6113 0.42738 21.1337 0.42738 20.6119ZM0.427379 37.798C0.427379 36.9932 0.710392 36.3033 1.27642 35.7284C1.84245 35.1536 2.53229 34.8706 3.34596 34.8794C4.14193 34.8706 4.82293 35.1536 5.38896 35.7284C5.95499 36.3033 6.238 36.9932 6.238 37.798C6.238 38.5763 5.95499 39.2528 5.38896 39.8277C4.82293 40.4114 4.14193 40.7077 3.34596 40.7166C2.80646 40.7077 2.31561 40.5662 1.8734 40.292C1.43119 40.0267 1.07743 39.6729 0.8121 39.2307C0.555619 38.7974 0.427379 38.3198 0.427379 37.798Z" fill="#00224D"/>
</svg>
