<svg width="213" height="13" viewBox="0 0 213 13" fill="none" xmlns="http://www.w3.org/2000/svg">
<path fill-rule="evenodd" clip-rule="evenodd" d="M70.3422 1.14835C46.9441 0.878974 23.4505 1.86343 0.802951 5.99719C0.398881 6.07066 0.231138 6.21515 0.198078 6.24821C0.00461369 6.44413 -0.0162379 6.65228 0.00825119 6.8237C0.0229447 6.92778 0.122169 7.36735 0.664602 7.41266C1.03929 7.44327 3.69876 7.22899 4.72486 7.17389C9.55533 6.91553 14.3761 6.54698 19.1943 6.12087C30.1189 5.15844 41.0287 4.32582 51.9705 3.56788C58.1136 3.14177 64.2591 2.78911 70.401 2.50014C85.1765 2.67279 99.9153 3.34625 114.379 4.04174C108.63 4.39561 103.347 4.75437 98.9676 4.98702C91.5816 5.37884 84.2092 5.84168 76.838 6.45146C73.0507 6.7637 69.2683 7.10288 65.4884 7.50328C65.0697 7.54858 64.1158 7.59511 63.6542 7.65021C63.4583 7.67225 63.3163 7.70776 63.2526 7.73225C62.8535 7.88653 62.8033 8.20243 62.7984 8.36161C62.7959 8.45834 62.829 8.98609 63.5024 9.08894C94.8154 13.9157 127.484 8.3004 158.91 12.9925C159.278 13.0476 159.623 12.7929 159.678 12.4231C159.734 12.0546 159.479 11.7093 159.109 11.6542C129.512 7.23511 98.8108 11.9603 69.1753 8.49141C71.7651 8.2404 74.356 8.01387 76.9494 7.79959C84.3071 7.19103 91.6661 6.72942 99.0398 6.3376C106.46 5.94455 116.491 5.17681 126.99 4.69315C136.001 5.19517 145.007 5.75842 154.019 6.23596C157.821 6.43677 161.624 6.6033 165.425 6.80778C166.987 6.89105 171.007 7.24001 171.59 7.11022C172.043 7.00859 172.152 6.68412 172.179 6.52126C172.207 6.34494 172.19 6.12576 171.984 5.91638C171.921 5.85026 171.73 5.71312 171.338 5.60047C160.74 2.56505 143.387 2.6128 127.135 3.34625C123.639 3.15033 120.143 2.96422 116.646 2.79647C108.641 2.41076 100.547 2.02383 92.4069 1.71894C115.347 1.15202 138.298 1.31488 161.256 1.72507C170.894 1.89772 196.876 2.93851 207.109 3.85807C206.984 3.98664 206.911 4.16541 206.919 4.3601C206.936 4.73233 207.253 5.02131 207.627 5.00416C209.738 4.90621 210.959 4.78131 211.442 4.65274C211.744 4.57315 211.908 4.44581 211.984 4.36255C212.17 4.16174 212.204 3.94623 212.167 3.74174C212.144 3.6144 212.086 3.47481 211.954 3.34625C211.866 3.25808 211.651 3.1234 211.283 3.03157C207.261 2.03119 172.757 0.577748 161.28 0.372039C130.952 -0.16917 100.635 -0.27936 70.3422 1.14835ZM163.134 5.33353C157.208 4.52907 150.26 4.24622 143.012 4.26459C146.704 4.47887 150.397 4.68826 154.091 4.88417C157.105 5.04457 160.119 5.1817 163.134 5.33353ZM42.3904 2.89565C34.6151 3.4687 26.8483 4.08827 19.0755 4.77396C18.178 4.85233 17.2817 4.92947 16.3841 5.00539C24.9798 3.95236 33.6649 3.28258 42.3904 2.89565Z" fill="#41B06E"/>
</svg>
