<svg width="83" height="83" viewBox="0 0 83 83" fill="none" xmlns="http://www.w3.org/2000/svg">
<path d="M21.1156 64.5306C21.963 61.7103 23.6969 59.2383 26.0602 57.4813C28.4234 55.7243 31.2901 54.7758 34.2349 54.7767H47.9295C50.8781 54.7757 53.7483 55.7264 56.1133 57.4875C58.4782 59.2486 60.2116 61.7259 61.0556 64.5512M10.2695 41.0822C10.2695 45.1286 11.0665 49.1353 12.615 52.8737C14.1635 56.6121 16.4331 60.0088 19.2944 62.87C22.1556 65.7313 25.5523 68.0009 29.2907 69.5494C33.0291 71.0979 37.0358 71.8949 41.0822 71.8949C45.1286 71.8949 49.1353 71.0979 52.8737 69.5494C56.6121 68.0009 60.0088 65.7313 62.87 62.87C65.7313 60.0088 68.0009 56.6121 69.5494 52.8737C71.0979 49.1353 71.8949 45.1286 71.8949 41.0822C71.8949 37.0358 71.0979 33.0291 69.5494 29.2907C68.0009 25.5523 65.7313 22.1556 62.87 19.2944C60.0088 16.4331 56.6121 14.1635 52.8737 12.615C49.1353 11.0665 45.1286 10.2695 41.0822 10.2695C37.0358 10.2695 33.0291 11.0665 29.2907 12.615C25.5523 14.1635 22.1556 16.4331 19.2944 19.2944C16.4331 22.1556 14.1635 25.5523 12.615 29.2907C11.0665 33.0291 10.2695 37.0358 10.2695 41.0822ZM30.8113 34.2349C30.8113 36.9589 31.8934 39.5714 33.8196 41.4976C35.7457 43.4237 38.3582 44.5058 41.0822 44.5058C43.8062 44.5058 46.4186 43.4237 48.3448 41.4976C50.271 39.5714 51.3531 36.9589 51.3531 34.2349C51.3531 31.5109 50.271 28.8985 48.3448 26.9723C46.4186 25.0462 43.8062 23.964 41.0822 23.964C38.3582 23.964 35.7457 25.0462 33.8196 26.9723C31.8934 28.8985 30.8113 31.5109 30.8113 34.2349Z" stroke="white" stroke-width="4.10836" stroke-linecap="round" stroke-linejoin="round"/>
</svg>
