<svg width="24" height="20" viewBox="0 0 24 20" fill="none" xmlns="http://www.w3.org/2000/svg">
<path d="M12 7.00045V11.0004M12 15.0004H12.01M10.24 1.95745L1.81802 16.0174C1.64449 16.3181 1.5527 16.659 1.55177 17.0062C1.55083 17.3534 1.64078 17.6948 1.81268 17.9964C1.98458 18.298 2.23244 18.5494 2.53162 18.7256C2.83079 18.9017 3.17086 18.9965 3.51802 19.0004H20.363C20.7102 18.9965 21.0502 18.9017 21.3494 18.7256C21.6486 18.5494 21.8965 18.298 22.0684 17.9964C22.2403 17.6948 22.3302 17.3534 22.3293 17.0062C22.3283 16.659 22.2365 16.3181 22.063 16.0174L13.64 1.95745C13.4627 1.66544 13.2131 1.42404 12.9153 1.25651C12.6176 1.08898 12.2817 1.00098 11.94 1.00098C11.5984 1.00098 11.2625 1.08898 10.9647 1.25651C10.667 1.42404 10.4174 1.66544 10.24 1.95745Z" stroke="#fff5e0" stroke-width="2" stroke-linecap="round" stroke-linejoin="round"/>
</svg>
