<svg width="65" height="65" viewBox="0 0 65 65" fill="none" xmlns="http://www.w3.org/2000/svg">
<path d="M19.8408 62.4999H44.6592C57.1305 62.4999 59.3642 57.6296 60.0157 51.7006L62.3424 27.5006C63.18 20.1196 61.0084 14.0999 47.7615 14.0999H16.7385C3.4916 14.0999 1.31998 20.1196 2.15761 27.5006L4.48434 51.7006C5.13582 57.6296 7.36949 62.4999 19.8408 62.4999Z" stroke="white" stroke-width="3.5" stroke-miterlimit="10" stroke-linecap="round" stroke-linejoin="round"/>
<path d="M19.8409 14.1V11.68C19.8409 6.32575 19.8409 2 29.7683 2H34.732C44.6594 2 44.6594 6.32575 44.6594 11.68V14.1" stroke="white" stroke-width="3.5" stroke-miterlimit="10" stroke-linecap="round" stroke-linejoin="round"/>
<path d="M24.8951 36.7243C17.1598 35.8798 9.56835 33.241 2.78491 28.8889" stroke="white" stroke-width="3.5" stroke-miterlimit="10" stroke-linecap="round" stroke-linejoin="round"/>
<path d="M39.7571 36.7243C47.4923 35.8798 55.0838 33.241 61.8673 28.8889" stroke="white" stroke-width="3.5" stroke-miterlimit="10" stroke-linecap="round" stroke-linejoin="round"/>
<circle cx="32.2501" cy="37.2917" r="6.72222" stroke="white" stroke-width="3.5" stroke-linecap="round" stroke-linejoin="round"/>
</svg>
